<mxfile host="65bd71144e" pages="2">
    <diagram id="ff9zKcclLlOfOaa0kEKy" name="Информационная История">
        <mxGraphModel dx="658" dy="1765" grid="1" gridSize="10" guides="1" tooltips="1" connect="1" arrows="1" fold="1" page="1" pageScale="1" pageWidth="827" pageHeight="1169" background="#ffffff" math="0" shadow="0">
            <root>
                <mxCell id="0"/>
                <mxCell id="1" parent="0"/>
                <mxCell id="MoGYgU4kelHFAJhcgQLA-70" style="edgeStyle=orthogonalEdgeStyle;rounded=1;html=1;exitX=1;exitY=0;exitDx=0;exitDy=0;entryX=1;entryY=1;entryDx=0;entryDy=0;" parent="1" source="bTnD6vcUVwekOTEqjrYx-12" target="bTnD6vcUVwekOTEqjrYx-180" edge="1">
                    <mxGeometry relative="1" as="geometry">
                        <Array as="points">
                            <mxPoint x="760" y="1485"/>
                            <mxPoint x="760" y="1348"/>
                        </Array>
                    </mxGeometry>
                </mxCell>
                <mxCell id="MoGYgU4kelHFAJhcgQLA-73" style="edgeStyle=orthogonalEdgeStyle;rounded=1;html=1;exitX=1;exitY=0;exitDx=0;exitDy=0;entryX=1;entryY=1;entryDx=0;entryDy=0;" parent="1" source="bTnD6vcUVwekOTEqjrYx-12" target="bTnD6vcUVwekOTEqjrYx-182" edge="1">
                    <mxGeometry relative="1" as="geometry">
                        <Array as="points">
                            <mxPoint x="760" y="1485"/>
                            <mxPoint x="760" y="1428"/>
                        </Array>
                    </mxGeometry>
                </mxCell>
                <mxCell id="bTnD6vcUVwekOTEqjrYx-12" value="-4" style="ellipse;whiteSpace=wrap;html=1;aspect=fixed;" parent="1" vertex="1">
                    <mxGeometry x="652" y="1476.8" width="60" height="60" as="geometry"/>
                </mxCell>
                <mxCell id="bTnD6vcUVwekOTEqjrYx-356" style="edgeStyle=orthogonalEdgeStyle;rounded=1;html=1;exitX=0.5;exitY=0;exitDx=0;exitDy=0;entryX=0;entryY=0;entryDx=0;entryDy=0;fillColor=#60a917;strokeColor=#2D7600;" parent="1" source="bTnD6vcUVwekOTEqjrYx-14" target="bTnD6vcUVwekOTEqjrYx-26" edge="1">
                    <mxGeometry relative="1" as="geometry"/>
                </mxCell>
                <mxCell id="bTnD6vcUVwekOTEqjrYx-357" style="edgeStyle=orthogonalEdgeStyle;rounded=1;html=1;exitX=0.5;exitY=0;exitDx=0;exitDy=0;entryX=0.5;entryY=0;entryDx=0;entryDy=0;fillColor=#008a00;strokeColor=#005700;" parent="1" source="bTnD6vcUVwekOTEqjrYx-14" target="bTnD6vcUVwekOTEqjrYx-28" edge="1">
                    <mxGeometry relative="1" as="geometry"/>
                </mxCell>
                <mxCell id="bTnD6vcUVwekOTEqjrYx-14" value="-3" style="ellipse;whiteSpace=wrap;html=1;aspect=fixed;" parent="1" vertex="1">
                    <mxGeometry x="129.5" y="20" width="60" height="60" as="geometry"/>
                </mxCell>
                <mxCell id="bTnD6vcUVwekOTEqjrYx-349" style="edgeStyle=orthogonalEdgeStyle;rounded=1;html=1;exitX=0.5;exitY=1;exitDx=0;exitDy=0;fillColor=#60a917;strokeColor=#2D7600;" parent="1" source="bTnD6vcUVwekOTEqjrYx-16" target="bTnD6vcUVwekOTEqjrYx-20" edge="1">
                    <mxGeometry relative="1" as="geometry"/>
                </mxCell>
                <mxCell id="bTnD6vcUVwekOTEqjrYx-360" style="edgeStyle=orthogonalEdgeStyle;rounded=1;html=1;exitX=0.5;exitY=1;exitDx=0;exitDy=0;entryX=0.5;entryY=0;entryDx=0;entryDy=0;fillColor=#a20025;strokeColor=#6F0000;" parent="1" source="bTnD6vcUVwekOTEqjrYx-16" target="bTnD6vcUVwekOTEqjrYx-30" edge="1">
                    <mxGeometry relative="1" as="geometry">
                        <Array as="points">
                            <mxPoint x="250" y="100"/>
                            <mxPoint x="280" y="100"/>
                            <mxPoint x="280" y="210"/>
                            <mxPoint x="130" y="210"/>
                        </Array>
                    </mxGeometry>
                </mxCell>
                <mxCell id="bTnD6vcUVwekOTEqjrYx-398" style="edgeStyle=orthogonalEdgeStyle;rounded=1;html=1;exitX=0.5;exitY=1;exitDx=0;exitDy=0;entryX=0.5;entryY=0;entryDx=0;entryDy=0;fillColor=#a20025;strokeColor=#6F0000;" parent="1" source="bTnD6vcUVwekOTEqjrYx-16" target="bTnD6vcUVwekOTEqjrYx-376" edge="1">
                    <mxGeometry relative="1" as="geometry">
                        <Array as="points">
                            <mxPoint x="250" y="100"/>
                            <mxPoint x="280" y="100"/>
                            <mxPoint x="280" y="210"/>
                            <mxPoint x="268" y="210"/>
                        </Array>
                    </mxGeometry>
                </mxCell>
                <mxCell id="bTnD6vcUVwekOTEqjrYx-399" style="edgeStyle=orthogonalEdgeStyle;rounded=1;html=1;exitX=0.5;exitY=1;exitDx=0;exitDy=0;entryX=0.5;entryY=0;entryDx=0;entryDy=0;fillColor=#a20025;strokeColor=#6F0000;" parent="1" source="bTnD6vcUVwekOTEqjrYx-16" target="bTnD6vcUVwekOTEqjrYx-72" edge="1">
                    <mxGeometry relative="1" as="geometry">
                        <Array as="points">
                            <mxPoint x="250" y="100"/>
                            <mxPoint x="280" y="100"/>
                            <mxPoint x="280" y="210"/>
                            <mxPoint x="440" y="210"/>
                        </Array>
                    </mxGeometry>
                </mxCell>
                <mxCell id="bTnD6vcUVwekOTEqjrYx-404" style="edgeStyle=orthogonalEdgeStyle;rounded=1;html=1;exitX=0.5;exitY=1;exitDx=0;exitDy=0;entryX=0.5;entryY=0;entryDx=0;entryDy=0;fillColor=#a20025;strokeColor=#6F0000;" parent="1" source="bTnD6vcUVwekOTEqjrYx-16" target="bTnD6vcUVwekOTEqjrYx-401" edge="1">
                    <mxGeometry relative="1" as="geometry">
                        <Array as="points">
                            <mxPoint x="250" y="100"/>
                            <mxPoint x="280" y="100"/>
                            <mxPoint x="280" y="210"/>
                            <mxPoint x="530" y="210"/>
                        </Array>
                    </mxGeometry>
                </mxCell>
                <mxCell id="bTnD6vcUVwekOTEqjrYx-412" style="edgeStyle=orthogonalEdgeStyle;rounded=1;html=1;exitX=0.5;exitY=0;exitDx=0;exitDy=0;entryX=0;entryY=0.5;entryDx=0;entryDy=0;fillColor=#647687;strokeColor=#314354;" parent="1" source="bTnD6vcUVwekOTEqjrYx-16" target="bTnD6vcUVwekOTEqjrYx-94" edge="1">
                    <mxGeometry relative="1" as="geometry">
                        <Array as="points">
                            <mxPoint x="250"/>
                            <mxPoint x="20"/>
                            <mxPoint x="20" y="1010"/>
                        </Array>
                    </mxGeometry>
                </mxCell>
                <mxCell id="MoGYgU4kelHFAJhcgQLA-6" style="edgeStyle=orthogonalEdgeStyle;rounded=1;html=1;exitX=0.5;exitY=1;exitDx=0;exitDy=0;entryX=0.5;entryY=0;entryDx=0;entryDy=0;fillColor=#a20025;strokeColor=#6F0000;" parent="1" source="bTnD6vcUVwekOTEqjrYx-16" target="MoGYgU4kelHFAJhcgQLA-2" edge="1">
                    <mxGeometry relative="1" as="geometry">
                        <Array as="points">
                            <mxPoint x="249" y="100"/>
                            <mxPoint x="280" y="100"/>
                            <mxPoint x="280" y="210"/>
                            <mxPoint x="340" y="210"/>
                            <mxPoint x="340" y="970"/>
                            <mxPoint x="268" y="970"/>
                        </Array>
                    </mxGeometry>
                </mxCell>
                <mxCell id="bTnD6vcUVwekOTEqjrYx-16" value="-2" style="ellipse;whiteSpace=wrap;html=1;aspect=fixed;" parent="1" vertex="1">
                    <mxGeometry x="219.5" y="20" width="60" height="60" as="geometry"/>
                </mxCell>
                <mxCell id="bTnD6vcUVwekOTEqjrYx-353" style="edgeStyle=orthogonalEdgeStyle;rounded=1;html=1;exitX=0.5;exitY=1;exitDx=0;exitDy=0;entryX=0.5;entryY=0;entryDx=0;entryDy=0;fillColor=#0050ef;strokeColor=#001DBC;" parent="1" source="bTnD6vcUVwekOTEqjrYx-18" target="bTnD6vcUVwekOTEqjrYx-26" edge="1">
                    <mxGeometry relative="1" as="geometry"/>
                </mxCell>
                <mxCell id="bTnD6vcUVwekOTEqjrYx-359" style="edgeStyle=orthogonalEdgeStyle;rounded=1;html=1;exitX=0.5;exitY=1;exitDx=0;exitDy=0;entryX=0;entryY=0;entryDx=0;entryDy=0;fillColor=#6a00ff;strokeColor=#3700CC;" parent="1" source="bTnD6vcUVwekOTEqjrYx-18" target="bTnD6vcUVwekOTEqjrYx-28" edge="1">
                    <mxGeometry relative="1" as="geometry"/>
                </mxCell>
                <mxCell id="bTnD6vcUVwekOTEqjrYx-373" style="edgeStyle=orthogonalEdgeStyle;rounded=1;html=1;exitX=1;exitY=1;exitDx=0;exitDy=0;entryX=1;entryY=0.5;entryDx=0;entryDy=0;fillColor=#e51400;strokeColor=#B20000;" parent="1" source="bTnD6vcUVwekOTEqjrYx-18" target="bTnD6vcUVwekOTEqjrYx-40" edge="1">
                    <mxGeometry relative="1" as="geometry">
                        <Array as="points">
                            <mxPoint x="361" y="220"/>
                            <mxPoint x="210" y="220"/>
                            <mxPoint x="210" y="680"/>
                        </Array>
                    </mxGeometry>
                </mxCell>
                <mxCell id="bTnD6vcUVwekOTEqjrYx-411" style="edgeStyle=orthogonalEdgeStyle;rounded=1;html=1;exitX=1;exitY=1;exitDx=0;exitDy=0;entryX=0.5;entryY=0;entryDx=0;entryDy=0;fillColor=#e51400;strokeColor=#B20000;" parent="1" source="bTnD6vcUVwekOTEqjrYx-18" target="bTnD6vcUVwekOTEqjrYx-94" edge="1">
                    <mxGeometry relative="1" as="geometry">
                        <Array as="points">
                            <mxPoint x="361" y="220"/>
                            <mxPoint x="210" y="220"/>
                            <mxPoint x="210" y="910"/>
                            <mxPoint x="90" y="910"/>
                        </Array>
                    </mxGeometry>
                </mxCell>
                <mxCell id="MoGYgU4kelHFAJhcgQLA-47" style="edgeStyle=orthogonalEdgeStyle;rounded=1;html=1;exitX=1;exitY=1;exitDx=0;exitDy=0;entryX=0;entryY=0;entryDx=0;entryDy=0;fillColor=#e51400;strokeColor=#B20000;" parent="1" source="bTnD6vcUVwekOTEqjrYx-18" target="MoGYgU4kelHFAJhcgQLA-46" edge="1">
                    <mxGeometry relative="1" as="geometry">
                        <Array as="points">
                            <mxPoint x="361" y="939"/>
                        </Array>
                    </mxGeometry>
                </mxCell>
                <mxCell id="bTnD6vcUVwekOTEqjrYx-18" value="-1" style="ellipse;whiteSpace=wrap;html=1;aspect=fixed;" parent="1" vertex="1">
                    <mxGeometry x="309.5" y="20" width="60" height="60" as="geometry"/>
                </mxCell>
                <mxCell id="bTnD6vcUVwekOTEqjrYx-351" style="edgeStyle=orthogonalEdgeStyle;rounded=1;html=1;exitX=1;exitY=0.5;exitDx=0;exitDy=0;fillColor=#1ba1e2;strokeColor=#006EAF;" parent="1" source="bTnD6vcUVwekOTEqjrYx-20" target="bTnD6vcUVwekOTEqjrYx-22" edge="1">
                    <mxGeometry relative="1" as="geometry"/>
                </mxCell>
                <mxCell id="bTnD6vcUVwekOTEqjrYx-20" value="0" style="ellipse;whiteSpace=wrap;html=1;aspect=fixed;" parent="1" vertex="1">
                    <mxGeometry x="49.5" y="120" width="60" height="60" as="geometry"/>
                </mxCell>
                <mxCell id="bTnD6vcUVwekOTEqjrYx-354" style="edgeStyle=orthogonalEdgeStyle;rounded=1;html=1;exitX=1;exitY=1;exitDx=0;exitDy=0;entryX=0.5;entryY=1;entryDx=0;entryDy=0;fillColor=#d80073;strokeColor=#A50040;" parent="1" source="bTnD6vcUVwekOTEqjrYx-22" target="bTnD6vcUVwekOTEqjrYx-26" edge="1">
                    <mxGeometry relative="1" as="geometry">
                        <Array as="points">
                            <mxPoint x="181" y="190"/>
                            <mxPoint x="320" y="190"/>
                        </Array>
                    </mxGeometry>
                </mxCell>
                <mxCell id="bTnD6vcUVwekOTEqjrYx-358" style="edgeStyle=orthogonalEdgeStyle;rounded=1;html=1;exitX=1;exitY=1;exitDx=0;exitDy=0;entryX=0.5;entryY=1;entryDx=0;entryDy=0;fillColor=#d80073;strokeColor=#A50040;" parent="1" source="bTnD6vcUVwekOTEqjrYx-22" target="bTnD6vcUVwekOTEqjrYx-28" edge="1">
                    <mxGeometry relative="1" as="geometry">
                        <Array as="points">
                            <mxPoint x="181" y="190"/>
                            <mxPoint x="400" y="190"/>
                        </Array>
                    </mxGeometry>
                </mxCell>
                <mxCell id="bTnD6vcUVwekOTEqjrYx-362" style="edgeStyle=orthogonalEdgeStyle;rounded=1;html=1;exitX=0.5;exitY=1;exitDx=0;exitDy=0;entryX=0;entryY=0.5;entryDx=0;entryDy=0;" parent="1" source="bTnD6vcUVwekOTEqjrYx-22" target="bTnD6vcUVwekOTEqjrYx-34" edge="1">
                    <mxGeometry relative="1" as="geometry">
                        <Array as="points">
                            <mxPoint x="160" y="190"/>
                            <mxPoint x="80" y="190"/>
                            <mxPoint x="80" y="430"/>
                        </Array>
                    </mxGeometry>
                </mxCell>
                <mxCell id="bTnD6vcUVwekOTEqjrYx-365" style="edgeStyle=orthogonalEdgeStyle;rounded=1;html=1;exitX=0.5;exitY=1;exitDx=0;exitDy=0;entryX=0;entryY=0.5;entryDx=0;entryDy=0;" parent="1" source="bTnD6vcUVwekOTEqjrYx-22" target="bTnD6vcUVwekOTEqjrYx-36" edge="1">
                    <mxGeometry relative="1" as="geometry">
                        <Array as="points">
                            <mxPoint x="160" y="190"/>
                            <mxPoint x="80" y="190"/>
                            <mxPoint x="80" y="520"/>
                        </Array>
                    </mxGeometry>
                </mxCell>
                <mxCell id="bTnD6vcUVwekOTEqjrYx-367" style="edgeStyle=orthogonalEdgeStyle;rounded=1;html=1;exitX=0.5;exitY=1;exitDx=0;exitDy=0;entryX=0;entryY=0.5;entryDx=0;entryDy=0;" parent="1" source="bTnD6vcUVwekOTEqjrYx-22" target="bTnD6vcUVwekOTEqjrYx-38" edge="1">
                    <mxGeometry relative="1" as="geometry">
                        <Array as="points">
                            <mxPoint x="160" y="190"/>
                            <mxPoint x="80" y="190"/>
                            <mxPoint x="80" y="600"/>
                        </Array>
                    </mxGeometry>
                </mxCell>
                <mxCell id="bTnD6vcUVwekOTEqjrYx-384" style="edgeStyle=orthogonalEdgeStyle;rounded=1;html=1;exitX=0.5;exitY=1;exitDx=0;exitDy=0;entryX=0;entryY=0.5;entryDx=0;entryDy=0;" parent="1" source="bTnD6vcUVwekOTEqjrYx-22" target="bTnD6vcUVwekOTEqjrYx-378" edge="1">
                    <mxGeometry relative="1" as="geometry">
                        <Array as="points">
                            <mxPoint x="160" y="190"/>
                            <mxPoint x="180" y="190"/>
                            <mxPoint x="180" y="430"/>
                        </Array>
                    </mxGeometry>
                </mxCell>
                <mxCell id="bTnD6vcUVwekOTEqjrYx-385" style="edgeStyle=orthogonalEdgeStyle;rounded=1;html=1;exitX=0.5;exitY=1;exitDx=0;exitDy=0;entryX=0;entryY=0.5;entryDx=0;entryDy=0;" parent="1" source="bTnD6vcUVwekOTEqjrYx-22" target="bTnD6vcUVwekOTEqjrYx-379" edge="1">
                    <mxGeometry relative="1" as="geometry">
                        <Array as="points">
                            <mxPoint x="160" y="190"/>
                            <mxPoint x="180" y="190"/>
                            <mxPoint x="180" y="516"/>
                        </Array>
                    </mxGeometry>
                </mxCell>
                <mxCell id="bTnD6vcUVwekOTEqjrYx-386" style="edgeStyle=orthogonalEdgeStyle;rounded=1;html=1;exitX=0.5;exitY=1;exitDx=0;exitDy=0;entryX=0;entryY=0.5;entryDx=0;entryDy=0;" parent="1" source="bTnD6vcUVwekOTEqjrYx-22" target="bTnD6vcUVwekOTEqjrYx-380" edge="1">
                    <mxGeometry relative="1" as="geometry">
                        <Array as="points">
                            <mxPoint x="160" y="190"/>
                            <mxPoint x="180" y="190"/>
                            <mxPoint x="180" y="596"/>
                        </Array>
                    </mxGeometry>
                </mxCell>
                <mxCell id="MoGYgU4kelHFAJhcgQLA-4" style="edgeStyle=orthogonalEdgeStyle;rounded=1;html=1;exitX=0.5;exitY=1;exitDx=0;exitDy=0;entryX=0.5;entryY=0;entryDx=0;entryDy=0;" parent="1" source="bTnD6vcUVwekOTEqjrYx-22" target="bTnD6vcUVwekOTEqjrYx-414" edge="1">
                    <mxGeometry relative="1" as="geometry">
                        <Array as="points">
                            <mxPoint x="160" y="190"/>
                            <mxPoint x="80" y="190"/>
                            <mxPoint x="80" y="980"/>
                            <mxPoint x="180" y="980"/>
                        </Array>
                    </mxGeometry>
                </mxCell>
                <mxCell id="bTnD6vcUVwekOTEqjrYx-22" value="1" style="ellipse;whiteSpace=wrap;html=1;aspect=fixed;" parent="1" vertex="1">
                    <mxGeometry x="130" y="120" width="60" height="60" as="geometry"/>
                </mxCell>
                <mxCell id="bTnD6vcUVwekOTEqjrYx-364" style="edgeStyle=orthogonalEdgeStyle;rounded=1;html=1;exitX=0.5;exitY=1;exitDx=0;exitDy=0;entryX=1;entryY=0.5;entryDx=0;entryDy=0;fillColor=#6a00ff;strokeColor=#3700CC;" parent="1" source="bTnD6vcUVwekOTEqjrYx-24" target="bTnD6vcUVwekOTEqjrYx-36" edge="1">
                    <mxGeometry relative="1" as="geometry">
                        <Array as="points">
                            <mxPoint x="240" y="230"/>
                            <mxPoint x="190" y="230"/>
                            <mxPoint x="190" y="520"/>
                        </Array>
                    </mxGeometry>
                </mxCell>
                <mxCell id="bTnD6vcUVwekOTEqjrYx-366" style="edgeStyle=orthogonalEdgeStyle;rounded=1;html=1;exitX=0.5;exitY=1;exitDx=0;exitDy=0;entryX=1;entryY=0.5;entryDx=0;entryDy=0;fillColor=#6a00ff;strokeColor=#3700CC;" parent="1" source="bTnD6vcUVwekOTEqjrYx-24" target="bTnD6vcUVwekOTEqjrYx-38" edge="1">
                    <mxGeometry relative="1" as="geometry">
                        <Array as="points">
                            <mxPoint x="240" y="230"/>
                            <mxPoint x="190" y="230"/>
                            <mxPoint x="190" y="600"/>
                        </Array>
                    </mxGeometry>
                </mxCell>
                <mxCell id="bTnD6vcUVwekOTEqjrYx-374" style="edgeStyle=orthogonalEdgeStyle;rounded=1;html=1;exitX=0.5;exitY=1;exitDx=0;exitDy=0;entryX=1;entryY=0.5;entryDx=0;entryDy=0;fillColor=#6a00ff;strokeColor=#3700CC;" parent="1" source="bTnD6vcUVwekOTEqjrYx-24" target="bTnD6vcUVwekOTEqjrYx-42" edge="1">
                    <mxGeometry relative="1" as="geometry">
                        <Array as="points">
                            <mxPoint x="240" y="230"/>
                            <mxPoint x="190" y="230"/>
                            <mxPoint x="190" y="760"/>
                        </Array>
                    </mxGeometry>
                </mxCell>
                <mxCell id="bTnD6vcUVwekOTEqjrYx-24" value="2" style="ellipse;whiteSpace=wrap;html=1;aspect=fixed;" parent="1" vertex="1">
                    <mxGeometry x="210" y="120" width="60" height="60" as="geometry"/>
                </mxCell>
                <mxCell id="bTnD6vcUVwekOTEqjrYx-26" value="3" style="ellipse;whiteSpace=wrap;html=1;aspect=fixed;" parent="1" vertex="1">
                    <mxGeometry x="290" y="120" width="60" height="60" as="geometry"/>
                </mxCell>
                <mxCell id="bTnD6vcUVwekOTEqjrYx-28" value="4" style="ellipse;whiteSpace=wrap;html=1;aspect=fixed;" parent="1" vertex="1">
                    <mxGeometry x="370" y="120" width="60" height="60" as="geometry"/>
                </mxCell>
                <mxCell id="bTnD6vcUVwekOTEqjrYx-363" style="edgeStyle=orthogonalEdgeStyle;rounded=1;html=1;exitX=0;exitY=0.5;exitDx=0;exitDy=0;entryX=0;entryY=0;entryDx=0;entryDy=0;fillColor=#d80073;strokeColor=#A50040;" parent="1" source="bTnD6vcUVwekOTEqjrYx-30" target="bTnD6vcUVwekOTEqjrYx-34" edge="1">
                    <mxGeometry relative="1" as="geometry">
                        <Array as="points">
                            <mxPoint x="90" y="270"/>
                            <mxPoint x="90" y="390"/>
                            <mxPoint x="109" y="390"/>
                        </Array>
                    </mxGeometry>
                </mxCell>
                <mxCell id="bTnD6vcUVwekOTEqjrYx-396" style="edgeStyle=orthogonalEdgeStyle;rounded=1;html=1;exitX=1;exitY=0.5;exitDx=0;exitDy=0;entryX=0;entryY=0.5;entryDx=0;entryDy=0;fillColor=#647687;strokeColor=#314354;" parent="1" source="bTnD6vcUVwekOTEqjrYx-30" target="bTnD6vcUVwekOTEqjrYx-376" edge="1">
                    <mxGeometry relative="1" as="geometry"/>
                </mxCell>
                <mxCell id="bTnD6vcUVwekOTEqjrYx-30" value="5" style="ellipse;whiteSpace=wrap;html=1;aspect=fixed;" parent="1" vertex="1">
                    <mxGeometry x="100" y="240" width="60" height="60" as="geometry"/>
                </mxCell>
                <mxCell id="bTnD6vcUVwekOTEqjrYx-32" value="6" style="ellipse;whiteSpace=wrap;html=1;aspect=fixed;" parent="1" vertex="1">
                    <mxGeometry x="100" y="320" width="60" height="60" as="geometry"/>
                </mxCell>
                <mxCell id="bTnD6vcUVwekOTEqjrYx-34" value="7" style="ellipse;whiteSpace=wrap;html=1;aspect=fixed;" parent="1" vertex="1">
                    <mxGeometry x="100" y="400" width="60" height="60" as="geometry"/>
                </mxCell>
                <mxCell id="bTnD6vcUVwekOTEqjrYx-369" style="edgeStyle=orthogonalEdgeStyle;rounded=1;html=1;exitX=0.5;exitY=1;exitDx=0;exitDy=0;entryX=0;entryY=0.5;entryDx=0;entryDy=0;fillColor=#e3c800;strokeColor=#B09500;" parent="1" source="bTnD6vcUVwekOTEqjrYx-36" target="bTnD6vcUVwekOTEqjrYx-40" edge="1">
                    <mxGeometry relative="1" as="geometry">
                        <Array as="points">
                            <mxPoint x="130" y="560"/>
                            <mxPoint x="40" y="560"/>
                            <mxPoint x="40" y="680"/>
                        </Array>
                    </mxGeometry>
                </mxCell>
                <mxCell id="bTnD6vcUVwekOTEqjrYx-36" value="8" style="ellipse;whiteSpace=wrap;html=1;aspect=fixed;" parent="1" vertex="1">
                    <mxGeometry x="100" y="490" width="60" height="60" as="geometry"/>
                </mxCell>
                <mxCell id="bTnD6vcUVwekOTEqjrYx-370" style="edgeStyle=orthogonalEdgeStyle;rounded=1;html=1;exitX=0.5;exitY=1;exitDx=0;exitDy=0;entryX=0;entryY=0.5;entryDx=0;entryDy=0;fillColor=#e3c800;strokeColor=#B09500;" parent="1" source="bTnD6vcUVwekOTEqjrYx-38" target="bTnD6vcUVwekOTEqjrYx-40" edge="1">
                    <mxGeometry relative="1" as="geometry">
                        <Array as="points">
                            <mxPoint x="130" y="640"/>
                            <mxPoint x="40" y="640"/>
                            <mxPoint x="40" y="680"/>
                        </Array>
                    </mxGeometry>
                </mxCell>
                <mxCell id="bTnD6vcUVwekOTEqjrYx-38" value="9" style="ellipse;whiteSpace=wrap;html=1;aspect=fixed;" parent="1" vertex="1">
                    <mxGeometry x="100" y="570" width="60" height="60" as="geometry"/>
                </mxCell>
                <mxCell id="bTnD6vcUVwekOTEqjrYx-40" value="10" style="ellipse;whiteSpace=wrap;html=1;aspect=fixed;" parent="1" vertex="1">
                    <mxGeometry x="100" y="650" width="60" height="60" as="geometry"/>
                </mxCell>
                <mxCell id="bTnD6vcUVwekOTEqjrYx-391" style="edgeStyle=orthogonalEdgeStyle;rounded=1;html=1;exitX=1;exitY=0.5;exitDx=0;exitDy=0;entryX=0;entryY=0.5;entryDx=0;entryDy=0;fillColor=#a0522d;strokeColor=#6D1F00;" parent="1" source="bTnD6vcUVwekOTEqjrYx-42" target="bTnD6vcUVwekOTEqjrYx-382" edge="1">
                    <mxGeometry relative="1" as="geometry"/>
                </mxCell>
                <mxCell id="bTnD6vcUVwekOTEqjrYx-393" style="edgeStyle=orthogonalEdgeStyle;rounded=1;html=1;exitX=1;exitY=0.5;exitDx=0;exitDy=0;entryX=1;entryY=0.5;entryDx=0;entryDy=0;fillColor=#a0522d;strokeColor=#6D1F00;" parent="1" source="bTnD6vcUVwekOTEqjrYx-42" target="bTnD6vcUVwekOTEqjrYx-380" edge="1">
                    <mxGeometry relative="1" as="geometry">
                        <Array as="points">
                            <mxPoint x="160" y="800"/>
                            <mxPoint x="320" y="800"/>
                            <mxPoint x="320" y="596"/>
                        </Array>
                    </mxGeometry>
                </mxCell>
                <mxCell id="bTnD6vcUVwekOTEqjrYx-395" style="edgeStyle=orthogonalEdgeStyle;rounded=1;html=1;exitX=1;exitY=0.5;exitDx=0;exitDy=0;entryX=1;entryY=0.5;entryDx=0;entryDy=0;fillColor=#a0522d;strokeColor=#6D1F00;" parent="1" source="bTnD6vcUVwekOTEqjrYx-42" target="bTnD6vcUVwekOTEqjrYx-379" edge="1">
                    <mxGeometry relative="1" as="geometry">
                        <Array as="points">
                            <mxPoint x="160" y="800"/>
                            <mxPoint x="320" y="800"/>
                            <mxPoint x="320" y="516"/>
                        </Array>
                    </mxGeometry>
                </mxCell>
                <mxCell id="bTnD6vcUVwekOTEqjrYx-42" value="11" style="ellipse;whiteSpace=wrap;html=1;aspect=fixed;" parent="1" vertex="1">
                    <mxGeometry x="100" y="730" width="60" height="60" as="geometry"/>
                </mxCell>
                <mxCell id="bTnD6vcUVwekOTEqjrYx-406" style="edgeStyle=orthogonalEdgeStyle;rounded=1;html=1;exitX=1;exitY=0.5;exitDx=0;exitDy=0;entryX=0;entryY=0.5;entryDx=0;entryDy=0;fillColor=#0050ef;strokeColor=#001DBC;" parent="1" source="bTnD6vcUVwekOTEqjrYx-72" target="bTnD6vcUVwekOTEqjrYx-401" edge="1">
                    <mxGeometry relative="1" as="geometry"/>
                </mxCell>
                <mxCell id="bTnD6vcUVwekOTEqjrYx-72" value="5" style="ellipse;whiteSpace=wrap;html=1;aspect=fixed;" parent="1" vertex="1">
                    <mxGeometry x="410" y="240" width="60" height="60" as="geometry"/>
                </mxCell>
                <mxCell id="bTnD6vcUVwekOTEqjrYx-74" value="6" style="ellipse;whiteSpace=wrap;html=1;aspect=fixed;" parent="1" vertex="1">
                    <mxGeometry x="410" y="330" width="60" height="60" as="geometry"/>
                </mxCell>
                <mxCell id="bTnD6vcUVwekOTEqjrYx-405" style="edgeStyle=orthogonalEdgeStyle;rounded=1;html=1;exitX=1;exitY=0.5;exitDx=0;exitDy=0;entryX=0;entryY=0.5;entryDx=0;entryDy=0;fillColor=#a20025;strokeColor=#6F0000;" parent="1" source="bTnD6vcUVwekOTEqjrYx-76" target="bTnD6vcUVwekOTEqjrYx-403" edge="1">
                    <mxGeometry relative="1" as="geometry"/>
                </mxCell>
                <mxCell id="bTnD6vcUVwekOTEqjrYx-76" value="11" style="ellipse;whiteSpace=wrap;html=1;aspect=fixed;" parent="1" vertex="1">
                    <mxGeometry x="410" y="730" width="60" height="60" as="geometry"/>
                </mxCell>
                <mxCell id="bTnD6vcUVwekOTEqjrYx-81" style="edgeStyle=orthogonalEdgeStyle;html=1;exitX=0.5;exitY=1;exitDx=0;exitDy=0;entryX=0.5;entryY=0;entryDx=0;entryDy=0;dashed=1;" parent="1" edge="1">
                    <mxGeometry relative="1" as="geometry">
                        <Array as="points">
                            <mxPoint x="520" y="820"/>
                            <mxPoint x="560" y="820"/>
                            <mxPoint x="560" y="220"/>
                            <mxPoint x="600" y="220"/>
                        </Array>
                        <mxPoint x="520" y="790" as="sourcePoint"/>
                    </mxGeometry>
                </mxCell>
                <mxCell id="bTnD6vcUVwekOTEqjrYx-89" value="" style="shape=partialRectangle;whiteSpace=wrap;html=1;bottom=1;right=1;left=1;top=0;fillColor=none;routingCenterX=-0.5;" parent="1" vertex="1">
                    <mxGeometry x="108.5" y="830" width="223" height="10" as="geometry"/>
                </mxCell>
                <mxCell id="bTnD6vcUVwekOTEqjrYx-90" value="ceil(log2(n)-log2(thid))" style="text;html=1;align=center;verticalAlign=middle;resizable=0;points=[];autosize=1;strokeColor=none;fillColor=none;" parent="1" vertex="1">
                    <mxGeometry x="145" y="850" width="130" height="20" as="geometry"/>
                </mxCell>
                <mxCell id="bTnD6vcUVwekOTEqjrYx-91" value="ceil(log2(thid))" style="text;html=1;align=center;verticalAlign=middle;resizable=0;points=[];autosize=1;strokeColor=none;fillColor=none;" parent="1" vertex="1">
                    <mxGeometry x="475" y="850" width="90" height="20" as="geometry"/>
                </mxCell>
                <mxCell id="bTnD6vcUVwekOTEqjrYx-92" value="" style="shape=partialRectangle;whiteSpace=wrap;html=1;bottom=1;right=1;left=1;top=0;fillColor=none;routingCenterX=-0.5;" parent="1" vertex="1">
                    <mxGeometry x="400" y="830" width="223" height="10" as="geometry"/>
                </mxCell>
                <mxCell id="bTnD6vcUVwekOTEqjrYx-94" value="12" style="ellipse;whiteSpace=wrap;html=1;aspect=fixed;" parent="1" vertex="1">
                    <mxGeometry x="60" y="1216.8" width="60" height="60" as="geometry"/>
                </mxCell>
                <mxCell id="MoGYgU4kelHFAJhcgQLA-32" style="edgeStyle=orthogonalEdgeStyle;rounded=1;html=1;exitX=1;exitY=0.5;exitDx=0;exitDy=0;entryX=0;entryY=0.5;entryDx=0;entryDy=0;" parent="1" source="bTnD6vcUVwekOTEqjrYx-96" target="MoGYgU4kelHFAJhcgQLA-9" edge="1">
                    <mxGeometry relative="1" as="geometry"/>
                </mxCell>
                <mxCell id="bTnD6vcUVwekOTEqjrYx-96" value="13" style="ellipse;whiteSpace=wrap;html=1;aspect=fixed;" parent="1" vertex="1">
                    <mxGeometry x="140" y="1216.8" width="60" height="60" as="geometry"/>
                </mxCell>
                <mxCell id="MoGYgU4kelHFAJhcgQLA-21" style="edgeStyle=orthogonalEdgeStyle;rounded=1;html=1;exitX=1;exitY=1;exitDx=0;exitDy=0;fillColor=#f0a30a;strokeColor=#BD7000;" parent="1" source="bTnD6vcUVwekOTEqjrYx-98" target="MoGYgU4kelHFAJhcgQLA-10" edge="1">
                    <mxGeometry relative="1" as="geometry"/>
                </mxCell>
                <mxCell id="MoGYgU4kelHFAJhcgQLA-38" style="edgeStyle=orthogonalEdgeStyle;rounded=1;html=1;exitX=0;exitY=0.5;exitDx=0;exitDy=0;entryX=0;entryY=0.5;entryDx=0;entryDy=0;fillColor=#6d8764;strokeColor=#3A5431;" parent="1" source="bTnD6vcUVwekOTEqjrYx-98" target="bTnD6vcUVwekOTEqjrYx-104" edge="1">
                    <mxGeometry relative="1" as="geometry">
                        <Array as="points">
                            <mxPoint x="100" y="1327"/>
                            <mxPoint x="100" y="1567"/>
                        </Array>
                    </mxGeometry>
                </mxCell>
                <mxCell id="MoGYgU4kelHFAJhcgQLA-41" style="edgeStyle=orthogonalEdgeStyle;rounded=1;html=1;exitX=0;exitY=0.5;exitDx=0;exitDy=0;entryX=0;entryY=0.5;entryDx=0;entryDy=0;fillColor=#6d8764;strokeColor=#3A5431;" parent="1" source="bTnD6vcUVwekOTEqjrYx-98" target="bTnD6vcUVwekOTEqjrYx-106" edge="1">
                    <mxGeometry relative="1" as="geometry">
                        <Array as="points">
                            <mxPoint x="100" y="1327"/>
                            <mxPoint x="100" y="1647"/>
                        </Array>
                    </mxGeometry>
                </mxCell>
                <mxCell id="bTnD6vcUVwekOTEqjrYx-98" value="14" style="ellipse;whiteSpace=wrap;html=1;aspect=fixed;" parent="1" vertex="1">
                    <mxGeometry x="140" y="1296.8" width="60" height="60" as="geometry"/>
                </mxCell>
                <mxCell id="bTnD6vcUVwekOTEqjrYx-100" value="15" style="ellipse;whiteSpace=wrap;html=1;aspect=fixed;" parent="1" vertex="1">
                    <mxGeometry x="140" y="1376.8" width="60" height="60" as="geometry"/>
                </mxCell>
                <mxCell id="bTnD6vcUVwekOTEqjrYx-102" value="16" style="ellipse;whiteSpace=wrap;html=1;aspect=fixed;" parent="1" vertex="1">
                    <mxGeometry x="140" y="1456.8" width="60" height="60" as="geometry"/>
                </mxCell>
                <mxCell id="MoGYgU4kelHFAJhcgQLA-55" style="edgeStyle=orthogonalEdgeStyle;rounded=1;html=1;exitX=0;exitY=1;exitDx=0;exitDy=0;entryX=0;entryY=0.5;entryDx=0;entryDy=0;" parent="1" source="bTnD6vcUVwekOTEqjrYx-104" target="bTnD6vcUVwekOTEqjrYx-108" edge="1">
                    <mxGeometry relative="1" as="geometry">
                        <Array as="points">
                            <mxPoint x="120" y="1588"/>
                            <mxPoint x="120" y="1727"/>
                        </Array>
                    </mxGeometry>
                </mxCell>
                <mxCell id="MoGYgU4kelHFAJhcgQLA-57" style="edgeStyle=orthogonalEdgeStyle;rounded=1;html=1;exitX=0;exitY=1;exitDx=0;exitDy=0;entryX=0;entryY=0.5;entryDx=0;entryDy=0;" parent="1" source="bTnD6vcUVwekOTEqjrYx-104" target="bTnD6vcUVwekOTEqjrYx-110" edge="1">
                    <mxGeometry relative="1" as="geometry">
                        <Array as="points">
                            <mxPoint x="120" y="1588"/>
                            <mxPoint x="120" y="1807"/>
                        </Array>
                    </mxGeometry>
                </mxCell>
                <mxCell id="bTnD6vcUVwekOTEqjrYx-104" value="17" style="ellipse;whiteSpace=wrap;html=1;aspect=fixed;" parent="1" vertex="1">
                    <mxGeometry x="140" y="1536.8" width="60" height="60" as="geometry"/>
                </mxCell>
                <mxCell id="MoGYgU4kelHFAJhcgQLA-59" style="edgeStyle=orthogonalEdgeStyle;rounded=1;html=1;exitX=0;exitY=1;exitDx=0;exitDy=0;entryX=0;entryY=0;entryDx=0;entryDy=0;fillColor=#e1d5e7;strokeColor=#9673a6;" parent="1" source="bTnD6vcUVwekOTEqjrYx-106" target="bTnD6vcUVwekOTEqjrYx-110" edge="1">
                    <mxGeometry relative="1" as="geometry">
                        <Array as="points">
                            <mxPoint x="130" y="1668"/>
                            <mxPoint x="130" y="1786"/>
                        </Array>
                    </mxGeometry>
                </mxCell>
                <mxCell id="MoGYgU4kelHFAJhcgQLA-63" style="edgeStyle=orthogonalEdgeStyle;rounded=1;html=1;exitX=0;exitY=1;exitDx=0;exitDy=0;entryX=0;entryY=0.5;entryDx=0;entryDy=0;fillColor=#e1d5e7;strokeColor=#9673a6;" parent="1" source="bTnD6vcUVwekOTEqjrYx-106" target="bTnD6vcUVwekOTEqjrYx-112" edge="1">
                    <mxGeometry relative="1" as="geometry">
                        <Array as="points">
                            <mxPoint x="130" y="1668"/>
                            <mxPoint x="130" y="1887"/>
                        </Array>
                    </mxGeometry>
                </mxCell>
                <mxCell id="bTnD6vcUVwekOTEqjrYx-106" value="18" style="ellipse;whiteSpace=wrap;html=1;aspect=fixed;" parent="1" vertex="1">
                    <mxGeometry x="140" y="1616.8" width="60" height="60" as="geometry"/>
                </mxCell>
                <mxCell id="MoGYgU4kelHFAJhcgQLA-61" style="edgeStyle=orthogonalEdgeStyle;rounded=1;html=1;exitX=0;exitY=1;exitDx=0;exitDy=0;entryX=0;entryY=0;entryDx=0;entryDy=0;fillColor=#d5e8d4;strokeColor=#82b366;" parent="1" source="bTnD6vcUVwekOTEqjrYx-108" target="bTnD6vcUVwekOTEqjrYx-112" edge="1">
                    <mxGeometry relative="1" as="geometry">
                        <Array as="points">
                            <mxPoint x="110" y="1748"/>
                            <mxPoint x="110" y="1866"/>
                        </Array>
                    </mxGeometry>
                </mxCell>
                <mxCell id="bTnD6vcUVwekOTEqjrYx-108" value="19" style="ellipse;whiteSpace=wrap;html=1;aspect=fixed;" parent="1" vertex="1">
                    <mxGeometry x="140" y="1696.8" width="60" height="60" as="geometry"/>
                </mxCell>
                <mxCell id="bTnD6vcUVwekOTEqjrYx-110" value="20" style="ellipse;whiteSpace=wrap;html=1;aspect=fixed;" parent="1" vertex="1">
                    <mxGeometry x="140" y="1776.8" width="60" height="60" as="geometry"/>
                </mxCell>
                <mxCell id="bTnD6vcUVwekOTEqjrYx-112" value="21" style="ellipse;whiteSpace=wrap;html=1;aspect=fixed;" parent="1" vertex="1">
                    <mxGeometry x="140" y="1856.8" width="60" height="60" as="geometry"/>
                </mxCell>
                <mxCell id="bTnD6vcUVwekOTEqjrYx-149" value="" style="shape=partialRectangle;whiteSpace=wrap;html=1;bottom=1;right=1;left=1;top=0;fillColor=none;routingCenterX=-0.5;" parent="1" vertex="1">
                    <mxGeometry x="146.5" y="1936.8" width="223" height="10" as="geometry"/>
                </mxCell>
                <mxCell id="bTnD6vcUVwekOTEqjrYx-150" value="ceil(log2(n)-log2(thid))" style="text;html=1;align=center;verticalAlign=middle;resizable=0;points=[];autosize=1;strokeColor=none;fillColor=none;" parent="1" vertex="1">
                    <mxGeometry x="195" y="1966.8" width="130" height="20" as="geometry"/>
                </mxCell>
                <mxCell id="MoGYgU4kelHFAJhcgQLA-31" style="edgeStyle=orthogonalEdgeStyle;rounded=1;html=1;exitX=1;exitY=0.5;exitDx=0;exitDy=0;entryX=0;entryY=0.5;entryDx=0;entryDy=0;fillColor=#647687;strokeColor=#314354;" parent="1" source="bTnD6vcUVwekOTEqjrYx-161" target="bTnD6vcUVwekOTEqjrYx-169" edge="1">
                    <mxGeometry relative="1" as="geometry"/>
                </mxCell>
                <mxCell id="bTnD6vcUVwekOTEqjrYx-161" value="14" style="ellipse;whiteSpace=wrap;html=1;aspect=fixed;" parent="1" vertex="1">
                    <mxGeometry x="440" y="1296.8" width="60" height="60" as="geometry"/>
                </mxCell>
                <mxCell id="bTnD6vcUVwekOTEqjrYx-163" value="15" style="ellipse;whiteSpace=wrap;html=1;aspect=fixed;" parent="1" vertex="1">
                    <mxGeometry x="440" y="1376.8" width="60" height="60" as="geometry"/>
                </mxCell>
                <mxCell id="bTnD6vcUVwekOTEqjrYx-165" value="16" style="ellipse;whiteSpace=wrap;html=1;aspect=fixed;" parent="1" vertex="1">
                    <mxGeometry x="440" y="1456.8" width="60" height="60" as="geometry"/>
                </mxCell>
                <mxCell id="MoGYgU4kelHFAJhcgQLA-34" style="edgeStyle=orthogonalEdgeStyle;rounded=1;html=1;exitX=1;exitY=0.5;exitDx=0;exitDy=0;entryX=0;entryY=0.5;entryDx=0;entryDy=0;" parent="1" source="bTnD6vcUVwekOTEqjrYx-167" target="bTnD6vcUVwekOTEqjrYx-175" edge="1">
                    <mxGeometry relative="1" as="geometry"/>
                </mxCell>
                <mxCell id="bTnD6vcUVwekOTEqjrYx-167" value="13" style="ellipse;whiteSpace=wrap;html=1;aspect=fixed;" parent="1" vertex="1">
                    <mxGeometry x="440" y="1216.8" width="60" height="60" as="geometry"/>
                </mxCell>
                <mxCell id="bTnD6vcUVwekOTEqjrYx-169" value="14" style="ellipse;whiteSpace=wrap;html=1;aspect=fixed;" parent="1" vertex="1">
                    <mxGeometry x="538" y="1296.8" width="60" height="60" as="geometry"/>
                </mxCell>
                <mxCell id="bTnD6vcUVwekOTEqjrYx-171" value="15" style="ellipse;whiteSpace=wrap;html=1;aspect=fixed;" parent="1" vertex="1">
                    <mxGeometry x="538" y="1376.8" width="60" height="60" as="geometry"/>
                </mxCell>
                <mxCell id="bTnD6vcUVwekOTEqjrYx-173" value="16" style="ellipse;whiteSpace=wrap;html=1;aspect=fixed;" parent="1" vertex="1">
                    <mxGeometry x="538" y="1456.8" width="60" height="60" as="geometry"/>
                </mxCell>
                <mxCell id="bTnD6vcUVwekOTEqjrYx-175" value="13" style="ellipse;whiteSpace=wrap;html=1;aspect=fixed;" parent="1" vertex="1">
                    <mxGeometry x="538" y="1216.8" width="60" height="60" as="geometry"/>
                </mxCell>
                <mxCell id="bTnD6vcUVwekOTEqjrYx-176" value="ceil(log2(thid))" style="text;html=1;strokeColor=none;fillColor=none;align=center;verticalAlign=middle;whiteSpace=wrap;rounded=0;" parent="1" vertex="1">
                    <mxGeometry x="490" y="1547" width="60" height="30" as="geometry"/>
                </mxCell>
                <mxCell id="bTnD6vcUVwekOTEqjrYx-178" value="22" style="ellipse;whiteSpace=wrap;html=1;aspect=fixed;" parent="1" vertex="1">
                    <mxGeometry x="652" y="1216.8" width="60" height="60" as="geometry"/>
                </mxCell>
                <mxCell id="bTnD6vcUVwekOTEqjrYx-180" value="23" style="ellipse;whiteSpace=wrap;html=1;aspect=fixed;" parent="1" vertex="1">
                    <mxGeometry x="652" y="1296.8" width="60" height="60" as="geometry"/>
                </mxCell>
                <mxCell id="bTnD6vcUVwekOTEqjrYx-182" value="24" style="ellipse;whiteSpace=wrap;html=1;aspect=fixed;" parent="1" vertex="1">
                    <mxGeometry x="652" y="1376.8" width="60" height="60" as="geometry"/>
                </mxCell>
                <mxCell id="bTnD6vcUVwekOTEqjrYx-383" style="edgeStyle=orthogonalEdgeStyle;rounded=1;html=1;exitX=0;exitY=0.5;exitDx=0;exitDy=0;entryX=0;entryY=0;entryDx=0;entryDy=0;fillColor=#d80073;strokeColor=#A50040;" parent="1" source="bTnD6vcUVwekOTEqjrYx-376" target="bTnD6vcUVwekOTEqjrYx-378" edge="1">
                    <mxGeometry relative="1" as="geometry">
                        <Array as="points">
                            <mxPoint x="228" y="270"/>
                            <mxPoint x="228" y="390"/>
                            <mxPoint x="247" y="390"/>
                        </Array>
                    </mxGeometry>
                </mxCell>
                <mxCell id="bTnD6vcUVwekOTEqjrYx-397" style="edgeStyle=orthogonalEdgeStyle;rounded=1;html=1;exitX=1;exitY=0.5;exitDx=0;exitDy=0;entryX=0;entryY=0.5;entryDx=0;entryDy=0;fillColor=#647687;strokeColor=#314354;" parent="1" source="bTnD6vcUVwekOTEqjrYx-376" target="bTnD6vcUVwekOTEqjrYx-72" edge="1">
                    <mxGeometry relative="1" as="geometry">
                        <Array as="points">
                            <mxPoint x="360" y="270"/>
                            <mxPoint x="360" y="270"/>
                        </Array>
                    </mxGeometry>
                </mxCell>
                <mxCell id="bTnD6vcUVwekOTEqjrYx-376" value="5" style="ellipse;whiteSpace=wrap;html=1;aspect=fixed;" parent="1" vertex="1">
                    <mxGeometry x="238" y="240" width="60" height="60" as="geometry"/>
                </mxCell>
                <mxCell id="bTnD6vcUVwekOTEqjrYx-377" value="6" style="ellipse;whiteSpace=wrap;html=1;aspect=fixed;" parent="1" vertex="1">
                    <mxGeometry x="238" y="320" width="60" height="60" as="geometry"/>
                </mxCell>
                <mxCell id="bTnD6vcUVwekOTEqjrYx-378" value="7" style="ellipse;whiteSpace=wrap;html=1;aspect=fixed;" parent="1" vertex="1">
                    <mxGeometry x="238" y="400" width="60" height="60" as="geometry"/>
                </mxCell>
                <mxCell id="bTnD6vcUVwekOTEqjrYx-387" style="edgeStyle=orthogonalEdgeStyle;rounded=1;html=1;exitX=0.5;exitY=1;exitDx=0;exitDy=0;entryX=0;entryY=0.5;entryDx=0;entryDy=0;fillColor=#e3c800;strokeColor=#B09500;" parent="1" source="bTnD6vcUVwekOTEqjrYx-379" target="bTnD6vcUVwekOTEqjrYx-381" edge="1">
                    <mxGeometry relative="1" as="geometry">
                        <Array as="points">
                            <mxPoint x="220" y="546"/>
                            <mxPoint x="220" y="676"/>
                        </Array>
                    </mxGeometry>
                </mxCell>
                <mxCell id="bTnD6vcUVwekOTEqjrYx-379" value="8" style="ellipse;whiteSpace=wrap;html=1;aspect=fixed;" parent="1" vertex="1">
                    <mxGeometry x="238" y="486" width="60" height="60" as="geometry"/>
                </mxCell>
                <mxCell id="bTnD6vcUVwekOTEqjrYx-388" style="edgeStyle=orthogonalEdgeStyle;rounded=1;html=1;exitX=0.5;exitY=1;exitDx=0;exitDy=0;entryX=0;entryY=0.5;entryDx=0;entryDy=0;fillColor=#e3c800;strokeColor=#B09500;" parent="1" source="bTnD6vcUVwekOTEqjrYx-380" target="bTnD6vcUVwekOTEqjrYx-381" edge="1">
                    <mxGeometry relative="1" as="geometry">
                        <Array as="points">
                            <mxPoint x="268" y="636"/>
                            <mxPoint x="220" y="636"/>
                            <mxPoint x="220" y="676"/>
                        </Array>
                    </mxGeometry>
                </mxCell>
                <mxCell id="bTnD6vcUVwekOTEqjrYx-380" value="9" style="ellipse;whiteSpace=wrap;html=1;aspect=fixed;" parent="1" vertex="1">
                    <mxGeometry x="238" y="566" width="60" height="60" as="geometry"/>
                </mxCell>
                <mxCell id="bTnD6vcUVwekOTEqjrYx-381" value="10" style="ellipse;whiteSpace=wrap;html=1;aspect=fixed;" parent="1" vertex="1">
                    <mxGeometry x="238" y="646" width="60" height="60" as="geometry"/>
                </mxCell>
                <mxCell id="bTnD6vcUVwekOTEqjrYx-400" style="edgeStyle=orthogonalEdgeStyle;rounded=1;html=1;exitX=1;exitY=0.5;exitDx=0;exitDy=0;entryX=0;entryY=0.5;entryDx=0;entryDy=0;fillColor=#f0a30a;strokeColor=#BD7000;" parent="1" source="bTnD6vcUVwekOTEqjrYx-382" target="bTnD6vcUVwekOTEqjrYx-76" edge="1">
                    <mxGeometry relative="1" as="geometry"/>
                </mxCell>
                <mxCell id="bTnD6vcUVwekOTEqjrYx-382" value="11" style="ellipse;whiteSpace=wrap;html=1;aspect=fixed;" parent="1" vertex="1">
                    <mxGeometry x="238" y="726" width="60" height="60" as="geometry"/>
                </mxCell>
                <mxCell id="bTnD6vcUVwekOTEqjrYx-390" style="edgeStyle=orthogonalEdgeStyle;rounded=1;html=1;exitX=1;exitY=1;exitDx=0;exitDy=0;entryX=0;entryY=1;entryDx=0;entryDy=0;fillColor=#e51400;strokeColor=#B20000;" parent="1" source="bTnD6vcUVwekOTEqjrYx-18" target="bTnD6vcUVwekOTEqjrYx-381" edge="1">
                    <mxGeometry relative="1" as="geometry">
                        <mxPoint x="370.7132034355965" y="81.21320343559648" as="sourcePoint"/>
                        <mxPoint x="170" y="690" as="targetPoint"/>
                        <Array as="points">
                            <mxPoint x="361" y="81"/>
                            <mxPoint x="360" y="220"/>
                            <mxPoint x="210" y="220"/>
                            <mxPoint x="210" y="697"/>
                        </Array>
                    </mxGeometry>
                </mxCell>
                <mxCell id="bTnD6vcUVwekOTEqjrYx-401" value="5" style="ellipse;whiteSpace=wrap;html=1;aspect=fixed;" parent="1" vertex="1">
                    <mxGeometry x="500" y="240" width="60" height="60" as="geometry"/>
                </mxCell>
                <mxCell id="bTnD6vcUVwekOTEqjrYx-402" value="6" style="ellipse;whiteSpace=wrap;html=1;aspect=fixed;" parent="1" vertex="1">
                    <mxGeometry x="500" y="330" width="60" height="60" as="geometry"/>
                </mxCell>
                <mxCell id="MoGYgU4kelHFAJhcgQLA-18" style="edgeStyle=orthogonalEdgeStyle;rounded=1;html=1;exitX=0.5;exitY=1;exitDx=0;exitDy=0;entryX=1;entryY=0.5;entryDx=0;entryDy=0;fillColor=#a0522d;strokeColor=#6D1F00;" parent="1" source="bTnD6vcUVwekOTEqjrYx-403" target="bTnD6vcUVwekOTEqjrYx-98" edge="1">
                    <mxGeometry relative="1" as="geometry">
                        <Array as="points">
                            <mxPoint x="530" y="1130"/>
                            <mxPoint x="220" y="1130"/>
                            <mxPoint x="220" y="1270"/>
                        </Array>
                    </mxGeometry>
                </mxCell>
                <mxCell id="bTnD6vcUVwekOTEqjrYx-403" value="11" style="ellipse;whiteSpace=wrap;html=1;aspect=fixed;" parent="1" vertex="1">
                    <mxGeometry x="500" y="730" width="60" height="60" as="geometry"/>
                </mxCell>
                <mxCell id="MoGYgU4kelHFAJhcgQLA-22" style="edgeStyle=orthogonalEdgeStyle;rounded=1;html=1;exitX=0.5;exitY=1;exitDx=0;exitDy=0;entryX=0;entryY=0;entryDx=0;entryDy=0;fillColor=#e3c800;strokeColor=#B09500;" parent="1" source="bTnD6vcUVwekOTEqjrYx-414" target="bTnD6vcUVwekOTEqjrYx-102" edge="1">
                    <mxGeometry relative="1" as="geometry">
                        <Array as="points">
                            <mxPoint x="180" y="1100"/>
                            <mxPoint x="130" y="1100"/>
                            <mxPoint x="130" y="1409"/>
                            <mxPoint x="149" y="1409"/>
                        </Array>
                    </mxGeometry>
                </mxCell>
                <mxCell id="MoGYgU4kelHFAJhcgQLA-23" style="edgeStyle=orthogonalEdgeStyle;rounded=1;html=1;exitX=0.5;exitY=1;exitDx=0;exitDy=0;entryX=0;entryY=0.5;entryDx=0;entryDy=0;fillColor=#e3c800;strokeColor=#B09500;" parent="1" source="bTnD6vcUVwekOTEqjrYx-414" target="MoGYgU4kelHFAJhcgQLA-12" edge="1">
                    <mxGeometry relative="1" as="geometry">
                        <Array as="points">
                            <mxPoint x="180" y="1100"/>
                            <mxPoint x="230" y="1100"/>
                            <mxPoint x="230" y="1430"/>
                        </Array>
                    </mxGeometry>
                </mxCell>
                <mxCell id="MoGYgU4kelHFAJhcgQLA-25" style="edgeStyle=orthogonalEdgeStyle;rounded=1;html=1;exitX=0.5;exitY=1;exitDx=0;exitDy=0;entryX=0;entryY=0.5;entryDx=0;entryDy=0;fillColor=#e3c800;strokeColor=#B09500;" parent="1" source="bTnD6vcUVwekOTEqjrYx-414" target="bTnD6vcUVwekOTEqjrYx-165" edge="1">
                    <mxGeometry relative="1" as="geometry">
                        <Array as="points">
                            <mxPoint x="180" y="1100"/>
                            <mxPoint x="400" y="1100"/>
                            <mxPoint x="400" y="1430"/>
                        </Array>
                    </mxGeometry>
                </mxCell>
                <mxCell id="MoGYgU4kelHFAJhcgQLA-29" style="edgeStyle=orthogonalEdgeStyle;rounded=1;html=1;exitX=0.5;exitY=1;exitDx=0;exitDy=0;entryX=0;entryY=0.5;entryDx=0;entryDy=0;fillColor=#e3c800;strokeColor=#B09500;" parent="1" source="bTnD6vcUVwekOTEqjrYx-414" target="bTnD6vcUVwekOTEqjrYx-173" edge="1">
                    <mxGeometry relative="1" as="geometry">
                        <Array as="points">
                            <mxPoint x="180" y="1100"/>
                            <mxPoint x="510" y="1100"/>
                            <mxPoint x="510" y="1430"/>
                        </Array>
                    </mxGeometry>
                </mxCell>
                <mxCell id="MoGYgU4kelHFAJhcgQLA-42" style="edgeStyle=orthogonalEdgeStyle;rounded=1;html=1;exitX=0.5;exitY=1;exitDx=0;exitDy=0;entryX=0;entryY=0;entryDx=0;entryDy=0;fillColor=#e3c800;strokeColor=#B09500;" parent="1" source="bTnD6vcUVwekOTEqjrYx-414" target="bTnD6vcUVwekOTEqjrYx-104" edge="1">
                    <mxGeometry relative="1" as="geometry">
                        <Array as="points">
                            <mxPoint x="180" y="1100"/>
                            <mxPoint x="130" y="1100"/>
                            <mxPoint x="130" y="1489"/>
                        </Array>
                    </mxGeometry>
                </mxCell>
                <mxCell id="MoGYgU4kelHFAJhcgQLA-43" style="edgeStyle=orthogonalEdgeStyle;rounded=1;html=1;exitX=0.5;exitY=1;exitDx=0;exitDy=0;entryX=0;entryY=0;entryDx=0;entryDy=0;fillColor=#e3c800;strokeColor=#B09500;" parent="1" source="bTnD6vcUVwekOTEqjrYx-414" target="bTnD6vcUVwekOTEqjrYx-106" edge="1">
                    <mxGeometry relative="1" as="geometry">
                        <Array as="points">
                            <mxPoint x="180" y="1100"/>
                            <mxPoint x="130" y="1100"/>
                            <mxPoint x="130" y="1569"/>
                        </Array>
                    </mxGeometry>
                </mxCell>
                <mxCell id="MoGYgU4kelHFAJhcgQLA-44" style="edgeStyle=orthogonalEdgeStyle;rounded=1;html=1;exitX=0.5;exitY=1;exitDx=0;exitDy=0;entryX=0;entryY=0.5;entryDx=0;entryDy=0;fillColor=#e3c800;strokeColor=#B09500;" parent="1" source="bTnD6vcUVwekOTEqjrYx-414" target="MoGYgU4kelHFAJhcgQLA-13" edge="1">
                    <mxGeometry relative="1" as="geometry">
                        <Array as="points">
                            <mxPoint x="180" y="1100"/>
                            <mxPoint x="230" y="1100"/>
                            <mxPoint x="230" y="1510"/>
                        </Array>
                    </mxGeometry>
                </mxCell>
                <mxCell id="MoGYgU4kelHFAJhcgQLA-45" style="edgeStyle=orthogonalEdgeStyle;rounded=1;html=1;exitX=0.5;exitY=1;exitDx=0;exitDy=0;entryX=0;entryY=0.5;entryDx=0;entryDy=0;fillColor=#e3c800;strokeColor=#B09500;" parent="1" source="bTnD6vcUVwekOTEqjrYx-414" target="MoGYgU4kelHFAJhcgQLA-14" edge="1">
                    <mxGeometry relative="1" as="geometry">
                        <Array as="points">
                            <mxPoint x="180" y="1100"/>
                            <mxPoint x="230" y="1100"/>
                            <mxPoint x="230" y="1590"/>
                        </Array>
                    </mxGeometry>
                </mxCell>
                <mxCell id="MoGYgU4kelHFAJhcgQLA-65" style="edgeStyle=orthogonalEdgeStyle;rounded=1;html=1;exitX=0.5;exitY=1;exitDx=0;exitDy=0;entryX=0;entryY=0.5;entryDx=0;entryDy=0;fillColor=#fff2cc;strokeColor=#d6b656;" parent="1" source="bTnD6vcUVwekOTEqjrYx-414" target="bTnD6vcUVwekOTEqjrYx-180" edge="1">
                    <mxGeometry relative="1" as="geometry">
                        <Array as="points">
                            <mxPoint x="180" y="1100"/>
                            <mxPoint x="620" y="1100"/>
                            <mxPoint x="620" y="1270"/>
                        </Array>
                    </mxGeometry>
                </mxCell>
                <mxCell id="MoGYgU4kelHFAJhcgQLA-66" style="edgeStyle=orthogonalEdgeStyle;rounded=1;html=1;exitX=0.5;exitY=1;exitDx=0;exitDy=0;entryX=0;entryY=0.5;entryDx=0;entryDy=0;fillColor=#fff2cc;strokeColor=#d6b656;" parent="1" source="bTnD6vcUVwekOTEqjrYx-414" target="bTnD6vcUVwekOTEqjrYx-182" edge="1">
                    <mxGeometry relative="1" as="geometry">
                        <Array as="points">
                            <mxPoint x="180" y="1100"/>
                            <mxPoint x="620" y="1100"/>
                            <mxPoint x="620" y="1350"/>
                        </Array>
                    </mxGeometry>
                </mxCell>
                <mxCell id="bTnD6vcUVwekOTEqjrYx-414" value="1" style="ellipse;whiteSpace=wrap;html=1;aspect=fixed;" parent="1" vertex="1">
                    <mxGeometry x="150" y="1000" width="60" height="60" as="geometry"/>
                </mxCell>
                <mxCell id="MoGYgU4kelHFAJhcgQLA-8" style="edgeStyle=orthogonalEdgeStyle;rounded=1;html=1;exitX=0.5;exitY=1;exitDx=0;exitDy=0;entryX=0.5;entryY=0;entryDx=0;entryDy=0;fillColor=#76608a;strokeColor=#432D57;" parent="1" source="MoGYgU4kelHFAJhcgQLA-2" target="bTnD6vcUVwekOTEqjrYx-96" edge="1">
                    <mxGeometry relative="1" as="geometry"/>
                </mxCell>
                <mxCell id="MoGYgU4kelHFAJhcgQLA-35" style="edgeStyle=orthogonalEdgeStyle;rounded=1;html=1;exitX=0.5;exitY=1;exitDx=0;exitDy=0;fillColor=#e51400;strokeColor=#B20000;" parent="1" source="MoGYgU4kelHFAJhcgQLA-2" target="MoGYgU4kelHFAJhcgQLA-9" edge="1">
                    <mxGeometry relative="1" as="geometry"/>
                </mxCell>
                <mxCell id="MoGYgU4kelHFAJhcgQLA-36" style="edgeStyle=orthogonalEdgeStyle;rounded=1;html=1;exitX=1;exitY=0.5;exitDx=0;exitDy=0;entryX=0.5;entryY=0;entryDx=0;entryDy=0;fillColor=#e51400;strokeColor=#B20000;" parent="1" source="MoGYgU4kelHFAJhcgQLA-2" target="bTnD6vcUVwekOTEqjrYx-167" edge="1">
                    <mxGeometry relative="1" as="geometry"/>
                </mxCell>
                <mxCell id="MoGYgU4kelHFAJhcgQLA-37" style="edgeStyle=orthogonalEdgeStyle;rounded=1;html=1;exitX=1;exitY=0.5;exitDx=0;exitDy=0;entryX=0.5;entryY=0;entryDx=0;entryDy=0;fillColor=#e51400;strokeColor=#B20000;" parent="1" source="MoGYgU4kelHFAJhcgQLA-2" target="bTnD6vcUVwekOTEqjrYx-175" edge="1">
                    <mxGeometry relative="1" as="geometry"/>
                </mxCell>
                <mxCell id="MoGYgU4kelHFAJhcgQLA-2" value="-2" style="ellipse;whiteSpace=wrap;html=1;aspect=fixed;" parent="1" vertex="1">
                    <mxGeometry x="238" y="1000" width="60" height="60" as="geometry"/>
                </mxCell>
                <mxCell id="MoGYgU4kelHFAJhcgQLA-33" style="edgeStyle=orthogonalEdgeStyle;rounded=1;html=1;exitX=1;exitY=0.5;exitDx=0;exitDy=0;entryX=0;entryY=0.5;entryDx=0;entryDy=0;" parent="1" source="MoGYgU4kelHFAJhcgQLA-9" target="bTnD6vcUVwekOTEqjrYx-167" edge="1">
                    <mxGeometry relative="1" as="geometry"/>
                </mxCell>
                <mxCell id="MoGYgU4kelHFAJhcgQLA-9" value="13" style="ellipse;whiteSpace=wrap;html=1;aspect=fixed;" parent="1" vertex="1">
                    <mxGeometry x="249.5" y="1216.8" width="60" height="60" as="geometry"/>
                </mxCell>
                <mxCell id="MoGYgU4kelHFAJhcgQLA-30" style="edgeStyle=orthogonalEdgeStyle;rounded=1;html=1;exitX=1;exitY=0.5;exitDx=0;exitDy=0;fillColor=#647687;strokeColor=#314354;" parent="1" source="MoGYgU4kelHFAJhcgQLA-10" target="bTnD6vcUVwekOTEqjrYx-161" edge="1">
                    <mxGeometry relative="1" as="geometry"/>
                </mxCell>
                <mxCell id="MoGYgU4kelHFAJhcgQLA-39" style="edgeStyle=orthogonalEdgeStyle;rounded=1;html=1;exitX=1;exitY=0.5;exitDx=0;exitDy=0;entryX=1;entryY=0.5;entryDx=0;entryDy=0;fillColor=#6d8764;strokeColor=#3A5431;" parent="1" source="MoGYgU4kelHFAJhcgQLA-10" target="MoGYgU4kelHFAJhcgQLA-13" edge="1">
                    <mxGeometry relative="1" as="geometry">
                        <Array as="points">
                            <mxPoint x="340" y="1327"/>
                            <mxPoint x="340" y="1567"/>
                        </Array>
                    </mxGeometry>
                </mxCell>
                <mxCell id="MoGYgU4kelHFAJhcgQLA-40" style="edgeStyle=orthogonalEdgeStyle;rounded=1;html=1;exitX=1;exitY=0.5;exitDx=0;exitDy=0;entryX=1;entryY=0.5;entryDx=0;entryDy=0;fillColor=#6d8764;strokeColor=#3A5431;" parent="1" source="MoGYgU4kelHFAJhcgQLA-10" target="MoGYgU4kelHFAJhcgQLA-14" edge="1">
                    <mxGeometry relative="1" as="geometry">
                        <Array as="points">
                            <mxPoint x="340" y="1327"/>
                            <mxPoint x="340" y="1647"/>
                        </Array>
                    </mxGeometry>
                </mxCell>
                <mxCell id="MoGYgU4kelHFAJhcgQLA-10" value="14" style="ellipse;whiteSpace=wrap;html=1;aspect=fixed;" parent="1" vertex="1">
                    <mxGeometry x="249.5" y="1296.8" width="60" height="60" as="geometry"/>
                </mxCell>
                <mxCell id="MoGYgU4kelHFAJhcgQLA-11" value="15" style="ellipse;whiteSpace=wrap;html=1;aspect=fixed;" parent="1" vertex="1">
                    <mxGeometry x="249.5" y="1376.8" width="60" height="60" as="geometry"/>
                </mxCell>
                <mxCell id="MoGYgU4kelHFAJhcgQLA-12" value="16" style="ellipse;whiteSpace=wrap;html=1;aspect=fixed;" parent="1" vertex="1">
                    <mxGeometry x="249.5" y="1456.8" width="60" height="60" as="geometry"/>
                </mxCell>
                <mxCell id="MoGYgU4kelHFAJhcgQLA-56" style="edgeStyle=orthogonalEdgeStyle;rounded=1;html=1;exitX=0;exitY=1;exitDx=0;exitDy=0;entryX=0;entryY=0.5;entryDx=0;entryDy=0;" parent="1" source="MoGYgU4kelHFAJhcgQLA-13" target="MoGYgU4kelHFAJhcgQLA-15" edge="1">
                    <mxGeometry relative="1" as="geometry">
                        <Array as="points">
                            <mxPoint x="220" y="1588"/>
                            <mxPoint x="220" y="1727"/>
                        </Array>
                    </mxGeometry>
                </mxCell>
                <mxCell id="MoGYgU4kelHFAJhcgQLA-58" style="edgeStyle=orthogonalEdgeStyle;rounded=1;html=1;exitX=0;exitY=1;exitDx=0;exitDy=0;entryX=0;entryY=0.5;entryDx=0;entryDy=0;" parent="1" source="MoGYgU4kelHFAJhcgQLA-13" target="MoGYgU4kelHFAJhcgQLA-16" edge="1">
                    <mxGeometry relative="1" as="geometry">
                        <Array as="points">
                            <mxPoint x="220" y="1588"/>
                            <mxPoint x="220" y="1807"/>
                        </Array>
                    </mxGeometry>
                </mxCell>
                <mxCell id="MoGYgU4kelHFAJhcgQLA-13" value="17" style="ellipse;whiteSpace=wrap;html=1;aspect=fixed;" parent="1" vertex="1">
                    <mxGeometry x="249.5" y="1536.8" width="60" height="60" as="geometry"/>
                </mxCell>
                <mxCell id="MoGYgU4kelHFAJhcgQLA-60" style="edgeStyle=orthogonalEdgeStyle;rounded=1;html=1;exitX=0;exitY=1;exitDx=0;exitDy=0;entryX=0;entryY=0;entryDx=0;entryDy=0;fillColor=#e1d5e7;strokeColor=#9673a6;" parent="1" source="MoGYgU4kelHFAJhcgQLA-14" target="MoGYgU4kelHFAJhcgQLA-16" edge="1">
                    <mxGeometry relative="1" as="geometry">
                        <Array as="points">
                            <mxPoint x="230" y="1668"/>
                            <mxPoint x="230" y="1786"/>
                        </Array>
                    </mxGeometry>
                </mxCell>
                <mxCell id="MoGYgU4kelHFAJhcgQLA-64" style="edgeStyle=orthogonalEdgeStyle;rounded=1;html=1;exitX=0;exitY=1;exitDx=0;exitDy=0;entryX=0;entryY=0.5;entryDx=0;entryDy=0;fillColor=#e1d5e7;strokeColor=#9673a6;" parent="1" source="MoGYgU4kelHFAJhcgQLA-14" target="MoGYgU4kelHFAJhcgQLA-17" edge="1">
                    <mxGeometry relative="1" as="geometry">
                        <Array as="points">
                            <mxPoint x="230" y="1668"/>
                            <mxPoint x="230" y="1887"/>
                        </Array>
                    </mxGeometry>
                </mxCell>
                <mxCell id="MoGYgU4kelHFAJhcgQLA-14" value="18" style="ellipse;whiteSpace=wrap;html=1;aspect=fixed;" parent="1" vertex="1">
                    <mxGeometry x="249.5" y="1616.8" width="60" height="60" as="geometry"/>
                </mxCell>
                <mxCell id="MoGYgU4kelHFAJhcgQLA-62" style="edgeStyle=orthogonalEdgeStyle;rounded=1;html=1;exitX=1;exitY=1;exitDx=0;exitDy=0;entryX=1;entryY=0;entryDx=0;entryDy=0;fillColor=#d5e8d4;strokeColor=#82b366;" parent="1" source="MoGYgU4kelHFAJhcgQLA-15" target="MoGYgU4kelHFAJhcgQLA-17" edge="1">
                    <mxGeometry relative="1" as="geometry">
                        <Array as="points">
                            <mxPoint x="330" y="1748"/>
                            <mxPoint x="330" y="1866"/>
                        </Array>
                    </mxGeometry>
                </mxCell>
                <mxCell id="MoGYgU4kelHFAJhcgQLA-15" value="19" style="ellipse;whiteSpace=wrap;html=1;aspect=fixed;" parent="1" vertex="1">
                    <mxGeometry x="249.5" y="1696.8" width="60" height="60" as="geometry"/>
                </mxCell>
                <mxCell id="MoGYgU4kelHFAJhcgQLA-16" value="20" style="ellipse;whiteSpace=wrap;html=1;aspect=fixed;" parent="1" vertex="1">
                    <mxGeometry x="249.5" y="1776.8" width="60" height="60" as="geometry"/>
                </mxCell>
                <mxCell id="MoGYgU4kelHFAJhcgQLA-17" value="21" style="ellipse;whiteSpace=wrap;html=1;aspect=fixed;" parent="1" vertex="1">
                    <mxGeometry x="249.5" y="1856.8" width="60" height="60" as="geometry"/>
                </mxCell>
                <mxCell id="MoGYgU4kelHFAJhcgQLA-48" style="edgeStyle=orthogonalEdgeStyle;rounded=1;html=1;exitX=0;exitY=1;exitDx=0;exitDy=0;entryX=1;entryY=0.5;entryDx=0;entryDy=0;fillColor=#f8cecc;gradientColor=#ea6b66;strokeColor=#b85450;" parent="1" source="MoGYgU4kelHFAJhcgQLA-46" target="MoGYgU4kelHFAJhcgQLA-17" edge="1">
                    <mxGeometry relative="1" as="geometry"/>
                </mxCell>
                <mxCell id="MoGYgU4kelHFAJhcgQLA-49" style="edgeStyle=orthogonalEdgeStyle;rounded=1;html=1;exitX=0;exitY=1;exitDx=0;exitDy=0;entryX=1;entryY=0.5;entryDx=0;entryDy=0;fillColor=#f8cecc;gradientColor=#ea6b66;strokeColor=#b85450;" parent="1" source="MoGYgU4kelHFAJhcgQLA-46" target="MoGYgU4kelHFAJhcgQLA-16" edge="1">
                    <mxGeometry relative="1" as="geometry"/>
                </mxCell>
                <mxCell id="MoGYgU4kelHFAJhcgQLA-50" style="edgeStyle=orthogonalEdgeStyle;rounded=1;html=1;exitX=0;exitY=1;exitDx=0;exitDy=0;entryX=1;entryY=0.5;entryDx=0;entryDy=0;fillColor=#f8cecc;gradientColor=#ea6b66;strokeColor=#b85450;" parent="1" source="MoGYgU4kelHFAJhcgQLA-46" target="MoGYgU4kelHFAJhcgQLA-15" edge="1">
                    <mxGeometry relative="1" as="geometry"/>
                </mxCell>
                <mxCell id="MoGYgU4kelHFAJhcgQLA-51" style="edgeStyle=orthogonalEdgeStyle;rounded=1;html=1;exitX=0;exitY=1;exitDx=0;exitDy=0;entryX=1;entryY=0.5;entryDx=0;entryDy=0;fillColor=#f8cecc;gradientColor=#ea6b66;strokeColor=#b85450;" parent="1" target="bTnD6vcUVwekOTEqjrYx-108" edge="1">
                    <mxGeometry relative="1" as="geometry">
                        <mxPoint x="393.78679656440363" y="981.2132034355968" as="sourcePoint"/>
                        <mxPoint x="205" y="1669.8000000000002" as="targetPoint"/>
                        <Array as="points">
                            <mxPoint x="345" y="981"/>
                            <mxPoint x="345" y="1630"/>
                            <mxPoint x="225" y="1630"/>
                            <mxPoint x="225" y="1670"/>
                        </Array>
                    </mxGeometry>
                </mxCell>
                <mxCell id="MoGYgU4kelHFAJhcgQLA-53" style="edgeStyle=orthogonalEdgeStyle;rounded=1;html=1;exitX=0;exitY=1;exitDx=0;exitDy=0;entryX=1;entryY=0.5;entryDx=0;entryDy=0;fillColor=#f8cecc;gradientColor=#ea6b66;strokeColor=#b85450;" parent="1" target="bTnD6vcUVwekOTEqjrYx-110" edge="1">
                    <mxGeometry relative="1" as="geometry">
                        <mxPoint x="393.78679656440363" y="981.2132034355968" as="sourcePoint"/>
                        <mxPoint x="205.00000000000114" y="1749.8000000000002" as="targetPoint"/>
                        <Array as="points">
                            <mxPoint x="345" y="981"/>
                            <mxPoint x="345" y="1710"/>
                            <mxPoint x="225" y="1710"/>
                            <mxPoint x="225" y="1750"/>
                        </Array>
                    </mxGeometry>
                </mxCell>
                <mxCell id="MoGYgU4kelHFAJhcgQLA-54" style="edgeStyle=orthogonalEdgeStyle;rounded=1;html=1;exitX=0;exitY=1;exitDx=0;exitDy=0;entryX=1;entryY=0;entryDx=0;entryDy=0;fillColor=#f8cecc;gradientColor=#ea6b66;strokeColor=#b85450;" parent="1" target="bTnD6vcUVwekOTEqjrYx-112" edge="1">
                    <mxGeometry relative="1" as="geometry">
                        <mxPoint x="383.78679656440363" y="981.2132034355964" as="sourcePoint"/>
                        <mxPoint x="186.21320343559643" y="1808.5867965644043" as="targetPoint"/>
                        <Array as="points">
                            <mxPoint x="345" y="981"/>
                            <mxPoint x="345" y="1790"/>
                            <mxPoint x="210" y="1790"/>
                            <mxPoint x="210" y="1809"/>
                            <mxPoint x="200" y="1809"/>
                        </Array>
                    </mxGeometry>
                </mxCell>
                <mxCell id="MoGYgU4kelHFAJhcgQLA-67" style="edgeStyle=orthogonalEdgeStyle;rounded=1;html=1;exitX=1;exitY=1;exitDx=0;exitDy=0;entryX=1;entryY=0.5;entryDx=0;entryDy=0;fillColor=#f8cecc;strokeColor=#b85450;" parent="1" source="MoGYgU4kelHFAJhcgQLA-46" target="bTnD6vcUVwekOTEqjrYx-180" edge="1">
                    <mxGeometry relative="1" as="geometry">
                        <Array as="points">
                            <mxPoint x="740" y="981"/>
                            <mxPoint x="740" y="1270"/>
                        </Array>
                    </mxGeometry>
                </mxCell>
                <mxCell id="MoGYgU4kelHFAJhcgQLA-68" style="edgeStyle=orthogonalEdgeStyle;rounded=1;html=1;exitX=1;exitY=1;exitDx=0;exitDy=0;entryX=1;entryY=0.5;entryDx=0;entryDy=0;fillColor=#f8cecc;strokeColor=#b85450;" parent="1" source="MoGYgU4kelHFAJhcgQLA-46" target="bTnD6vcUVwekOTEqjrYx-182" edge="1">
                    <mxGeometry relative="1" as="geometry">
                        <Array as="points">
                            <mxPoint x="740" y="981"/>
                            <mxPoint x="740" y="1350"/>
                        </Array>
                    </mxGeometry>
                </mxCell>
                <mxCell id="MoGYgU4kelHFAJhcgQLA-46" value="-1" style="ellipse;whiteSpace=wrap;html=1;aspect=fixed;" parent="1" vertex="1">
                    <mxGeometry x="380" y="930" width="60" height="60" as="geometry"/>
                </mxCell>
                <mxCell id="MoGYgU4kelHFAJhcgQLA-69" value="" style="shape=partialRectangle;whiteSpace=wrap;html=1;bottom=1;right=1;left=1;top=0;fillColor=none;routingCenterX=-0.5;" parent="1" vertex="1">
                    <mxGeometry x="440" y="1526.8" width="160" height="10" as="geometry"/>
                </mxCell>
            </root>
        </mxGraphModel>
    </diagram>
    <diagram id="iRna2l2NZu8Lkc1KnglA" name="Операционная История">
        <mxGraphModel dx="1012" dy="917" grid="1" gridSize="10" guides="1" tooltips="1" connect="1" arrows="1" fold="1" page="1" pageScale="1" pageWidth="827" pageHeight="1169" math="0" shadow="0">
            <root>
                <mxCell id="56ZMSUlLdkVWpQMdgxCH-0"/>
                <mxCell id="56ZMSUlLdkVWpQMdgxCH-1" parent="56ZMSUlLdkVWpQMdgxCH-0"/>
                <mxCell id="56ZMSUlLdkVWpQMdgxCH-7" style="edgeStyle=none;html=1;exitX=1;exitY=0.5;exitDx=0;exitDy=0;entryX=0;entryY=0.5;entryDx=0;entryDy=0;" parent="56ZMSUlLdkVWpQMdgxCH-1" source="56ZMSUlLdkVWpQMdgxCH-2" target="56ZMSUlLdkVWpQMdgxCH-3" edge="1">
                    <mxGeometry relative="1" as="geometry"/>
                </mxCell>
                <mxCell id="56ZMSUlLdkVWpQMdgxCH-2" value="-4" style="ellipse;whiteSpace=wrap;html=1;aspect=fixed;" parent="56ZMSUlLdkVWpQMdgxCH-1" vertex="1">
                    <mxGeometry x="49.5" y="20" width="60" height="60" as="geometry"/>
                </mxCell>
                <mxCell id="56ZMSUlLdkVWpQMdgxCH-8" style="edgeStyle=none;html=1;exitX=1;exitY=0.5;exitDx=0;exitDy=0;entryX=0;entryY=0.5;entryDx=0;entryDy=0;" parent="56ZMSUlLdkVWpQMdgxCH-1" source="56ZMSUlLdkVWpQMdgxCH-3" target="56ZMSUlLdkVWpQMdgxCH-4" edge="1">
                    <mxGeometry relative="1" as="geometry"/>
                </mxCell>
                <mxCell id="56ZMSUlLdkVWpQMdgxCH-3" value="-3" style="ellipse;whiteSpace=wrap;html=1;aspect=fixed;" parent="56ZMSUlLdkVWpQMdgxCH-1" vertex="1">
                    <mxGeometry x="129.5" y="20" width="60" height="60" as="geometry"/>
                </mxCell>
                <mxCell id="56ZMSUlLdkVWpQMdgxCH-9" style="edgeStyle=none;html=1;exitX=1;exitY=0.5;exitDx=0;exitDy=0;entryX=0;entryY=0.5;entryDx=0;entryDy=0;" parent="56ZMSUlLdkVWpQMdgxCH-1" source="56ZMSUlLdkVWpQMdgxCH-4" target="56ZMSUlLdkVWpQMdgxCH-5" edge="1">
                    <mxGeometry relative="1" as="geometry"/>
                </mxCell>
                <mxCell id="56ZMSUlLdkVWpQMdgxCH-4" value="-2" style="ellipse;whiteSpace=wrap;html=1;aspect=fixed;" parent="56ZMSUlLdkVWpQMdgxCH-1" vertex="1">
                    <mxGeometry x="219.5" y="20" width="60" height="60" as="geometry"/>
                </mxCell>
                <mxCell id="56ZMSUlLdkVWpQMdgxCH-10" style="edgeStyle=orthogonalEdgeStyle;html=1;exitX=1;exitY=0.5;exitDx=0;exitDy=0;entryX=0;entryY=0.5;entryDx=0;entryDy=0;" parent="56ZMSUlLdkVWpQMdgxCH-1" source="56ZMSUlLdkVWpQMdgxCH-5" target="56ZMSUlLdkVWpQMdgxCH-6" edge="1">
                    <mxGeometry relative="1" as="geometry">
                        <Array as="points">
                            <mxPoint x="380" y="50"/>
                            <mxPoint x="380" y="100"/>
                            <mxPoint x="10" y="100"/>
                            <mxPoint x="10" y="150"/>
                        </Array>
                    </mxGeometry>
                </mxCell>
                <mxCell id="56ZMSUlLdkVWpQMdgxCH-5" value="-1" style="ellipse;whiteSpace=wrap;html=1;aspect=fixed;" parent="56ZMSUlLdkVWpQMdgxCH-1" vertex="1">
                    <mxGeometry x="309.5" y="20" width="60" height="60" as="geometry"/>
                </mxCell>
                <mxCell id="56ZMSUlLdkVWpQMdgxCH-16" style="edgeStyle=none;html=1;exitX=1;exitY=0.5;exitDx=0;exitDy=0;entryX=0;entryY=0.5;entryDx=0;entryDy=0;" parent="56ZMSUlLdkVWpQMdgxCH-1" source="56ZMSUlLdkVWpQMdgxCH-6" target="56ZMSUlLdkVWpQMdgxCH-11" edge="1">
                    <mxGeometry relative="1" as="geometry"/>
                </mxCell>
                <mxCell id="56ZMSUlLdkVWpQMdgxCH-6" value="0" style="ellipse;whiteSpace=wrap;html=1;aspect=fixed;" parent="56ZMSUlLdkVWpQMdgxCH-1" vertex="1">
                    <mxGeometry x="40" y="120" width="60" height="60" as="geometry"/>
                </mxCell>
                <mxCell id="56ZMSUlLdkVWpQMdgxCH-17" style="edgeStyle=none;html=1;exitX=1;exitY=0.5;exitDx=0;exitDy=0;entryX=0;entryY=0.5;entryDx=0;entryDy=0;" parent="56ZMSUlLdkVWpQMdgxCH-1" source="56ZMSUlLdkVWpQMdgxCH-11" target="56ZMSUlLdkVWpQMdgxCH-12" edge="1">
                    <mxGeometry relative="1" as="geometry"/>
                </mxCell>
                <mxCell id="56ZMSUlLdkVWpQMdgxCH-11" value="1" style="ellipse;whiteSpace=wrap;html=1;aspect=fixed;" parent="56ZMSUlLdkVWpQMdgxCH-1" vertex="1">
                    <mxGeometry x="130" y="120" width="60" height="60" as="geometry"/>
                </mxCell>
                <mxCell id="56ZMSUlLdkVWpQMdgxCH-18" style="edgeStyle=none;html=1;exitX=1;exitY=0.5;exitDx=0;exitDy=0;entryX=0;entryY=0.5;entryDx=0;entryDy=0;" parent="56ZMSUlLdkVWpQMdgxCH-1" source="56ZMSUlLdkVWpQMdgxCH-12" target="56ZMSUlLdkVWpQMdgxCH-13" edge="1">
                    <mxGeometry relative="1" as="geometry"/>
                </mxCell>
                <mxCell id="56ZMSUlLdkVWpQMdgxCH-12" value="2" style="ellipse;whiteSpace=wrap;html=1;aspect=fixed;" parent="56ZMSUlLdkVWpQMdgxCH-1" vertex="1">
                    <mxGeometry x="210" y="120" width="60" height="60" as="geometry"/>
                </mxCell>
                <mxCell id="56ZMSUlLdkVWpQMdgxCH-19" style="edgeStyle=none;html=1;exitX=1;exitY=0.5;exitDx=0;exitDy=0;entryX=0;entryY=0.5;entryDx=0;entryDy=0;" parent="56ZMSUlLdkVWpQMdgxCH-1" source="56ZMSUlLdkVWpQMdgxCH-13" target="56ZMSUlLdkVWpQMdgxCH-14" edge="1">
                    <mxGeometry relative="1" as="geometry"/>
                </mxCell>
                <mxCell id="56ZMSUlLdkVWpQMdgxCH-13" value="3" style="ellipse;whiteSpace=wrap;html=1;aspect=fixed;" parent="56ZMSUlLdkVWpQMdgxCH-1" vertex="1">
                    <mxGeometry x="290" y="120" width="60" height="60" as="geometry"/>
                </mxCell>
                <mxCell id="56ZMSUlLdkVWpQMdgxCH-20" style="edgeStyle=orthogonalEdgeStyle;html=1;exitX=1;exitY=0.5;exitDx=0;exitDy=0;entryX=0;entryY=0.5;entryDx=0;entryDy=0;" parent="56ZMSUlLdkVWpQMdgxCH-1" source="56ZMSUlLdkVWpQMdgxCH-14" target="56ZMSUlLdkVWpQMdgxCH-15" edge="1">
                    <mxGeometry relative="1" as="geometry"/>
                </mxCell>
                <mxCell id="56ZMSUlLdkVWpQMdgxCH-14" value="4" style="ellipse;whiteSpace=wrap;html=1;aspect=fixed;" parent="56ZMSUlLdkVWpQMdgxCH-1" vertex="1">
                    <mxGeometry x="370" y="120" width="60" height="60" as="geometry"/>
                </mxCell>
                <mxCell id="56ZMSUlLdkVWpQMdgxCH-27" style="edgeStyle=none;html=1;exitX=0.5;exitY=1;exitDx=0;exitDy=0;entryX=0.5;entryY=0;entryDx=0;entryDy=0;" parent="56ZMSUlLdkVWpQMdgxCH-1" source="56ZMSUlLdkVWpQMdgxCH-15" target="56ZMSUlLdkVWpQMdgxCH-21" edge="1">
                    <mxGeometry relative="1" as="geometry"/>
                </mxCell>
                <mxCell id="56ZMSUlLdkVWpQMdgxCH-15" value="5" style="ellipse;whiteSpace=wrap;html=1;aspect=fixed;" parent="56ZMSUlLdkVWpQMdgxCH-1" vertex="1">
                    <mxGeometry x="100" y="240" width="60" height="60" as="geometry"/>
                </mxCell>
                <mxCell id="56ZMSUlLdkVWpQMdgxCH-28" style="edgeStyle=none;html=1;exitX=0.5;exitY=1;exitDx=0;exitDy=0;entryX=0.5;entryY=0;entryDx=0;entryDy=0;" parent="56ZMSUlLdkVWpQMdgxCH-1" source="56ZMSUlLdkVWpQMdgxCH-21" target="56ZMSUlLdkVWpQMdgxCH-22" edge="1">
                    <mxGeometry relative="1" as="geometry"/>
                </mxCell>
                <mxCell id="56ZMSUlLdkVWpQMdgxCH-21" value="6" style="ellipse;whiteSpace=wrap;html=1;aspect=fixed;" parent="56ZMSUlLdkVWpQMdgxCH-1" vertex="1">
                    <mxGeometry x="100" y="330" width="60" height="60" as="geometry"/>
                </mxCell>
                <mxCell id="56ZMSUlLdkVWpQMdgxCH-29" style="edgeStyle=none;html=1;exitX=0.5;exitY=1;exitDx=0;exitDy=0;entryX=0.5;entryY=0;entryDx=0;entryDy=0;" parent="56ZMSUlLdkVWpQMdgxCH-1" source="56ZMSUlLdkVWpQMdgxCH-22" target="56ZMSUlLdkVWpQMdgxCH-23" edge="1">
                    <mxGeometry relative="1" as="geometry"/>
                </mxCell>
                <mxCell id="56ZMSUlLdkVWpQMdgxCH-22" value="7" style="ellipse;whiteSpace=wrap;html=1;aspect=fixed;" parent="56ZMSUlLdkVWpQMdgxCH-1" vertex="1">
                    <mxGeometry x="100" y="410" width="60" height="60" as="geometry"/>
                </mxCell>
                <mxCell id="56ZMSUlLdkVWpQMdgxCH-30" style="edgeStyle=none;html=1;exitX=0.5;exitY=1;exitDx=0;exitDy=0;entryX=0.5;entryY=0;entryDx=0;entryDy=0;" parent="56ZMSUlLdkVWpQMdgxCH-1" source="56ZMSUlLdkVWpQMdgxCH-23" target="56ZMSUlLdkVWpQMdgxCH-24" edge="1">
                    <mxGeometry relative="1" as="geometry"/>
                </mxCell>
                <mxCell id="56ZMSUlLdkVWpQMdgxCH-23" value="8" style="ellipse;whiteSpace=wrap;html=1;aspect=fixed;" parent="56ZMSUlLdkVWpQMdgxCH-1" vertex="1">
                    <mxGeometry x="100" y="490" width="60" height="60" as="geometry"/>
                </mxCell>
                <mxCell id="56ZMSUlLdkVWpQMdgxCH-31" style="edgeStyle=none;html=1;exitX=0.5;exitY=1;exitDx=0;exitDy=0;entryX=0.5;entryY=0;entryDx=0;entryDy=0;" parent="56ZMSUlLdkVWpQMdgxCH-1" source="56ZMSUlLdkVWpQMdgxCH-24" target="56ZMSUlLdkVWpQMdgxCH-25" edge="1">
                    <mxGeometry relative="1" as="geometry"/>
                </mxCell>
                <mxCell id="56ZMSUlLdkVWpQMdgxCH-24" value="9" style="ellipse;whiteSpace=wrap;html=1;aspect=fixed;" parent="56ZMSUlLdkVWpQMdgxCH-1" vertex="1">
                    <mxGeometry x="100" y="570" width="60" height="60" as="geometry"/>
                </mxCell>
                <mxCell id="56ZMSUlLdkVWpQMdgxCH-32" style="edgeStyle=none;html=1;exitX=0.5;exitY=1;exitDx=0;exitDy=0;entryX=0.5;entryY=0;entryDx=0;entryDy=0;" parent="56ZMSUlLdkVWpQMdgxCH-1" source="56ZMSUlLdkVWpQMdgxCH-25" target="56ZMSUlLdkVWpQMdgxCH-26" edge="1">
                    <mxGeometry relative="1" as="geometry"/>
                </mxCell>
                <mxCell id="56ZMSUlLdkVWpQMdgxCH-25" value="10" style="ellipse;whiteSpace=wrap;html=1;aspect=fixed;" parent="56ZMSUlLdkVWpQMdgxCH-1" vertex="1">
                    <mxGeometry x="100" y="650" width="60" height="60" as="geometry"/>
                </mxCell>
                <mxCell id="56ZMSUlLdkVWpQMdgxCH-46" style="edgeStyle=orthogonalEdgeStyle;html=1;exitX=0.5;exitY=1;exitDx=0;exitDy=0;entryX=0.5;entryY=0;entryDx=0;entryDy=0;" parent="56ZMSUlLdkVWpQMdgxCH-1" source="56ZMSUlLdkVWpQMdgxCH-26" target="56ZMSUlLdkVWpQMdgxCH-34" edge="1">
                    <mxGeometry relative="1" as="geometry">
                        <Array as="points">
                            <mxPoint x="130" y="820"/>
                            <mxPoint x="175" y="820"/>
                            <mxPoint x="175" y="220"/>
                            <mxPoint x="220" y="220"/>
                        </Array>
                    </mxGeometry>
                </mxCell>
                <mxCell id="56ZMSUlLdkVWpQMdgxCH-26" value="11" style="ellipse;whiteSpace=wrap;html=1;aspect=fixed;" parent="56ZMSUlLdkVWpQMdgxCH-1" vertex="1">
                    <mxGeometry x="100" y="730" width="60" height="60" as="geometry"/>
                </mxCell>
                <mxCell id="56ZMSUlLdkVWpQMdgxCH-33" style="edgeStyle=none;html=1;exitX=0.5;exitY=1;exitDx=0;exitDy=0;entryX=0.5;entryY=0;entryDx=0;entryDy=0;" parent="56ZMSUlLdkVWpQMdgxCH-1" source="56ZMSUlLdkVWpQMdgxCH-34" target="56ZMSUlLdkVWpQMdgxCH-36" edge="1">
                    <mxGeometry relative="1" as="geometry"/>
                </mxCell>
                <mxCell id="56ZMSUlLdkVWpQMdgxCH-34" value="5" style="ellipse;whiteSpace=wrap;html=1;aspect=fixed;" parent="56ZMSUlLdkVWpQMdgxCH-1" vertex="1">
                    <mxGeometry x="190" y="240" width="60" height="60" as="geometry"/>
                </mxCell>
                <mxCell id="56ZMSUlLdkVWpQMdgxCH-35" style="edgeStyle=none;html=1;exitX=0.5;exitY=1;exitDx=0;exitDy=0;entryX=0.5;entryY=0;entryDx=0;entryDy=0;" parent="56ZMSUlLdkVWpQMdgxCH-1" source="56ZMSUlLdkVWpQMdgxCH-36" target="56ZMSUlLdkVWpQMdgxCH-38" edge="1">
                    <mxGeometry relative="1" as="geometry"/>
                </mxCell>
                <mxCell id="56ZMSUlLdkVWpQMdgxCH-36" value="6" style="ellipse;whiteSpace=wrap;html=1;aspect=fixed;" parent="56ZMSUlLdkVWpQMdgxCH-1" vertex="1">
                    <mxGeometry x="190" y="330" width="60" height="60" as="geometry"/>
                </mxCell>
                <mxCell id="56ZMSUlLdkVWpQMdgxCH-37" style="edgeStyle=none;html=1;exitX=0.5;exitY=1;exitDx=0;exitDy=0;entryX=0.5;entryY=0;entryDx=0;entryDy=0;" parent="56ZMSUlLdkVWpQMdgxCH-1" source="56ZMSUlLdkVWpQMdgxCH-38" target="56ZMSUlLdkVWpQMdgxCH-40" edge="1">
                    <mxGeometry relative="1" as="geometry"/>
                </mxCell>
                <mxCell id="56ZMSUlLdkVWpQMdgxCH-38" value="7" style="ellipse;whiteSpace=wrap;html=1;aspect=fixed;" parent="56ZMSUlLdkVWpQMdgxCH-1" vertex="1">
                    <mxGeometry x="190" y="410" width="60" height="60" as="geometry"/>
                </mxCell>
                <mxCell id="56ZMSUlLdkVWpQMdgxCH-39" style="edgeStyle=none;html=1;exitX=0.5;exitY=1;exitDx=0;exitDy=0;entryX=0.5;entryY=0;entryDx=0;entryDy=0;" parent="56ZMSUlLdkVWpQMdgxCH-1" source="56ZMSUlLdkVWpQMdgxCH-40" target="56ZMSUlLdkVWpQMdgxCH-42" edge="1">
                    <mxGeometry relative="1" as="geometry"/>
                </mxCell>
                <mxCell id="56ZMSUlLdkVWpQMdgxCH-40" value="8" style="ellipse;whiteSpace=wrap;html=1;aspect=fixed;" parent="56ZMSUlLdkVWpQMdgxCH-1" vertex="1">
                    <mxGeometry x="190" y="490" width="60" height="60" as="geometry"/>
                </mxCell>
                <mxCell id="56ZMSUlLdkVWpQMdgxCH-41" style="edgeStyle=none;html=1;exitX=0.5;exitY=1;exitDx=0;exitDy=0;entryX=0.5;entryY=0;entryDx=0;entryDy=0;" parent="56ZMSUlLdkVWpQMdgxCH-1" source="56ZMSUlLdkVWpQMdgxCH-42" target="56ZMSUlLdkVWpQMdgxCH-44" edge="1">
                    <mxGeometry relative="1" as="geometry"/>
                </mxCell>
                <mxCell id="56ZMSUlLdkVWpQMdgxCH-42" value="9" style="ellipse;whiteSpace=wrap;html=1;aspect=fixed;" parent="56ZMSUlLdkVWpQMdgxCH-1" vertex="1">
                    <mxGeometry x="190" y="570" width="60" height="60" as="geometry"/>
                </mxCell>
                <mxCell id="56ZMSUlLdkVWpQMdgxCH-43" style="edgeStyle=none;html=1;exitX=0.5;exitY=1;exitDx=0;exitDy=0;entryX=0.5;entryY=0;entryDx=0;entryDy=0;" parent="56ZMSUlLdkVWpQMdgxCH-1" source="56ZMSUlLdkVWpQMdgxCH-44" target="56ZMSUlLdkVWpQMdgxCH-45" edge="1">
                    <mxGeometry relative="1" as="geometry"/>
                </mxCell>
                <mxCell id="56ZMSUlLdkVWpQMdgxCH-44" value="10" style="ellipse;whiteSpace=wrap;html=1;aspect=fixed;" parent="56ZMSUlLdkVWpQMdgxCH-1" vertex="1">
                    <mxGeometry x="190" y="650" width="60" height="60" as="geometry"/>
                </mxCell>
                <mxCell id="56ZMSUlLdkVWpQMdgxCH-60" style="edgeStyle=orthogonalEdgeStyle;html=1;exitX=0.5;exitY=1;exitDx=0;exitDy=0;entryX=0.5;entryY=0;entryDx=0;entryDy=0;dashed=1;" parent="56ZMSUlLdkVWpQMdgxCH-1" source="56ZMSUlLdkVWpQMdgxCH-45" target="56ZMSUlLdkVWpQMdgxCH-48" edge="1">
                    <mxGeometry relative="1" as="geometry">
                        <Array as="points">
                            <mxPoint x="220" y="820"/>
                            <mxPoint x="265" y="820"/>
                            <mxPoint x="265" y="220"/>
                            <mxPoint x="310" y="220"/>
                        </Array>
                    </mxGeometry>
                </mxCell>
                <mxCell id="56ZMSUlLdkVWpQMdgxCH-45" value="11" style="ellipse;whiteSpace=wrap;html=1;aspect=fixed;" parent="56ZMSUlLdkVWpQMdgxCH-1" vertex="1">
                    <mxGeometry x="190" y="730" width="60" height="60" as="geometry"/>
                </mxCell>
                <mxCell id="56ZMSUlLdkVWpQMdgxCH-47" style="edgeStyle=none;html=1;exitX=0.5;exitY=1;exitDx=0;exitDy=0;entryX=0.5;entryY=0;entryDx=0;entryDy=0;" parent="56ZMSUlLdkVWpQMdgxCH-1" source="56ZMSUlLdkVWpQMdgxCH-48" target="56ZMSUlLdkVWpQMdgxCH-50" edge="1">
                    <mxGeometry relative="1" as="geometry"/>
                </mxCell>
                <mxCell id="56ZMSUlLdkVWpQMdgxCH-48" value="5" style="ellipse;whiteSpace=wrap;html=1;aspect=fixed;" parent="56ZMSUlLdkVWpQMdgxCH-1" vertex="1">
                    <mxGeometry x="280" y="240" width="60" height="60" as="geometry"/>
                </mxCell>
                <mxCell id="56ZMSUlLdkVWpQMdgxCH-49" style="edgeStyle=none;html=1;exitX=0.5;exitY=1;exitDx=0;exitDy=0;entryX=0.5;entryY=0;entryDx=0;entryDy=0;" parent="56ZMSUlLdkVWpQMdgxCH-1" source="56ZMSUlLdkVWpQMdgxCH-50" target="56ZMSUlLdkVWpQMdgxCH-52" edge="1">
                    <mxGeometry relative="1" as="geometry"/>
                </mxCell>
                <mxCell id="56ZMSUlLdkVWpQMdgxCH-50" value="6" style="ellipse;whiteSpace=wrap;html=1;aspect=fixed;" parent="56ZMSUlLdkVWpQMdgxCH-1" vertex="1">
                    <mxGeometry x="280" y="330" width="60" height="60" as="geometry"/>
                </mxCell>
                <mxCell id="56ZMSUlLdkVWpQMdgxCH-51" style="edgeStyle=none;html=1;exitX=0.5;exitY=1;exitDx=0;exitDy=0;entryX=0.5;entryY=0;entryDx=0;entryDy=0;" parent="56ZMSUlLdkVWpQMdgxCH-1" source="56ZMSUlLdkVWpQMdgxCH-52" target="56ZMSUlLdkVWpQMdgxCH-54" edge="1">
                    <mxGeometry relative="1" as="geometry"/>
                </mxCell>
                <mxCell id="56ZMSUlLdkVWpQMdgxCH-52" value="7" style="ellipse;whiteSpace=wrap;html=1;aspect=fixed;" parent="56ZMSUlLdkVWpQMdgxCH-1" vertex="1">
                    <mxGeometry x="280" y="410" width="60" height="60" as="geometry"/>
                </mxCell>
                <mxCell id="56ZMSUlLdkVWpQMdgxCH-53" style="edgeStyle=none;html=1;exitX=0.5;exitY=1;exitDx=0;exitDy=0;entryX=0.5;entryY=0;entryDx=0;entryDy=0;" parent="56ZMSUlLdkVWpQMdgxCH-1" source="56ZMSUlLdkVWpQMdgxCH-54" target="56ZMSUlLdkVWpQMdgxCH-56" edge="1">
                    <mxGeometry relative="1" as="geometry"/>
                </mxCell>
                <mxCell id="56ZMSUlLdkVWpQMdgxCH-54" value="8" style="ellipse;whiteSpace=wrap;html=1;aspect=fixed;" parent="56ZMSUlLdkVWpQMdgxCH-1" vertex="1">
                    <mxGeometry x="280" y="490" width="60" height="60" as="geometry"/>
                </mxCell>
                <mxCell id="56ZMSUlLdkVWpQMdgxCH-55" style="edgeStyle=none;html=1;exitX=0.5;exitY=1;exitDx=0;exitDy=0;entryX=0.5;entryY=0;entryDx=0;entryDy=0;" parent="56ZMSUlLdkVWpQMdgxCH-1" source="56ZMSUlLdkVWpQMdgxCH-56" target="56ZMSUlLdkVWpQMdgxCH-58" edge="1">
                    <mxGeometry relative="1" as="geometry"/>
                </mxCell>
                <mxCell id="56ZMSUlLdkVWpQMdgxCH-56" value="9" style="ellipse;whiteSpace=wrap;html=1;aspect=fixed;" parent="56ZMSUlLdkVWpQMdgxCH-1" vertex="1">
                    <mxGeometry x="280" y="570" width="60" height="60" as="geometry"/>
                </mxCell>
                <mxCell id="56ZMSUlLdkVWpQMdgxCH-57" style="edgeStyle=none;html=1;exitX=0.5;exitY=1;exitDx=0;exitDy=0;entryX=0.5;entryY=0;entryDx=0;entryDy=0;" parent="56ZMSUlLdkVWpQMdgxCH-1" source="56ZMSUlLdkVWpQMdgxCH-58" target="56ZMSUlLdkVWpQMdgxCH-59" edge="1">
                    <mxGeometry relative="1" as="geometry"/>
                </mxCell>
                <mxCell id="56ZMSUlLdkVWpQMdgxCH-58" value="10" style="ellipse;whiteSpace=wrap;html=1;aspect=fixed;" parent="56ZMSUlLdkVWpQMdgxCH-1" vertex="1">
                    <mxGeometry x="280" y="650" width="60" height="60" as="geometry"/>
                </mxCell>
                <mxCell id="56ZMSUlLdkVWpQMdgxCH-91" style="edgeStyle=orthogonalEdgeStyle;html=1;exitX=0.5;exitY=1;exitDx=0;exitDy=0;entryX=0.5;entryY=0;entryDx=0;entryDy=0;" parent="56ZMSUlLdkVWpQMdgxCH-1" source="56ZMSUlLdkVWpQMdgxCH-59" target="56ZMSUlLdkVWpQMdgxCH-62" edge="1">
                    <mxGeometry relative="1" as="geometry">
                        <Array as="points">
                            <mxPoint x="310" y="800"/>
                            <mxPoint x="375" y="800"/>
                            <mxPoint x="375" y="220"/>
                            <mxPoint x="440" y="220"/>
                        </Array>
                    </mxGeometry>
                </mxCell>
                <mxCell id="56ZMSUlLdkVWpQMdgxCH-59" value="11" style="ellipse;whiteSpace=wrap;html=1;aspect=fixed;" parent="56ZMSUlLdkVWpQMdgxCH-1" vertex="1">
                    <mxGeometry x="280" y="730" width="60" height="60" as="geometry"/>
                </mxCell>
                <mxCell id="56ZMSUlLdkVWpQMdgxCH-61" style="edgeStyle=none;html=1;exitX=0.5;exitY=1;exitDx=0;exitDy=0;entryX=0.5;entryY=0;entryDx=0;entryDy=0;" parent="56ZMSUlLdkVWpQMdgxCH-1" source="56ZMSUlLdkVWpQMdgxCH-62" target="56ZMSUlLdkVWpQMdgxCH-64" edge="1">
                    <mxGeometry relative="1" as="geometry"/>
                </mxCell>
                <mxCell id="56ZMSUlLdkVWpQMdgxCH-62" value="5" style="ellipse;whiteSpace=wrap;html=1;aspect=fixed;" parent="56ZMSUlLdkVWpQMdgxCH-1" vertex="1">
                    <mxGeometry x="410" y="240" width="60" height="60" as="geometry"/>
                </mxCell>
                <mxCell id="56ZMSUlLdkVWpQMdgxCH-74" style="edgeStyle=orthogonalEdgeStyle;html=1;exitX=0.5;exitY=1;exitDx=0;exitDy=0;entryX=0.5;entryY=0;entryDx=0;entryDy=0;" parent="56ZMSUlLdkVWpQMdgxCH-1" source="56ZMSUlLdkVWpQMdgxCH-64" target="56ZMSUlLdkVWpQMdgxCH-73" edge="1">
                    <mxGeometry relative="1" as="geometry"/>
                </mxCell>
                <mxCell id="56ZMSUlLdkVWpQMdgxCH-64" value="6" style="ellipse;whiteSpace=wrap;html=1;aspect=fixed;" parent="56ZMSUlLdkVWpQMdgxCH-1" vertex="1">
                    <mxGeometry x="410" y="330" width="60" height="60" as="geometry"/>
                </mxCell>
                <mxCell id="56ZMSUlLdkVWpQMdgxCH-85" style="edgeStyle=orthogonalEdgeStyle;html=1;exitX=0.5;exitY=1;exitDx=0;exitDy=0;entryX=0.5;entryY=0;entryDx=0;entryDy=0;" parent="56ZMSUlLdkVWpQMdgxCH-1" source="56ZMSUlLdkVWpQMdgxCH-73" target="56ZMSUlLdkVWpQMdgxCH-76" edge="1">
                    <mxGeometry relative="1" as="geometry">
                        <Array as="points">
                            <mxPoint x="440" y="820"/>
                            <mxPoint x="480" y="820"/>
                            <mxPoint x="480" y="220"/>
                            <mxPoint x="520" y="220"/>
                        </Array>
                    </mxGeometry>
                </mxCell>
                <mxCell id="56ZMSUlLdkVWpQMdgxCH-73" value="11" style="ellipse;whiteSpace=wrap;html=1;aspect=fixed;" parent="56ZMSUlLdkVWpQMdgxCH-1" vertex="1">
                    <mxGeometry x="410" y="730" width="60" height="60" as="geometry"/>
                </mxCell>
                <mxCell id="56ZMSUlLdkVWpQMdgxCH-75" style="edgeStyle=none;html=1;exitX=0.5;exitY=1;exitDx=0;exitDy=0;entryX=0.5;entryY=0;entryDx=0;entryDy=0;" parent="56ZMSUlLdkVWpQMdgxCH-1" source="56ZMSUlLdkVWpQMdgxCH-76" target="56ZMSUlLdkVWpQMdgxCH-78" edge="1">
                    <mxGeometry relative="1" as="geometry"/>
                </mxCell>
                <mxCell id="56ZMSUlLdkVWpQMdgxCH-76" value="5" style="ellipse;whiteSpace=wrap;html=1;aspect=fixed;" parent="56ZMSUlLdkVWpQMdgxCH-1" vertex="1">
                    <mxGeometry x="490" y="240" width="60" height="60" as="geometry"/>
                </mxCell>
                <mxCell id="56ZMSUlLdkVWpQMdgxCH-77" style="edgeStyle=orthogonalEdgeStyle;html=1;exitX=0.5;exitY=1;exitDx=0;exitDy=0;entryX=0.5;entryY=0;entryDx=0;entryDy=0;" parent="56ZMSUlLdkVWpQMdgxCH-1" source="56ZMSUlLdkVWpQMdgxCH-78" target="56ZMSUlLdkVWpQMdgxCH-79" edge="1">
                    <mxGeometry relative="1" as="geometry"/>
                </mxCell>
                <mxCell id="56ZMSUlLdkVWpQMdgxCH-78" value="6" style="ellipse;whiteSpace=wrap;html=1;aspect=fixed;" parent="56ZMSUlLdkVWpQMdgxCH-1" vertex="1">
                    <mxGeometry x="490" y="330" width="60" height="60" as="geometry"/>
                </mxCell>
                <mxCell id="56ZMSUlLdkVWpQMdgxCH-86" style="edgeStyle=orthogonalEdgeStyle;html=1;exitX=0.5;exitY=1;exitDx=0;exitDy=0;entryX=0.5;entryY=0;entryDx=0;entryDy=0;dashed=1;" parent="56ZMSUlLdkVWpQMdgxCH-1" source="56ZMSUlLdkVWpQMdgxCH-79" target="56ZMSUlLdkVWpQMdgxCH-81" edge="1">
                    <mxGeometry relative="1" as="geometry">
                        <Array as="points">
                            <mxPoint x="520" y="820"/>
                            <mxPoint x="560" y="820"/>
                            <mxPoint x="560" y="220"/>
                            <mxPoint x="600" y="220"/>
                        </Array>
                    </mxGeometry>
                </mxCell>
                <mxCell id="56ZMSUlLdkVWpQMdgxCH-79" value="11" style="ellipse;whiteSpace=wrap;html=1;aspect=fixed;" parent="56ZMSUlLdkVWpQMdgxCH-1" vertex="1">
                    <mxGeometry x="490" y="730" width="60" height="60" as="geometry"/>
                </mxCell>
                <mxCell id="56ZMSUlLdkVWpQMdgxCH-80" style="edgeStyle=none;html=1;exitX=0.5;exitY=1;exitDx=0;exitDy=0;entryX=0.5;entryY=0;entryDx=0;entryDy=0;" parent="56ZMSUlLdkVWpQMdgxCH-1" source="56ZMSUlLdkVWpQMdgxCH-81" target="56ZMSUlLdkVWpQMdgxCH-83" edge="1">
                    <mxGeometry relative="1" as="geometry"/>
                </mxCell>
                <mxCell id="56ZMSUlLdkVWpQMdgxCH-81" value="5" style="ellipse;whiteSpace=wrap;html=1;aspect=fixed;" parent="56ZMSUlLdkVWpQMdgxCH-1" vertex="1">
                    <mxGeometry x="570" y="240" width="60" height="60" as="geometry"/>
                </mxCell>
                <mxCell id="56ZMSUlLdkVWpQMdgxCH-82" style="edgeStyle=orthogonalEdgeStyle;html=1;exitX=0.5;exitY=1;exitDx=0;exitDy=0;entryX=0.5;entryY=0;entryDx=0;entryDy=0;" parent="56ZMSUlLdkVWpQMdgxCH-1" source="56ZMSUlLdkVWpQMdgxCH-83" target="56ZMSUlLdkVWpQMdgxCH-84" edge="1">
                    <mxGeometry relative="1" as="geometry"/>
                </mxCell>
                <mxCell id="56ZMSUlLdkVWpQMdgxCH-83" value="6" style="ellipse;whiteSpace=wrap;html=1;aspect=fixed;" parent="56ZMSUlLdkVWpQMdgxCH-1" vertex="1">
                    <mxGeometry x="570" y="330" width="60" height="60" as="geometry"/>
                </mxCell>
                <mxCell id="56ZMSUlLdkVWpQMdgxCH-93" style="edgeStyle=orthogonalEdgeStyle;html=1;exitX=0.5;exitY=1;exitDx=0;exitDy=0;entryX=0.5;entryY=0;entryDx=0;entryDy=0;" parent="56ZMSUlLdkVWpQMdgxCH-1" source="56ZMSUlLdkVWpQMdgxCH-84" target="56ZMSUlLdkVWpQMdgxCH-92" edge="1">
                    <mxGeometry relative="1" as="geometry">
                        <Array as="points">
                            <mxPoint x="600" y="890"/>
                            <mxPoint x="80" y="890"/>
                            <mxPoint x="80" y="980"/>
                            <mxPoint x="90" y="980"/>
                        </Array>
                    </mxGeometry>
                </mxCell>
                <mxCell id="56ZMSUlLdkVWpQMdgxCH-84" value="11" style="ellipse;whiteSpace=wrap;html=1;aspect=fixed;" parent="56ZMSUlLdkVWpQMdgxCH-1" vertex="1">
                    <mxGeometry x="570" y="730" width="60" height="60" as="geometry"/>
                </mxCell>
                <mxCell id="56ZMSUlLdkVWpQMdgxCH-87" value="" style="shape=partialRectangle;whiteSpace=wrap;html=1;bottom=1;right=1;left=1;top=0;fillColor=none;routingCenterX=-0.5;" parent="56ZMSUlLdkVWpQMdgxCH-1" vertex="1">
                    <mxGeometry x="108.5" y="830" width="223" height="10" as="geometry"/>
                </mxCell>
                <mxCell id="56ZMSUlLdkVWpQMdgxCH-88" value="ceil(log2(n)-log2(thid))" style="text;html=1;align=center;verticalAlign=middle;resizable=0;points=[];autosize=1;strokeColor=none;fillColor=none;" parent="56ZMSUlLdkVWpQMdgxCH-1" vertex="1">
                    <mxGeometry x="145" y="850" width="130" height="20" as="geometry"/>
                </mxCell>
                <mxCell id="56ZMSUlLdkVWpQMdgxCH-89" value="ceil(log2(thid))" style="text;html=1;align=center;verticalAlign=middle;resizable=0;points=[];autosize=1;strokeColor=none;fillColor=none;" parent="56ZMSUlLdkVWpQMdgxCH-1" vertex="1">
                    <mxGeometry x="475" y="850" width="90" height="20" as="geometry"/>
                </mxCell>
                <mxCell id="56ZMSUlLdkVWpQMdgxCH-90" value="" style="shape=partialRectangle;whiteSpace=wrap;html=1;bottom=1;right=1;left=1;top=0;fillColor=none;routingCenterX=-0.5;" parent="56ZMSUlLdkVWpQMdgxCH-1" vertex="1">
                    <mxGeometry x="400" y="830" width="223" height="10" as="geometry"/>
                </mxCell>
                <mxCell id="56ZMSUlLdkVWpQMdgxCH-95" style="edgeStyle=orthogonalEdgeStyle;html=1;exitX=1;exitY=0.5;exitDx=0;exitDy=0;entryX=0;entryY=0.5;entryDx=0;entryDy=0;" parent="56ZMSUlLdkVWpQMdgxCH-1" source="56ZMSUlLdkVWpQMdgxCH-92" target="56ZMSUlLdkVWpQMdgxCH-94" edge="1">
                    <mxGeometry relative="1" as="geometry"/>
                </mxCell>
                <mxCell id="56ZMSUlLdkVWpQMdgxCH-92" value="12" style="ellipse;whiteSpace=wrap;html=1;aspect=fixed;" parent="56ZMSUlLdkVWpQMdgxCH-1" vertex="1">
                    <mxGeometry x="60" y="932" width="60" height="60" as="geometry"/>
                </mxCell>
                <mxCell id="56ZMSUlLdkVWpQMdgxCH-105" style="edgeStyle=orthogonalEdgeStyle;html=1;exitX=0.5;exitY=1;exitDx=0;exitDy=0;entryX=0.5;entryY=0;entryDx=0;entryDy=0;" parent="56ZMSUlLdkVWpQMdgxCH-1" source="56ZMSUlLdkVWpQMdgxCH-94" target="56ZMSUlLdkVWpQMdgxCH-97" edge="1">
                    <mxGeometry relative="1" as="geometry"/>
                </mxCell>
                <mxCell id="56ZMSUlLdkVWpQMdgxCH-94" value="13" style="ellipse;whiteSpace=wrap;html=1;aspect=fixed;" parent="56ZMSUlLdkVWpQMdgxCH-1" vertex="1">
                    <mxGeometry x="140" y="932" width="60" height="60" as="geometry"/>
                </mxCell>
                <mxCell id="56ZMSUlLdkVWpQMdgxCH-106" style="edgeStyle=orthogonalEdgeStyle;html=1;exitX=0.5;exitY=1;exitDx=0;exitDy=0;entryX=0.5;entryY=0;entryDx=0;entryDy=0;" parent="56ZMSUlLdkVWpQMdgxCH-1" source="56ZMSUlLdkVWpQMdgxCH-97" target="56ZMSUlLdkVWpQMdgxCH-98" edge="1">
                    <mxGeometry relative="1" as="geometry"/>
                </mxCell>
                <mxCell id="56ZMSUlLdkVWpQMdgxCH-97" value="14" style="ellipse;whiteSpace=wrap;html=1;aspect=fixed;" parent="56ZMSUlLdkVWpQMdgxCH-1" vertex="1">
                    <mxGeometry x="140" y="1012" width="60" height="60" as="geometry"/>
                </mxCell>
                <mxCell id="56ZMSUlLdkVWpQMdgxCH-107" style="edgeStyle=orthogonalEdgeStyle;html=1;exitX=0.5;exitY=1;exitDx=0;exitDy=0;entryX=0.5;entryY=0;entryDx=0;entryDy=0;" parent="56ZMSUlLdkVWpQMdgxCH-1" source="56ZMSUlLdkVWpQMdgxCH-98" target="56ZMSUlLdkVWpQMdgxCH-99" edge="1">
                    <mxGeometry relative="1" as="geometry"/>
                </mxCell>
                <mxCell id="56ZMSUlLdkVWpQMdgxCH-98" value="15" style="ellipse;whiteSpace=wrap;html=1;aspect=fixed;" parent="56ZMSUlLdkVWpQMdgxCH-1" vertex="1">
                    <mxGeometry x="140" y="1092" width="60" height="60" as="geometry"/>
                </mxCell>
                <mxCell id="56ZMSUlLdkVWpQMdgxCH-108" style="edgeStyle=orthogonalEdgeStyle;html=1;exitX=0.5;exitY=1;exitDx=0;exitDy=0;entryX=0.5;entryY=0;entryDx=0;entryDy=0;" parent="56ZMSUlLdkVWpQMdgxCH-1" source="56ZMSUlLdkVWpQMdgxCH-99" target="56ZMSUlLdkVWpQMdgxCH-100" edge="1">
                    <mxGeometry relative="1" as="geometry"/>
                </mxCell>
                <mxCell id="56ZMSUlLdkVWpQMdgxCH-99" value="16" style="ellipse;whiteSpace=wrap;html=1;aspect=fixed;" parent="56ZMSUlLdkVWpQMdgxCH-1" vertex="1">
                    <mxGeometry x="140" y="1220" width="60" height="60" as="geometry"/>
                </mxCell>
                <mxCell id="56ZMSUlLdkVWpQMdgxCH-109" style="edgeStyle=orthogonalEdgeStyle;html=1;exitX=0.5;exitY=1;exitDx=0;exitDy=0;entryX=0.5;entryY=0;entryDx=0;entryDy=0;" parent="56ZMSUlLdkVWpQMdgxCH-1" source="56ZMSUlLdkVWpQMdgxCH-100" target="56ZMSUlLdkVWpQMdgxCH-101" edge="1">
                    <mxGeometry relative="1" as="geometry"/>
                </mxCell>
                <mxCell id="56ZMSUlLdkVWpQMdgxCH-100" value="17" style="ellipse;whiteSpace=wrap;html=1;aspect=fixed;" parent="56ZMSUlLdkVWpQMdgxCH-1" vertex="1">
                    <mxGeometry x="140" y="1300" width="60" height="60" as="geometry"/>
                </mxCell>
                <mxCell id="56ZMSUlLdkVWpQMdgxCH-110" style="edgeStyle=orthogonalEdgeStyle;html=1;exitX=0.5;exitY=1;exitDx=0;exitDy=0;entryX=0.5;entryY=0;entryDx=0;entryDy=0;" parent="56ZMSUlLdkVWpQMdgxCH-1" source="56ZMSUlLdkVWpQMdgxCH-101" target="56ZMSUlLdkVWpQMdgxCH-102" edge="1">
                    <mxGeometry relative="1" as="geometry"/>
                </mxCell>
                <mxCell id="56ZMSUlLdkVWpQMdgxCH-101" value="18" style="ellipse;whiteSpace=wrap;html=1;aspect=fixed;" parent="56ZMSUlLdkVWpQMdgxCH-1" vertex="1">
                    <mxGeometry x="140" y="1380" width="60" height="60" as="geometry"/>
                </mxCell>
                <mxCell id="56ZMSUlLdkVWpQMdgxCH-111" style="edgeStyle=orthogonalEdgeStyle;html=1;exitX=0.5;exitY=1;exitDx=0;exitDy=0;entryX=0.5;entryY=0;entryDx=0;entryDy=0;" parent="56ZMSUlLdkVWpQMdgxCH-1" source="56ZMSUlLdkVWpQMdgxCH-102" target="56ZMSUlLdkVWpQMdgxCH-103" edge="1">
                    <mxGeometry relative="1" as="geometry"/>
                </mxCell>
                <mxCell id="56ZMSUlLdkVWpQMdgxCH-102" value="19" style="ellipse;whiteSpace=wrap;html=1;aspect=fixed;" parent="56ZMSUlLdkVWpQMdgxCH-1" vertex="1">
                    <mxGeometry x="140" y="1460" width="60" height="60" as="geometry"/>
                </mxCell>
                <mxCell id="56ZMSUlLdkVWpQMdgxCH-112" style="edgeStyle=orthogonalEdgeStyle;html=1;exitX=0.5;exitY=1;exitDx=0;exitDy=0;entryX=0.5;entryY=0;entryDx=0;entryDy=0;" parent="56ZMSUlLdkVWpQMdgxCH-1" source="56ZMSUlLdkVWpQMdgxCH-103" target="56ZMSUlLdkVWpQMdgxCH-104" edge="1">
                    <mxGeometry relative="1" as="geometry"/>
                </mxCell>
                <mxCell id="56ZMSUlLdkVWpQMdgxCH-103" value="20" style="ellipse;whiteSpace=wrap;html=1;aspect=fixed;" parent="56ZMSUlLdkVWpQMdgxCH-1" vertex="1">
                    <mxGeometry x="140" y="1540" width="60" height="60" as="geometry"/>
                </mxCell>
                <mxCell id="56ZMSUlLdkVWpQMdgxCH-132" style="edgeStyle=orthogonalEdgeStyle;html=1;exitX=0.5;exitY=1;exitDx=0;exitDy=0;entryX=0.5;entryY=0;entryDx=0;entryDy=0;" parent="56ZMSUlLdkVWpQMdgxCH-1" source="56ZMSUlLdkVWpQMdgxCH-104" target="56ZMSUlLdkVWpQMdgxCH-130" edge="1">
                    <mxGeometry relative="1" as="geometry">
                        <Array as="points">
                            <mxPoint x="170" y="1690"/>
                            <mxPoint x="214" y="1690"/>
                            <mxPoint x="214" y="960"/>
                            <mxPoint x="258" y="960"/>
                        </Array>
                    </mxGeometry>
                </mxCell>
                <mxCell id="56ZMSUlLdkVWpQMdgxCH-104" value="21" style="ellipse;whiteSpace=wrap;html=1;aspect=fixed;" parent="56ZMSUlLdkVWpQMdgxCH-1" vertex="1">
                    <mxGeometry x="140" y="1620" width="60" height="60" as="geometry"/>
                </mxCell>
                <mxCell id="56ZMSUlLdkVWpQMdgxCH-114" style="edgeStyle=orthogonalEdgeStyle;html=1;exitX=0.5;exitY=1;exitDx=0;exitDy=0;entryX=0.5;entryY=0;entryDx=0;entryDy=0;" parent="56ZMSUlLdkVWpQMdgxCH-1" source="56ZMSUlLdkVWpQMdgxCH-115" target="56ZMSUlLdkVWpQMdgxCH-117" edge="1">
                    <mxGeometry relative="1" as="geometry"/>
                </mxCell>
                <mxCell id="56ZMSUlLdkVWpQMdgxCH-115" value="14" style="ellipse;whiteSpace=wrap;html=1;aspect=fixed;" parent="56ZMSUlLdkVWpQMdgxCH-1" vertex="1">
                    <mxGeometry x="228" y="1012" width="60" height="60" as="geometry"/>
                </mxCell>
                <mxCell id="56ZMSUlLdkVWpQMdgxCH-116" style="edgeStyle=orthogonalEdgeStyle;html=1;exitX=0.5;exitY=1;exitDx=0;exitDy=0;entryX=0.5;entryY=0;entryDx=0;entryDy=0;" parent="56ZMSUlLdkVWpQMdgxCH-1" source="56ZMSUlLdkVWpQMdgxCH-117" target="56ZMSUlLdkVWpQMdgxCH-119" edge="1">
                    <mxGeometry relative="1" as="geometry"/>
                </mxCell>
                <mxCell id="56ZMSUlLdkVWpQMdgxCH-117" value="15" style="ellipse;whiteSpace=wrap;html=1;aspect=fixed;" parent="56ZMSUlLdkVWpQMdgxCH-1" vertex="1">
                    <mxGeometry x="228" y="1092" width="60" height="60" as="geometry"/>
                </mxCell>
                <mxCell id="56ZMSUlLdkVWpQMdgxCH-118" style="edgeStyle=orthogonalEdgeStyle;html=1;exitX=0.5;exitY=1;exitDx=0;exitDy=0;entryX=0.5;entryY=0;entryDx=0;entryDy=0;" parent="56ZMSUlLdkVWpQMdgxCH-1" source="56ZMSUlLdkVWpQMdgxCH-119" target="56ZMSUlLdkVWpQMdgxCH-121" edge="1">
                    <mxGeometry relative="1" as="geometry"/>
                </mxCell>
                <mxCell id="56ZMSUlLdkVWpQMdgxCH-119" value="16" style="ellipse;whiteSpace=wrap;html=1;aspect=fixed;" parent="56ZMSUlLdkVWpQMdgxCH-1" vertex="1">
                    <mxGeometry x="228" y="1220" width="60" height="60" as="geometry"/>
                </mxCell>
                <mxCell id="56ZMSUlLdkVWpQMdgxCH-120" style="edgeStyle=orthogonalEdgeStyle;html=1;exitX=0.5;exitY=1;exitDx=0;exitDy=0;entryX=0.5;entryY=0;entryDx=0;entryDy=0;" parent="56ZMSUlLdkVWpQMdgxCH-1" source="56ZMSUlLdkVWpQMdgxCH-121" target="56ZMSUlLdkVWpQMdgxCH-123" edge="1">
                    <mxGeometry relative="1" as="geometry"/>
                </mxCell>
                <mxCell id="56ZMSUlLdkVWpQMdgxCH-121" value="17" style="ellipse;whiteSpace=wrap;html=1;aspect=fixed;" parent="56ZMSUlLdkVWpQMdgxCH-1" vertex="1">
                    <mxGeometry x="228" y="1300" width="60" height="60" as="geometry"/>
                </mxCell>
                <mxCell id="56ZMSUlLdkVWpQMdgxCH-122" style="edgeStyle=orthogonalEdgeStyle;html=1;exitX=0.5;exitY=1;exitDx=0;exitDy=0;entryX=0.5;entryY=0;entryDx=0;entryDy=0;" parent="56ZMSUlLdkVWpQMdgxCH-1" source="56ZMSUlLdkVWpQMdgxCH-123" target="56ZMSUlLdkVWpQMdgxCH-125" edge="1">
                    <mxGeometry relative="1" as="geometry"/>
                </mxCell>
                <mxCell id="56ZMSUlLdkVWpQMdgxCH-123" value="18" style="ellipse;whiteSpace=wrap;html=1;aspect=fixed;" parent="56ZMSUlLdkVWpQMdgxCH-1" vertex="1">
                    <mxGeometry x="228" y="1380" width="60" height="60" as="geometry"/>
                </mxCell>
                <mxCell id="56ZMSUlLdkVWpQMdgxCH-124" style="edgeStyle=orthogonalEdgeStyle;html=1;exitX=0.5;exitY=1;exitDx=0;exitDy=0;entryX=0.5;entryY=0;entryDx=0;entryDy=0;" parent="56ZMSUlLdkVWpQMdgxCH-1" source="56ZMSUlLdkVWpQMdgxCH-125" target="56ZMSUlLdkVWpQMdgxCH-127" edge="1">
                    <mxGeometry relative="1" as="geometry"/>
                </mxCell>
                <mxCell id="56ZMSUlLdkVWpQMdgxCH-125" value="19" style="ellipse;whiteSpace=wrap;html=1;aspect=fixed;" parent="56ZMSUlLdkVWpQMdgxCH-1" vertex="1">
                    <mxGeometry x="228" y="1460" width="60" height="60" as="geometry"/>
                </mxCell>
                <mxCell id="56ZMSUlLdkVWpQMdgxCH-126" style="edgeStyle=orthogonalEdgeStyle;html=1;exitX=0.5;exitY=1;exitDx=0;exitDy=0;entryX=0.5;entryY=0;entryDx=0;entryDy=0;" parent="56ZMSUlLdkVWpQMdgxCH-1" source="56ZMSUlLdkVWpQMdgxCH-127" target="56ZMSUlLdkVWpQMdgxCH-128" edge="1">
                    <mxGeometry relative="1" as="geometry"/>
                </mxCell>
                <mxCell id="56ZMSUlLdkVWpQMdgxCH-127" value="20" style="ellipse;whiteSpace=wrap;html=1;aspect=fixed;" parent="56ZMSUlLdkVWpQMdgxCH-1" vertex="1">
                    <mxGeometry x="228" y="1540" width="60" height="60" as="geometry"/>
                </mxCell>
                <mxCell id="56ZMSUlLdkVWpQMdgxCH-151" style="edgeStyle=orthogonalEdgeStyle;html=1;exitX=0.5;exitY=1;exitDx=0;exitDy=0;entryX=0.5;entryY=0;entryDx=0;entryDy=0;dashed=1;" parent="56ZMSUlLdkVWpQMdgxCH-1" source="56ZMSUlLdkVWpQMdgxCH-128" target="56ZMSUlLdkVWpQMdgxCH-149" edge="1">
                    <mxGeometry relative="1" as="geometry">
                        <Array as="points">
                            <mxPoint x="258" y="1690"/>
                            <mxPoint x="302" y="1690"/>
                            <mxPoint x="302" y="960"/>
                            <mxPoint x="346" y="960"/>
                        </Array>
                    </mxGeometry>
                </mxCell>
                <mxCell id="56ZMSUlLdkVWpQMdgxCH-128" value="21" style="ellipse;whiteSpace=wrap;html=1;aspect=fixed;" parent="56ZMSUlLdkVWpQMdgxCH-1" vertex="1">
                    <mxGeometry x="228" y="1620" width="60" height="60" as="geometry"/>
                </mxCell>
                <mxCell id="56ZMSUlLdkVWpQMdgxCH-131" style="edgeStyle=orthogonalEdgeStyle;html=1;exitX=0.5;exitY=1;exitDx=0;exitDy=0;entryX=0.5;entryY=0;entryDx=0;entryDy=0;" parent="56ZMSUlLdkVWpQMdgxCH-1" source="56ZMSUlLdkVWpQMdgxCH-130" target="56ZMSUlLdkVWpQMdgxCH-115" edge="1">
                    <mxGeometry relative="1" as="geometry"/>
                </mxCell>
                <mxCell id="56ZMSUlLdkVWpQMdgxCH-130" value="13" style="ellipse;whiteSpace=wrap;html=1;aspect=fixed;" parent="56ZMSUlLdkVWpQMdgxCH-1" vertex="1">
                    <mxGeometry x="228" y="932" width="60" height="60" as="geometry"/>
                </mxCell>
                <mxCell id="56ZMSUlLdkVWpQMdgxCH-133" style="edgeStyle=orthogonalEdgeStyle;html=1;exitX=0.5;exitY=1;exitDx=0;exitDy=0;entryX=0.5;entryY=0;entryDx=0;entryDy=0;" parent="56ZMSUlLdkVWpQMdgxCH-1" source="56ZMSUlLdkVWpQMdgxCH-134" target="56ZMSUlLdkVWpQMdgxCH-136" edge="1">
                    <mxGeometry relative="1" as="geometry"/>
                </mxCell>
                <mxCell id="56ZMSUlLdkVWpQMdgxCH-134" value="14" style="ellipse;whiteSpace=wrap;html=1;aspect=fixed;" parent="56ZMSUlLdkVWpQMdgxCH-1" vertex="1">
                    <mxGeometry x="316" y="1012" width="60" height="60" as="geometry"/>
                </mxCell>
                <mxCell id="56ZMSUlLdkVWpQMdgxCH-135" style="edgeStyle=orthogonalEdgeStyle;html=1;exitX=0.5;exitY=1;exitDx=0;exitDy=0;entryX=0.5;entryY=0;entryDx=0;entryDy=0;" parent="56ZMSUlLdkVWpQMdgxCH-1" source="56ZMSUlLdkVWpQMdgxCH-136" target="56ZMSUlLdkVWpQMdgxCH-138" edge="1">
                    <mxGeometry relative="1" as="geometry"/>
                </mxCell>
                <mxCell id="56ZMSUlLdkVWpQMdgxCH-136" value="15" style="ellipse;whiteSpace=wrap;html=1;aspect=fixed;" parent="56ZMSUlLdkVWpQMdgxCH-1" vertex="1">
                    <mxGeometry x="316" y="1092" width="60" height="60" as="geometry"/>
                </mxCell>
                <mxCell id="56ZMSUlLdkVWpQMdgxCH-137" style="edgeStyle=orthogonalEdgeStyle;html=1;exitX=0.5;exitY=1;exitDx=0;exitDy=0;entryX=0.5;entryY=0;entryDx=0;entryDy=0;" parent="56ZMSUlLdkVWpQMdgxCH-1" source="56ZMSUlLdkVWpQMdgxCH-138" target="56ZMSUlLdkVWpQMdgxCH-140" edge="1">
                    <mxGeometry relative="1" as="geometry"/>
                </mxCell>
                <mxCell id="56ZMSUlLdkVWpQMdgxCH-138" value="16" style="ellipse;whiteSpace=wrap;html=1;aspect=fixed;" parent="56ZMSUlLdkVWpQMdgxCH-1" vertex="1">
                    <mxGeometry x="316" y="1220" width="60" height="60" as="geometry"/>
                </mxCell>
                <mxCell id="56ZMSUlLdkVWpQMdgxCH-139" style="edgeStyle=orthogonalEdgeStyle;html=1;exitX=0.5;exitY=1;exitDx=0;exitDy=0;entryX=0.5;entryY=0;entryDx=0;entryDy=0;" parent="56ZMSUlLdkVWpQMdgxCH-1" source="56ZMSUlLdkVWpQMdgxCH-140" target="56ZMSUlLdkVWpQMdgxCH-142" edge="1">
                    <mxGeometry relative="1" as="geometry"/>
                </mxCell>
                <mxCell id="56ZMSUlLdkVWpQMdgxCH-140" value="17" style="ellipse;whiteSpace=wrap;html=1;aspect=fixed;" parent="56ZMSUlLdkVWpQMdgxCH-1" vertex="1">
                    <mxGeometry x="316" y="1300" width="60" height="60" as="geometry"/>
                </mxCell>
                <mxCell id="56ZMSUlLdkVWpQMdgxCH-141" style="edgeStyle=orthogonalEdgeStyle;html=1;exitX=0.5;exitY=1;exitDx=0;exitDy=0;entryX=0.5;entryY=0;entryDx=0;entryDy=0;" parent="56ZMSUlLdkVWpQMdgxCH-1" source="56ZMSUlLdkVWpQMdgxCH-142" target="56ZMSUlLdkVWpQMdgxCH-144" edge="1">
                    <mxGeometry relative="1" as="geometry"/>
                </mxCell>
                <mxCell id="56ZMSUlLdkVWpQMdgxCH-142" value="18" style="ellipse;whiteSpace=wrap;html=1;aspect=fixed;" parent="56ZMSUlLdkVWpQMdgxCH-1" vertex="1">
                    <mxGeometry x="316" y="1380" width="60" height="60" as="geometry"/>
                </mxCell>
                <mxCell id="56ZMSUlLdkVWpQMdgxCH-143" style="edgeStyle=orthogonalEdgeStyle;html=1;exitX=0.5;exitY=1;exitDx=0;exitDy=0;entryX=0.5;entryY=0;entryDx=0;entryDy=0;" parent="56ZMSUlLdkVWpQMdgxCH-1" source="56ZMSUlLdkVWpQMdgxCH-144" target="56ZMSUlLdkVWpQMdgxCH-146" edge="1">
                    <mxGeometry relative="1" as="geometry"/>
                </mxCell>
                <mxCell id="56ZMSUlLdkVWpQMdgxCH-144" value="19" style="ellipse;whiteSpace=wrap;html=1;aspect=fixed;" parent="56ZMSUlLdkVWpQMdgxCH-1" vertex="1">
                    <mxGeometry x="316" y="1460" width="60" height="60" as="geometry"/>
                </mxCell>
                <mxCell id="56ZMSUlLdkVWpQMdgxCH-145" style="edgeStyle=orthogonalEdgeStyle;html=1;exitX=0.5;exitY=1;exitDx=0;exitDy=0;entryX=0.5;entryY=0;entryDx=0;entryDy=0;" parent="56ZMSUlLdkVWpQMdgxCH-1" source="56ZMSUlLdkVWpQMdgxCH-146" target="56ZMSUlLdkVWpQMdgxCH-147" edge="1">
                    <mxGeometry relative="1" as="geometry"/>
                </mxCell>
                <mxCell id="56ZMSUlLdkVWpQMdgxCH-146" value="20" style="ellipse;whiteSpace=wrap;html=1;aspect=fixed;" parent="56ZMSUlLdkVWpQMdgxCH-1" vertex="1">
                    <mxGeometry x="316" y="1540" width="60" height="60" as="geometry"/>
                </mxCell>
                <mxCell id="56ZMSUlLdkVWpQMdgxCH-212" style="edgeStyle=orthogonalEdgeStyle;html=1;exitX=0.5;exitY=1;exitDx=0;exitDy=0;entryX=0.5;entryY=0;entryDx=0;entryDy=0;" parent="56ZMSUlLdkVWpQMdgxCH-1" source="56ZMSUlLdkVWpQMdgxCH-147" target="56ZMSUlLdkVWpQMdgxCH-156" edge="1">
                    <mxGeometry relative="1" as="geometry">
                        <Array as="points">
                            <mxPoint x="346" y="1690"/>
                            <mxPoint x="413" y="1690"/>
                            <mxPoint x="413" y="960"/>
                            <mxPoint x="480" y="960"/>
                        </Array>
                    </mxGeometry>
                </mxCell>
                <mxCell id="56ZMSUlLdkVWpQMdgxCH-147" value="21" style="ellipse;whiteSpace=wrap;html=1;aspect=fixed;" parent="56ZMSUlLdkVWpQMdgxCH-1" vertex="1">
                    <mxGeometry x="316" y="1620" width="60" height="60" as="geometry"/>
                </mxCell>
                <mxCell id="56ZMSUlLdkVWpQMdgxCH-148" style="edgeStyle=orthogonalEdgeStyle;html=1;exitX=0.5;exitY=1;exitDx=0;exitDy=0;entryX=0.5;entryY=0;entryDx=0;entryDy=0;" parent="56ZMSUlLdkVWpQMdgxCH-1" source="56ZMSUlLdkVWpQMdgxCH-149" target="56ZMSUlLdkVWpQMdgxCH-134" edge="1">
                    <mxGeometry relative="1" as="geometry"/>
                </mxCell>
                <mxCell id="56ZMSUlLdkVWpQMdgxCH-149" value="13" style="ellipse;whiteSpace=wrap;html=1;aspect=fixed;" parent="56ZMSUlLdkVWpQMdgxCH-1" vertex="1">
                    <mxGeometry x="316" y="932" width="60" height="60" as="geometry"/>
                </mxCell>
                <mxCell id="56ZMSUlLdkVWpQMdgxCH-152" value="" style="shape=partialRectangle;whiteSpace=wrap;html=1;bottom=1;right=1;left=1;top=0;fillColor=none;routingCenterX=-0.5;" parent="56ZMSUlLdkVWpQMdgxCH-1" vertex="1">
                    <mxGeometry x="146.5" y="1700" width="223" height="10" as="geometry"/>
                </mxCell>
                <mxCell id="56ZMSUlLdkVWpQMdgxCH-153" value="ceil(log2(n)-log2(thid))" style="text;html=1;align=center;verticalAlign=middle;resizable=0;points=[];autosize=1;strokeColor=none;fillColor=none;" parent="56ZMSUlLdkVWpQMdgxCH-1" vertex="1">
                    <mxGeometry x="195" y="1730" width="130" height="20" as="geometry"/>
                </mxCell>
                <mxCell id="56ZMSUlLdkVWpQMdgxCH-154" value="" style="shape=partialRectangle;whiteSpace=wrap;html=1;bottom=1;right=1;left=1;top=0;fillColor=none;routingCenterX=-0.5;" parent="56ZMSUlLdkVWpQMdgxCH-1" vertex="1">
                    <mxGeometry x="456.5" y="1320" width="223" height="10" as="geometry"/>
                </mxCell>
                <mxCell id="56ZMSUlLdkVWpQMdgxCH-155" style="edgeStyle=orthogonalEdgeStyle;html=1;exitX=0.5;exitY=1;exitDx=0;exitDy=0;entryX=0.5;entryY=0;entryDx=0;entryDy=0;" parent="56ZMSUlLdkVWpQMdgxCH-1" source="56ZMSUlLdkVWpQMdgxCH-156" target="56ZMSUlLdkVWpQMdgxCH-158" edge="1">
                    <mxGeometry relative="1" as="geometry"/>
                </mxCell>
                <mxCell id="56ZMSUlLdkVWpQMdgxCH-156" value="13" style="ellipse;whiteSpace=wrap;html=1;aspect=fixed;" parent="56ZMSUlLdkVWpQMdgxCH-1" vertex="1">
                    <mxGeometry x="450" y="932" width="60" height="60" as="geometry"/>
                </mxCell>
                <mxCell id="56ZMSUlLdkVWpQMdgxCH-157" style="edgeStyle=orthogonalEdgeStyle;html=1;exitX=0.5;exitY=1;exitDx=0;exitDy=0;entryX=0.5;entryY=0;entryDx=0;entryDy=0;" parent="56ZMSUlLdkVWpQMdgxCH-1" source="56ZMSUlLdkVWpQMdgxCH-158" target="56ZMSUlLdkVWpQMdgxCH-160" edge="1">
                    <mxGeometry relative="1" as="geometry"/>
                </mxCell>
                <mxCell id="56ZMSUlLdkVWpQMdgxCH-158" value="14" style="ellipse;whiteSpace=wrap;html=1;aspect=fixed;" parent="56ZMSUlLdkVWpQMdgxCH-1" vertex="1">
                    <mxGeometry x="450" y="1012" width="60" height="60" as="geometry"/>
                </mxCell>
                <mxCell id="56ZMSUlLdkVWpQMdgxCH-159" style="edgeStyle=orthogonalEdgeStyle;html=1;exitX=0.5;exitY=1;exitDx=0;exitDy=0;entryX=0.5;entryY=0;entryDx=0;entryDy=0;" parent="56ZMSUlLdkVWpQMdgxCH-1" source="56ZMSUlLdkVWpQMdgxCH-160" target="56ZMSUlLdkVWpQMdgxCH-162" edge="1">
                    <mxGeometry relative="1" as="geometry"/>
                </mxCell>
                <mxCell id="56ZMSUlLdkVWpQMdgxCH-160" value="15" style="ellipse;whiteSpace=wrap;html=1;aspect=fixed;" parent="56ZMSUlLdkVWpQMdgxCH-1" vertex="1">
                    <mxGeometry x="450" y="1092" width="60" height="60" as="geometry"/>
                </mxCell>
                <mxCell id="56ZMSUlLdkVWpQMdgxCH-208" style="edgeStyle=orthogonalEdgeStyle;html=1;exitX=0.5;exitY=1;exitDx=0;exitDy=0;entryX=0.5;entryY=0;entryDx=0;entryDy=0;" parent="56ZMSUlLdkVWpQMdgxCH-1" source="56ZMSUlLdkVWpQMdgxCH-162" target="56ZMSUlLdkVWpQMdgxCH-190" edge="1">
                    <mxGeometry relative="1" as="geometry">
                        <Array as="points">
                            <mxPoint x="480" y="1290"/>
                            <mxPoint x="524" y="1290"/>
                            <mxPoint x="524" y="960"/>
                            <mxPoint x="568" y="960"/>
                        </Array>
                    </mxGeometry>
                </mxCell>
                <mxCell id="56ZMSUlLdkVWpQMdgxCH-162" value="16" style="ellipse;whiteSpace=wrap;html=1;aspect=fixed;" parent="56ZMSUlLdkVWpQMdgxCH-1" vertex="1">
                    <mxGeometry x="450" y="1220" width="60" height="60" as="geometry"/>
                </mxCell>
                <mxCell id="56ZMSUlLdkVWpQMdgxCH-173" style="edgeStyle=orthogonalEdgeStyle;html=1;exitX=0.5;exitY=1;exitDx=0;exitDy=0;entryX=0.5;entryY=0;entryDx=0;entryDy=0;" parent="56ZMSUlLdkVWpQMdgxCH-1" source="56ZMSUlLdkVWpQMdgxCH-174" target="56ZMSUlLdkVWpQMdgxCH-176" edge="1">
                    <mxGeometry relative="1" as="geometry"/>
                </mxCell>
                <mxCell id="56ZMSUlLdkVWpQMdgxCH-174" value="14" style="ellipse;whiteSpace=wrap;html=1;aspect=fixed;" parent="56ZMSUlLdkVWpQMdgxCH-1" vertex="1">
                    <mxGeometry x="538" y="1012" width="60" height="60" as="geometry"/>
                </mxCell>
                <mxCell id="56ZMSUlLdkVWpQMdgxCH-175" style="edgeStyle=orthogonalEdgeStyle;html=1;exitX=0.5;exitY=1;exitDx=0;exitDy=0;entryX=0.5;entryY=0;entryDx=0;entryDy=0;" parent="56ZMSUlLdkVWpQMdgxCH-1" source="56ZMSUlLdkVWpQMdgxCH-176" target="56ZMSUlLdkVWpQMdgxCH-178" edge="1">
                    <mxGeometry relative="1" as="geometry"/>
                </mxCell>
                <mxCell id="56ZMSUlLdkVWpQMdgxCH-176" value="15" style="ellipse;whiteSpace=wrap;html=1;aspect=fixed;" parent="56ZMSUlLdkVWpQMdgxCH-1" vertex="1">
                    <mxGeometry x="538" y="1092" width="60" height="60" as="geometry"/>
                </mxCell>
                <mxCell id="56ZMSUlLdkVWpQMdgxCH-209" style="edgeStyle=orthogonalEdgeStyle;html=1;exitX=0.5;exitY=1;exitDx=0;exitDy=0;entryX=0.5;entryY=0;entryDx=0;entryDy=0;dashed=1;" parent="56ZMSUlLdkVWpQMdgxCH-1" source="56ZMSUlLdkVWpQMdgxCH-178" target="56ZMSUlLdkVWpQMdgxCH-207" edge="1">
                    <mxGeometry relative="1" as="geometry">
                        <Array as="points">
                            <mxPoint x="568" y="1290"/>
                            <mxPoint x="612" y="1290"/>
                            <mxPoint x="612" y="960"/>
                            <mxPoint x="656" y="960"/>
                        </Array>
                    </mxGeometry>
                </mxCell>
                <mxCell id="56ZMSUlLdkVWpQMdgxCH-178" value="16" style="ellipse;whiteSpace=wrap;html=1;aspect=fixed;" parent="56ZMSUlLdkVWpQMdgxCH-1" vertex="1">
                    <mxGeometry x="538" y="1220" width="60" height="60" as="geometry"/>
                </mxCell>
                <mxCell id="56ZMSUlLdkVWpQMdgxCH-189" style="edgeStyle=orthogonalEdgeStyle;html=1;exitX=0.5;exitY=1;exitDx=0;exitDy=0;entryX=0.5;entryY=0;entryDx=0;entryDy=0;" parent="56ZMSUlLdkVWpQMdgxCH-1" source="56ZMSUlLdkVWpQMdgxCH-190" target="56ZMSUlLdkVWpQMdgxCH-174" edge="1">
                    <mxGeometry relative="1" as="geometry"/>
                </mxCell>
                <mxCell id="56ZMSUlLdkVWpQMdgxCH-190" value="13" style="ellipse;whiteSpace=wrap;html=1;aspect=fixed;" parent="56ZMSUlLdkVWpQMdgxCH-1" vertex="1">
                    <mxGeometry x="538" y="932" width="60" height="60" as="geometry"/>
                </mxCell>
                <mxCell id="56ZMSUlLdkVWpQMdgxCH-191" style="edgeStyle=orthogonalEdgeStyle;html=1;exitX=0.5;exitY=1;exitDx=0;exitDy=0;entryX=0.5;entryY=0;entryDx=0;entryDy=0;" parent="56ZMSUlLdkVWpQMdgxCH-1" source="56ZMSUlLdkVWpQMdgxCH-192" target="56ZMSUlLdkVWpQMdgxCH-194" edge="1">
                    <mxGeometry relative="1" as="geometry"/>
                </mxCell>
                <mxCell id="56ZMSUlLdkVWpQMdgxCH-192" value="14" style="ellipse;whiteSpace=wrap;html=1;aspect=fixed;" parent="56ZMSUlLdkVWpQMdgxCH-1" vertex="1">
                    <mxGeometry x="626" y="1012" width="60" height="60" as="geometry"/>
                </mxCell>
                <mxCell id="56ZMSUlLdkVWpQMdgxCH-193" style="edgeStyle=orthogonalEdgeStyle;html=1;exitX=0.5;exitY=1;exitDx=0;exitDy=0;entryX=0.5;entryY=0;entryDx=0;entryDy=0;" parent="56ZMSUlLdkVWpQMdgxCH-1" source="56ZMSUlLdkVWpQMdgxCH-194" target="56ZMSUlLdkVWpQMdgxCH-196" edge="1">
                    <mxGeometry relative="1" as="geometry"/>
                </mxCell>
                <mxCell id="56ZMSUlLdkVWpQMdgxCH-194" value="15" style="ellipse;whiteSpace=wrap;html=1;aspect=fixed;" parent="56ZMSUlLdkVWpQMdgxCH-1" vertex="1">
                    <mxGeometry x="626" y="1092" width="60" height="60" as="geometry"/>
                </mxCell>
                <mxCell id="56ZMSUlLdkVWpQMdgxCH-216" style="edgeStyle=orthogonalEdgeStyle;html=1;exitX=0.5;exitY=1;exitDx=0;exitDy=0;entryX=0.5;entryY=0;entryDx=0;entryDy=0;" parent="56ZMSUlLdkVWpQMdgxCH-1" source="56ZMSUlLdkVWpQMdgxCH-196" target="56ZMSUlLdkVWpQMdgxCH-213" edge="1">
                    <mxGeometry relative="1" as="geometry">
                        <Array as="points">
                            <mxPoint x="656" y="1290"/>
                            <mxPoint x="713" y="1290"/>
                            <mxPoint x="713" y="960"/>
                            <mxPoint x="770" y="960"/>
                        </Array>
                    </mxGeometry>
                </mxCell>
                <mxCell id="56ZMSUlLdkVWpQMdgxCH-196" value="16" style="ellipse;whiteSpace=wrap;html=1;aspect=fixed;" parent="56ZMSUlLdkVWpQMdgxCH-1" vertex="1">
                    <mxGeometry x="626" y="1220" width="60" height="60" as="geometry"/>
                </mxCell>
                <mxCell id="56ZMSUlLdkVWpQMdgxCH-206" style="edgeStyle=orthogonalEdgeStyle;html=1;exitX=0.5;exitY=1;exitDx=0;exitDy=0;entryX=0.5;entryY=0;entryDx=0;entryDy=0;" parent="56ZMSUlLdkVWpQMdgxCH-1" source="56ZMSUlLdkVWpQMdgxCH-207" target="56ZMSUlLdkVWpQMdgxCH-192" edge="1">
                    <mxGeometry relative="1" as="geometry"/>
                </mxCell>
                <mxCell id="56ZMSUlLdkVWpQMdgxCH-207" value="13" style="ellipse;whiteSpace=wrap;html=1;aspect=fixed;" parent="56ZMSUlLdkVWpQMdgxCH-1" vertex="1">
                    <mxGeometry x="626" y="932" width="60" height="60" as="geometry"/>
                </mxCell>
                <mxCell id="56ZMSUlLdkVWpQMdgxCH-211" value="ceil(log2(thid))" style="text;html=1;strokeColor=none;fillColor=none;align=center;verticalAlign=middle;whiteSpace=wrap;rounded=0;" parent="56ZMSUlLdkVWpQMdgxCH-1" vertex="1">
                    <mxGeometry x="538" y="1340" width="60" height="30" as="geometry"/>
                </mxCell>
                <mxCell id="56ZMSUlLdkVWpQMdgxCH-217" style="edgeStyle=orthogonalEdgeStyle;html=1;exitX=0.5;exitY=1;exitDx=0;exitDy=0;entryX=0.5;entryY=0;entryDx=0;entryDy=0;" parent="56ZMSUlLdkVWpQMdgxCH-1" source="56ZMSUlLdkVWpQMdgxCH-213" target="56ZMSUlLdkVWpQMdgxCH-214" edge="1">
                    <mxGeometry relative="1" as="geometry"/>
                </mxCell>
                <mxCell id="56ZMSUlLdkVWpQMdgxCH-213" value="22" style="ellipse;whiteSpace=wrap;html=1;aspect=fixed;" parent="56ZMSUlLdkVWpQMdgxCH-1" vertex="1">
                    <mxGeometry x="740" y="932" width="60" height="60" as="geometry"/>
                </mxCell>
                <mxCell id="56ZMSUlLdkVWpQMdgxCH-218" style="edgeStyle=orthogonalEdgeStyle;html=1;exitX=0.5;exitY=1;exitDx=0;exitDy=0;entryX=0.5;entryY=0;entryDx=0;entryDy=0;" parent="56ZMSUlLdkVWpQMdgxCH-1" source="56ZMSUlLdkVWpQMdgxCH-214" target="56ZMSUlLdkVWpQMdgxCH-215" edge="1">
                    <mxGeometry relative="1" as="geometry"/>
                </mxCell>
                <mxCell id="56ZMSUlLdkVWpQMdgxCH-214" value="23" style="ellipse;whiteSpace=wrap;html=1;aspect=fixed;" parent="56ZMSUlLdkVWpQMdgxCH-1" vertex="1">
                    <mxGeometry x="740" y="1012" width="60" height="60" as="geometry"/>
                </mxCell>
                <mxCell id="56ZMSUlLdkVWpQMdgxCH-382" style="edgeStyle=orthogonalEdgeStyle;html=1;exitX=0.5;exitY=1;exitDx=0;exitDy=0;entryX=0.5;entryY=0;entryDx=0;entryDy=0;dashed=1;" parent="56ZMSUlLdkVWpQMdgxCH-1" source="56ZMSUlLdkVWpQMdgxCH-215" target="56ZMSUlLdkVWpQMdgxCH-220" edge="1">
                    <mxGeometry relative="1" as="geometry">
                        <Array as="points">
                            <mxPoint x="770" y="1780"/>
                            <mxPoint x="64" y="1780"/>
                        </Array>
                    </mxGeometry>
                </mxCell>
                <mxCell id="56ZMSUlLdkVWpQMdgxCH-215" value="24" style="ellipse;whiteSpace=wrap;html=1;aspect=fixed;" parent="56ZMSUlLdkVWpQMdgxCH-1" vertex="1">
                    <mxGeometry x="740" y="1092" width="60" height="60" as="geometry"/>
                </mxCell>
                <mxCell id="56ZMSUlLdkVWpQMdgxCH-219" style="edgeStyle=none;html=1;exitX=1;exitY=0.5;exitDx=0;exitDy=0;entryX=0;entryY=0.5;entryDx=0;entryDy=0;" parent="56ZMSUlLdkVWpQMdgxCH-1" source="56ZMSUlLdkVWpQMdgxCH-220" target="56ZMSUlLdkVWpQMdgxCH-222" edge="1">
                    <mxGeometry relative="1" as="geometry"/>
                </mxCell>
                <mxCell id="56ZMSUlLdkVWpQMdgxCH-220" value="0" style="ellipse;whiteSpace=wrap;html=1;aspect=fixed;" parent="56ZMSUlLdkVWpQMdgxCH-1" vertex="1">
                    <mxGeometry x="34" y="1810" width="60" height="60" as="geometry"/>
                </mxCell>
                <mxCell id="56ZMSUlLdkVWpQMdgxCH-221" style="edgeStyle=none;html=1;exitX=1;exitY=0.5;exitDx=0;exitDy=0;entryX=0;entryY=0.5;entryDx=0;entryDy=0;" parent="56ZMSUlLdkVWpQMdgxCH-1" source="56ZMSUlLdkVWpQMdgxCH-222" target="56ZMSUlLdkVWpQMdgxCH-224" edge="1">
                    <mxGeometry relative="1" as="geometry"/>
                </mxCell>
                <mxCell id="56ZMSUlLdkVWpQMdgxCH-222" value="1" style="ellipse;whiteSpace=wrap;html=1;aspect=fixed;" parent="56ZMSUlLdkVWpQMdgxCH-1" vertex="1">
                    <mxGeometry x="124" y="1810" width="60" height="60" as="geometry"/>
                </mxCell>
                <mxCell id="56ZMSUlLdkVWpQMdgxCH-223" style="edgeStyle=none;html=1;exitX=1;exitY=0.5;exitDx=0;exitDy=0;entryX=0;entryY=0.5;entryDx=0;entryDy=0;" parent="56ZMSUlLdkVWpQMdgxCH-1" source="56ZMSUlLdkVWpQMdgxCH-224" target="56ZMSUlLdkVWpQMdgxCH-226" edge="1">
                    <mxGeometry relative="1" as="geometry"/>
                </mxCell>
                <mxCell id="56ZMSUlLdkVWpQMdgxCH-224" value="2" style="ellipse;whiteSpace=wrap;html=1;aspect=fixed;" parent="56ZMSUlLdkVWpQMdgxCH-1" vertex="1">
                    <mxGeometry x="204" y="1810" width="60" height="60" as="geometry"/>
                </mxCell>
                <mxCell id="56ZMSUlLdkVWpQMdgxCH-225" style="edgeStyle=none;html=1;exitX=1;exitY=0.5;exitDx=0;exitDy=0;entryX=0;entryY=0.5;entryDx=0;entryDy=0;" parent="56ZMSUlLdkVWpQMdgxCH-1" source="56ZMSUlLdkVWpQMdgxCH-226" target="56ZMSUlLdkVWpQMdgxCH-228" edge="1">
                    <mxGeometry relative="1" as="geometry"/>
                </mxCell>
                <mxCell id="56ZMSUlLdkVWpQMdgxCH-226" value="3" style="ellipse;whiteSpace=wrap;html=1;aspect=fixed;" parent="56ZMSUlLdkVWpQMdgxCH-1" vertex="1">
                    <mxGeometry x="284" y="1810" width="60" height="60" as="geometry"/>
                </mxCell>
                <mxCell id="56ZMSUlLdkVWpQMdgxCH-227" style="edgeStyle=orthogonalEdgeStyle;html=1;exitX=1;exitY=0.5;exitDx=0;exitDy=0;entryX=0;entryY=0.5;entryDx=0;entryDy=0;" parent="56ZMSUlLdkVWpQMdgxCH-1" source="56ZMSUlLdkVWpQMdgxCH-228" target="56ZMSUlLdkVWpQMdgxCH-230" edge="1">
                    <mxGeometry relative="1" as="geometry"/>
                </mxCell>
                <mxCell id="56ZMSUlLdkVWpQMdgxCH-228" value="4" style="ellipse;whiteSpace=wrap;html=1;aspect=fixed;" parent="56ZMSUlLdkVWpQMdgxCH-1" vertex="1">
                    <mxGeometry x="364" y="1810" width="60" height="60" as="geometry"/>
                </mxCell>
                <mxCell id="56ZMSUlLdkVWpQMdgxCH-229" style="edgeStyle=none;html=1;exitX=0.5;exitY=1;exitDx=0;exitDy=0;entryX=0.5;entryY=0;entryDx=0;entryDy=0;" parent="56ZMSUlLdkVWpQMdgxCH-1" source="56ZMSUlLdkVWpQMdgxCH-230" target="56ZMSUlLdkVWpQMdgxCH-232" edge="1">
                    <mxGeometry relative="1" as="geometry"/>
                </mxCell>
                <mxCell id="56ZMSUlLdkVWpQMdgxCH-230" value="5" style="ellipse;whiteSpace=wrap;html=1;aspect=fixed;" parent="56ZMSUlLdkVWpQMdgxCH-1" vertex="1">
                    <mxGeometry x="94" y="1930" width="60" height="60" as="geometry"/>
                </mxCell>
                <mxCell id="56ZMSUlLdkVWpQMdgxCH-231" style="edgeStyle=none;html=1;exitX=0.5;exitY=1;exitDx=0;exitDy=0;entryX=0.5;entryY=0;entryDx=0;entryDy=0;" parent="56ZMSUlLdkVWpQMdgxCH-1" source="56ZMSUlLdkVWpQMdgxCH-232" target="56ZMSUlLdkVWpQMdgxCH-234" edge="1">
                    <mxGeometry relative="1" as="geometry"/>
                </mxCell>
                <mxCell id="56ZMSUlLdkVWpQMdgxCH-232" value="6" style="ellipse;whiteSpace=wrap;html=1;aspect=fixed;" parent="56ZMSUlLdkVWpQMdgxCH-1" vertex="1">
                    <mxGeometry x="94" y="2020" width="60" height="60" as="geometry"/>
                </mxCell>
                <mxCell id="56ZMSUlLdkVWpQMdgxCH-233" style="edgeStyle=none;html=1;exitX=0.5;exitY=1;exitDx=0;exitDy=0;entryX=0.5;entryY=0;entryDx=0;entryDy=0;" parent="56ZMSUlLdkVWpQMdgxCH-1" source="56ZMSUlLdkVWpQMdgxCH-234" target="56ZMSUlLdkVWpQMdgxCH-236" edge="1">
                    <mxGeometry relative="1" as="geometry"/>
                </mxCell>
                <mxCell id="56ZMSUlLdkVWpQMdgxCH-234" value="7" style="ellipse;whiteSpace=wrap;html=1;aspect=fixed;" parent="56ZMSUlLdkVWpQMdgxCH-1" vertex="1">
                    <mxGeometry x="94" y="2100" width="60" height="60" as="geometry"/>
                </mxCell>
                <mxCell id="56ZMSUlLdkVWpQMdgxCH-235" style="edgeStyle=none;html=1;exitX=0.5;exitY=1;exitDx=0;exitDy=0;entryX=0.5;entryY=0;entryDx=0;entryDy=0;" parent="56ZMSUlLdkVWpQMdgxCH-1" source="56ZMSUlLdkVWpQMdgxCH-236" target="56ZMSUlLdkVWpQMdgxCH-238" edge="1">
                    <mxGeometry relative="1" as="geometry"/>
                </mxCell>
                <mxCell id="56ZMSUlLdkVWpQMdgxCH-236" value="8" style="ellipse;whiteSpace=wrap;html=1;aspect=fixed;" parent="56ZMSUlLdkVWpQMdgxCH-1" vertex="1">
                    <mxGeometry x="94" y="2180" width="60" height="60" as="geometry"/>
                </mxCell>
                <mxCell id="oy-d9OYM1ZBUbgE21aZl-0" style="edgeStyle=orthogonalEdgeStyle;rounded=0;orthogonalLoop=1;jettySize=auto;html=1;exitX=0.5;exitY=1;exitDx=0;exitDy=0;entryX=0.5;entryY=0;entryDx=0;entryDy=0;" parent="56ZMSUlLdkVWpQMdgxCH-1" source="56ZMSUlLdkVWpQMdgxCH-238" target="56ZMSUlLdkVWpQMdgxCH-240" edge="1">
                    <mxGeometry relative="1" as="geometry"/>
                </mxCell>
                <mxCell id="56ZMSUlLdkVWpQMdgxCH-238" value="9" style="ellipse;whiteSpace=wrap;html=1;aspect=fixed;" parent="56ZMSUlLdkVWpQMdgxCH-1" vertex="1">
                    <mxGeometry x="94" y="2260" width="60" height="60" as="geometry"/>
                </mxCell>
                <mxCell id="56ZMSUlLdkVWpQMdgxCH-239" style="edgeStyle=none;html=1;exitX=0.5;exitY=1;exitDx=0;exitDy=0;entryX=0.5;entryY=0;entryDx=0;entryDy=0;" parent="56ZMSUlLdkVWpQMdgxCH-1" source="56ZMSUlLdkVWpQMdgxCH-240" target="56ZMSUlLdkVWpQMdgxCH-242" edge="1">
                    <mxGeometry relative="1" as="geometry"/>
                </mxCell>
                <mxCell id="56ZMSUlLdkVWpQMdgxCH-240" value="10" style="ellipse;whiteSpace=wrap;html=1;aspect=fixed;" parent="56ZMSUlLdkVWpQMdgxCH-1" vertex="1">
                    <mxGeometry x="94" y="2366" width="60" height="60" as="geometry"/>
                </mxCell>
                <mxCell id="56ZMSUlLdkVWpQMdgxCH-241" style="edgeStyle=orthogonalEdgeStyle;html=1;exitX=0.5;exitY=1;exitDx=0;exitDy=0;entryX=0.5;entryY=0;entryDx=0;entryDy=0;" parent="56ZMSUlLdkVWpQMdgxCH-1" source="56ZMSUlLdkVWpQMdgxCH-242" target="56ZMSUlLdkVWpQMdgxCH-244" edge="1">
                    <mxGeometry relative="1" as="geometry">
                        <Array as="points">
                            <mxPoint x="124" y="2510"/>
                            <mxPoint x="169" y="2510"/>
                            <mxPoint x="169" y="1910"/>
                            <mxPoint x="214" y="1910"/>
                        </Array>
                    </mxGeometry>
                </mxCell>
                <mxCell id="56ZMSUlLdkVWpQMdgxCH-242" value="11" style="ellipse;whiteSpace=wrap;html=1;aspect=fixed;" parent="56ZMSUlLdkVWpQMdgxCH-1" vertex="1">
                    <mxGeometry x="94" y="2446" width="60" height="60" as="geometry"/>
                </mxCell>
                <mxCell id="56ZMSUlLdkVWpQMdgxCH-243" style="edgeStyle=none;html=1;exitX=0.5;exitY=1;exitDx=0;exitDy=0;entryX=0.5;entryY=0;entryDx=0;entryDy=0;" parent="56ZMSUlLdkVWpQMdgxCH-1" source="56ZMSUlLdkVWpQMdgxCH-244" target="56ZMSUlLdkVWpQMdgxCH-246" edge="1">
                    <mxGeometry relative="1" as="geometry"/>
                </mxCell>
                <mxCell id="56ZMSUlLdkVWpQMdgxCH-244" value="5" style="ellipse;whiteSpace=wrap;html=1;aspect=fixed;" parent="56ZMSUlLdkVWpQMdgxCH-1" vertex="1">
                    <mxGeometry x="184" y="1930" width="60" height="60" as="geometry"/>
                </mxCell>
                <mxCell id="56ZMSUlLdkVWpQMdgxCH-245" style="edgeStyle=none;html=1;exitX=0.5;exitY=1;exitDx=0;exitDy=0;entryX=0.5;entryY=0;entryDx=0;entryDy=0;" parent="56ZMSUlLdkVWpQMdgxCH-1" source="56ZMSUlLdkVWpQMdgxCH-246" target="56ZMSUlLdkVWpQMdgxCH-248" edge="1">
                    <mxGeometry relative="1" as="geometry"/>
                </mxCell>
                <mxCell id="56ZMSUlLdkVWpQMdgxCH-246" value="6" style="ellipse;whiteSpace=wrap;html=1;aspect=fixed;" parent="56ZMSUlLdkVWpQMdgxCH-1" vertex="1">
                    <mxGeometry x="184" y="2020" width="60" height="60" as="geometry"/>
                </mxCell>
                <mxCell id="56ZMSUlLdkVWpQMdgxCH-247" style="edgeStyle=none;html=1;exitX=0.5;exitY=1;exitDx=0;exitDy=0;entryX=0.5;entryY=0;entryDx=0;entryDy=0;" parent="56ZMSUlLdkVWpQMdgxCH-1" source="56ZMSUlLdkVWpQMdgxCH-248" target="56ZMSUlLdkVWpQMdgxCH-250" edge="1">
                    <mxGeometry relative="1" as="geometry"/>
                </mxCell>
                <mxCell id="56ZMSUlLdkVWpQMdgxCH-248" value="7" style="ellipse;whiteSpace=wrap;html=1;aspect=fixed;" parent="56ZMSUlLdkVWpQMdgxCH-1" vertex="1">
                    <mxGeometry x="184" y="2100" width="60" height="60" as="geometry"/>
                </mxCell>
                <mxCell id="56ZMSUlLdkVWpQMdgxCH-249" style="edgeStyle=none;html=1;exitX=0.5;exitY=1;exitDx=0;exitDy=0;entryX=0.5;entryY=0;entryDx=0;entryDy=0;" parent="56ZMSUlLdkVWpQMdgxCH-1" source="56ZMSUlLdkVWpQMdgxCH-250" target="56ZMSUlLdkVWpQMdgxCH-252" edge="1">
                    <mxGeometry relative="1" as="geometry"/>
                </mxCell>
                <mxCell id="56ZMSUlLdkVWpQMdgxCH-250" value="8" style="ellipse;whiteSpace=wrap;html=1;aspect=fixed;" parent="56ZMSUlLdkVWpQMdgxCH-1" vertex="1">
                    <mxGeometry x="184" y="2180" width="60" height="60" as="geometry"/>
                </mxCell>
                <mxCell id="oy-d9OYM1ZBUbgE21aZl-1" style="edgeStyle=orthogonalEdgeStyle;rounded=0;orthogonalLoop=1;jettySize=auto;html=1;exitX=0.5;exitY=1;exitDx=0;exitDy=0;entryX=0.5;entryY=0;entryDx=0;entryDy=0;" parent="56ZMSUlLdkVWpQMdgxCH-1" source="56ZMSUlLdkVWpQMdgxCH-252" target="56ZMSUlLdkVWpQMdgxCH-254" edge="1">
                    <mxGeometry relative="1" as="geometry"/>
                </mxCell>
                <mxCell id="56ZMSUlLdkVWpQMdgxCH-252" value="9" style="ellipse;whiteSpace=wrap;html=1;aspect=fixed;" parent="56ZMSUlLdkVWpQMdgxCH-1" vertex="1">
                    <mxGeometry x="184" y="2260" width="60" height="60" as="geometry"/>
                </mxCell>
                <mxCell id="56ZMSUlLdkVWpQMdgxCH-253" style="edgeStyle=none;html=1;exitX=0.5;exitY=1;exitDx=0;exitDy=0;entryX=0.5;entryY=0;entryDx=0;entryDy=0;" parent="56ZMSUlLdkVWpQMdgxCH-1" source="56ZMSUlLdkVWpQMdgxCH-254" target="56ZMSUlLdkVWpQMdgxCH-256" edge="1">
                    <mxGeometry relative="1" as="geometry"/>
                </mxCell>
                <mxCell id="56ZMSUlLdkVWpQMdgxCH-254" value="10" style="ellipse;whiteSpace=wrap;html=1;aspect=fixed;" parent="56ZMSUlLdkVWpQMdgxCH-1" vertex="1">
                    <mxGeometry x="184" y="2366" width="60" height="60" as="geometry"/>
                </mxCell>
                <mxCell id="56ZMSUlLdkVWpQMdgxCH-255" style="edgeStyle=orthogonalEdgeStyle;html=1;exitX=0.5;exitY=1;exitDx=0;exitDy=0;entryX=0.5;entryY=0;entryDx=0;entryDy=0;dashed=1;" parent="56ZMSUlLdkVWpQMdgxCH-1" source="56ZMSUlLdkVWpQMdgxCH-256" target="56ZMSUlLdkVWpQMdgxCH-258" edge="1">
                    <mxGeometry relative="1" as="geometry">
                        <Array as="points">
                            <mxPoint x="214" y="2510"/>
                            <mxPoint x="259" y="2510"/>
                            <mxPoint x="259" y="1910"/>
                            <mxPoint x="304" y="1910"/>
                        </Array>
                    </mxGeometry>
                </mxCell>
                <mxCell id="56ZMSUlLdkVWpQMdgxCH-256" value="11" style="ellipse;whiteSpace=wrap;html=1;aspect=fixed;" parent="56ZMSUlLdkVWpQMdgxCH-1" vertex="1">
                    <mxGeometry x="184" y="2446" width="60" height="60" as="geometry"/>
                </mxCell>
                <mxCell id="56ZMSUlLdkVWpQMdgxCH-257" style="edgeStyle=none;html=1;exitX=0.5;exitY=1;exitDx=0;exitDy=0;entryX=0.5;entryY=0;entryDx=0;entryDy=0;" parent="56ZMSUlLdkVWpQMdgxCH-1" source="56ZMSUlLdkVWpQMdgxCH-258" target="56ZMSUlLdkVWpQMdgxCH-260" edge="1">
                    <mxGeometry relative="1" as="geometry"/>
                </mxCell>
                <mxCell id="56ZMSUlLdkVWpQMdgxCH-258" value="5" style="ellipse;whiteSpace=wrap;html=1;aspect=fixed;" parent="56ZMSUlLdkVWpQMdgxCH-1" vertex="1">
                    <mxGeometry x="274" y="1930" width="60" height="60" as="geometry"/>
                </mxCell>
                <mxCell id="56ZMSUlLdkVWpQMdgxCH-259" style="edgeStyle=none;html=1;exitX=0.5;exitY=1;exitDx=0;exitDy=0;entryX=0.5;entryY=0;entryDx=0;entryDy=0;" parent="56ZMSUlLdkVWpQMdgxCH-1" source="56ZMSUlLdkVWpQMdgxCH-260" target="56ZMSUlLdkVWpQMdgxCH-262" edge="1">
                    <mxGeometry relative="1" as="geometry"/>
                </mxCell>
                <mxCell id="56ZMSUlLdkVWpQMdgxCH-260" value="6" style="ellipse;whiteSpace=wrap;html=1;aspect=fixed;" parent="56ZMSUlLdkVWpQMdgxCH-1" vertex="1">
                    <mxGeometry x="274" y="2020" width="60" height="60" as="geometry"/>
                </mxCell>
                <mxCell id="56ZMSUlLdkVWpQMdgxCH-261" style="edgeStyle=none;html=1;exitX=0.5;exitY=1;exitDx=0;exitDy=0;entryX=0.5;entryY=0;entryDx=0;entryDy=0;" parent="56ZMSUlLdkVWpQMdgxCH-1" source="56ZMSUlLdkVWpQMdgxCH-262" target="56ZMSUlLdkVWpQMdgxCH-264" edge="1">
                    <mxGeometry relative="1" as="geometry"/>
                </mxCell>
                <mxCell id="56ZMSUlLdkVWpQMdgxCH-262" value="7" style="ellipse;whiteSpace=wrap;html=1;aspect=fixed;" parent="56ZMSUlLdkVWpQMdgxCH-1" vertex="1">
                    <mxGeometry x="274" y="2100" width="60" height="60" as="geometry"/>
                </mxCell>
                <mxCell id="56ZMSUlLdkVWpQMdgxCH-263" style="edgeStyle=none;html=1;exitX=0.5;exitY=1;exitDx=0;exitDy=0;entryX=0.5;entryY=0;entryDx=0;entryDy=0;" parent="56ZMSUlLdkVWpQMdgxCH-1" source="56ZMSUlLdkVWpQMdgxCH-264" target="56ZMSUlLdkVWpQMdgxCH-266" edge="1">
                    <mxGeometry relative="1" as="geometry"/>
                </mxCell>
                <mxCell id="56ZMSUlLdkVWpQMdgxCH-264" value="8" style="ellipse;whiteSpace=wrap;html=1;aspect=fixed;" parent="56ZMSUlLdkVWpQMdgxCH-1" vertex="1">
                    <mxGeometry x="274" y="2180" width="60" height="60" as="geometry"/>
                </mxCell>
                <mxCell id="oy-d9OYM1ZBUbgE21aZl-2" style="edgeStyle=orthogonalEdgeStyle;rounded=0;orthogonalLoop=1;jettySize=auto;html=1;exitX=0.5;exitY=1;exitDx=0;exitDy=0;entryX=0.5;entryY=0;entryDx=0;entryDy=0;" parent="56ZMSUlLdkVWpQMdgxCH-1" source="56ZMSUlLdkVWpQMdgxCH-266" target="56ZMSUlLdkVWpQMdgxCH-268" edge="1">
                    <mxGeometry relative="1" as="geometry"/>
                </mxCell>
                <mxCell id="56ZMSUlLdkVWpQMdgxCH-266" value="9" style="ellipse;whiteSpace=wrap;html=1;aspect=fixed;" parent="56ZMSUlLdkVWpQMdgxCH-1" vertex="1">
                    <mxGeometry x="274" y="2260" width="60" height="60" as="geometry"/>
                </mxCell>
                <mxCell id="56ZMSUlLdkVWpQMdgxCH-267" style="edgeStyle=none;html=1;exitX=0.5;exitY=1;exitDx=0;exitDy=0;entryX=0.5;entryY=0;entryDx=0;entryDy=0;" parent="56ZMSUlLdkVWpQMdgxCH-1" source="56ZMSUlLdkVWpQMdgxCH-268" target="56ZMSUlLdkVWpQMdgxCH-270" edge="1">
                    <mxGeometry relative="1" as="geometry"/>
                </mxCell>
                <mxCell id="56ZMSUlLdkVWpQMdgxCH-268" value="10" style="ellipse;whiteSpace=wrap;html=1;aspect=fixed;" parent="56ZMSUlLdkVWpQMdgxCH-1" vertex="1">
                    <mxGeometry x="274" y="2366" width="60" height="60" as="geometry"/>
                </mxCell>
                <mxCell id="56ZMSUlLdkVWpQMdgxCH-269" style="edgeStyle=orthogonalEdgeStyle;html=1;exitX=0.5;exitY=1;exitDx=0;exitDy=0;entryX=0.5;entryY=0;entryDx=0;entryDy=0;" parent="56ZMSUlLdkVWpQMdgxCH-1" source="56ZMSUlLdkVWpQMdgxCH-270" target="56ZMSUlLdkVWpQMdgxCH-272" edge="1">
                    <mxGeometry relative="1" as="geometry">
                        <Array as="points">
                            <mxPoint x="304" y="2490"/>
                            <mxPoint x="369" y="2490"/>
                            <mxPoint x="369" y="1910"/>
                            <mxPoint x="434" y="1910"/>
                        </Array>
                    </mxGeometry>
                </mxCell>
                <mxCell id="56ZMSUlLdkVWpQMdgxCH-270" value="11" style="ellipse;whiteSpace=wrap;html=1;aspect=fixed;" parent="56ZMSUlLdkVWpQMdgxCH-1" vertex="1">
                    <mxGeometry x="274" y="2446" width="60" height="60" as="geometry"/>
                </mxCell>
                <mxCell id="56ZMSUlLdkVWpQMdgxCH-271" style="edgeStyle=none;html=1;exitX=0.5;exitY=1;exitDx=0;exitDy=0;entryX=0.5;entryY=0;entryDx=0;entryDy=0;" parent="56ZMSUlLdkVWpQMdgxCH-1" source="56ZMSUlLdkVWpQMdgxCH-272" target="56ZMSUlLdkVWpQMdgxCH-274" edge="1">
                    <mxGeometry relative="1" as="geometry"/>
                </mxCell>
                <mxCell id="56ZMSUlLdkVWpQMdgxCH-272" value="5" style="ellipse;whiteSpace=wrap;html=1;aspect=fixed;" parent="56ZMSUlLdkVWpQMdgxCH-1" vertex="1">
                    <mxGeometry x="404" y="1930" width="60" height="60" as="geometry"/>
                </mxCell>
                <mxCell id="56ZMSUlLdkVWpQMdgxCH-273" style="edgeStyle=orthogonalEdgeStyle;html=1;exitX=0.5;exitY=1;exitDx=0;exitDy=0;entryX=0.5;entryY=0;entryDx=0;entryDy=0;" parent="56ZMSUlLdkVWpQMdgxCH-1" source="56ZMSUlLdkVWpQMdgxCH-274" target="56ZMSUlLdkVWpQMdgxCH-276" edge="1">
                    <mxGeometry relative="1" as="geometry"/>
                </mxCell>
                <mxCell id="56ZMSUlLdkVWpQMdgxCH-274" value="6" style="ellipse;whiteSpace=wrap;html=1;aspect=fixed;" parent="56ZMSUlLdkVWpQMdgxCH-1" vertex="1">
                    <mxGeometry x="404" y="2020" width="60" height="60" as="geometry"/>
                </mxCell>
                <mxCell id="56ZMSUlLdkVWpQMdgxCH-275" style="edgeStyle=orthogonalEdgeStyle;html=1;exitX=0.5;exitY=1;exitDx=0;exitDy=0;entryX=0.5;entryY=0;entryDx=0;entryDy=0;" parent="56ZMSUlLdkVWpQMdgxCH-1" source="56ZMSUlLdkVWpQMdgxCH-276" target="56ZMSUlLdkVWpQMdgxCH-278" edge="1">
                    <mxGeometry relative="1" as="geometry">
                        <Array as="points">
                            <mxPoint x="434" y="2510"/>
                            <mxPoint x="474" y="2510"/>
                            <mxPoint x="474" y="1910"/>
                            <mxPoint x="514" y="1910"/>
                        </Array>
                    </mxGeometry>
                </mxCell>
                <mxCell id="56ZMSUlLdkVWpQMdgxCH-276" value="11" style="ellipse;whiteSpace=wrap;html=1;aspect=fixed;" parent="56ZMSUlLdkVWpQMdgxCH-1" vertex="1">
                    <mxGeometry x="404" y="2446" width="60" height="60" as="geometry"/>
                </mxCell>
                <mxCell id="56ZMSUlLdkVWpQMdgxCH-277" style="edgeStyle=none;html=1;exitX=0.5;exitY=1;exitDx=0;exitDy=0;entryX=0.5;entryY=0;entryDx=0;entryDy=0;" parent="56ZMSUlLdkVWpQMdgxCH-1" source="56ZMSUlLdkVWpQMdgxCH-278" target="56ZMSUlLdkVWpQMdgxCH-280" edge="1">
                    <mxGeometry relative="1" as="geometry"/>
                </mxCell>
                <mxCell id="56ZMSUlLdkVWpQMdgxCH-278" value="5" style="ellipse;whiteSpace=wrap;html=1;aspect=fixed;" parent="56ZMSUlLdkVWpQMdgxCH-1" vertex="1">
                    <mxGeometry x="484" y="1930" width="60" height="60" as="geometry"/>
                </mxCell>
                <mxCell id="56ZMSUlLdkVWpQMdgxCH-279" style="edgeStyle=orthogonalEdgeStyle;html=1;exitX=0.5;exitY=1;exitDx=0;exitDy=0;entryX=0.5;entryY=0;entryDx=0;entryDy=0;" parent="56ZMSUlLdkVWpQMdgxCH-1" source="56ZMSUlLdkVWpQMdgxCH-280" target="56ZMSUlLdkVWpQMdgxCH-282" edge="1">
                    <mxGeometry relative="1" as="geometry"/>
                </mxCell>
                <mxCell id="56ZMSUlLdkVWpQMdgxCH-280" value="6" style="ellipse;whiteSpace=wrap;html=1;aspect=fixed;" parent="56ZMSUlLdkVWpQMdgxCH-1" vertex="1">
                    <mxGeometry x="484" y="2020" width="60" height="60" as="geometry"/>
                </mxCell>
                <mxCell id="56ZMSUlLdkVWpQMdgxCH-281" style="edgeStyle=orthogonalEdgeStyle;html=1;exitX=0.5;exitY=1;exitDx=0;exitDy=0;entryX=0.5;entryY=0;entryDx=0;entryDy=0;dashed=1;" parent="56ZMSUlLdkVWpQMdgxCH-1" source="56ZMSUlLdkVWpQMdgxCH-282" target="56ZMSUlLdkVWpQMdgxCH-284" edge="1">
                    <mxGeometry relative="1" as="geometry">
                        <Array as="points">
                            <mxPoint x="514" y="2510"/>
                            <mxPoint x="554" y="2510"/>
                            <mxPoint x="554" y="1910"/>
                            <mxPoint x="594" y="1910"/>
                        </Array>
                    </mxGeometry>
                </mxCell>
                <mxCell id="56ZMSUlLdkVWpQMdgxCH-282" value="11" style="ellipse;whiteSpace=wrap;html=1;aspect=fixed;" parent="56ZMSUlLdkVWpQMdgxCH-1" vertex="1">
                    <mxGeometry x="484" y="2446" width="60" height="60" as="geometry"/>
                </mxCell>
                <mxCell id="56ZMSUlLdkVWpQMdgxCH-283" style="edgeStyle=none;html=1;exitX=0.5;exitY=1;exitDx=0;exitDy=0;entryX=0.5;entryY=0;entryDx=0;entryDy=0;" parent="56ZMSUlLdkVWpQMdgxCH-1" source="56ZMSUlLdkVWpQMdgxCH-284" target="56ZMSUlLdkVWpQMdgxCH-286" edge="1">
                    <mxGeometry relative="1" as="geometry"/>
                </mxCell>
                <mxCell id="56ZMSUlLdkVWpQMdgxCH-284" value="5" style="ellipse;whiteSpace=wrap;html=1;aspect=fixed;" parent="56ZMSUlLdkVWpQMdgxCH-1" vertex="1">
                    <mxGeometry x="564" y="1930" width="60" height="60" as="geometry"/>
                </mxCell>
                <mxCell id="56ZMSUlLdkVWpQMdgxCH-285" style="edgeStyle=orthogonalEdgeStyle;html=1;exitX=0.5;exitY=1;exitDx=0;exitDy=0;entryX=0.5;entryY=0;entryDx=0;entryDy=0;" parent="56ZMSUlLdkVWpQMdgxCH-1" source="56ZMSUlLdkVWpQMdgxCH-286" target="56ZMSUlLdkVWpQMdgxCH-288" edge="1">
                    <mxGeometry relative="1" as="geometry"/>
                </mxCell>
                <mxCell id="56ZMSUlLdkVWpQMdgxCH-286" value="6" style="ellipse;whiteSpace=wrap;html=1;aspect=fixed;" parent="56ZMSUlLdkVWpQMdgxCH-1" vertex="1">
                    <mxGeometry x="564" y="2020" width="60" height="60" as="geometry"/>
                </mxCell>
                <mxCell id="56ZMSUlLdkVWpQMdgxCH-287" style="edgeStyle=orthogonalEdgeStyle;html=1;exitX=0.5;exitY=1;exitDx=0;exitDy=0;entryX=0.5;entryY=0;entryDx=0;entryDy=0;" parent="56ZMSUlLdkVWpQMdgxCH-1" source="56ZMSUlLdkVWpQMdgxCH-288" target="56ZMSUlLdkVWpQMdgxCH-294" edge="1">
                    <mxGeometry relative="1" as="geometry">
                        <Array as="points">
                            <mxPoint x="594" y="2620"/>
                            <mxPoint x="80" y="2620"/>
                            <mxPoint x="80" y="2640"/>
                            <mxPoint x="84" y="2640"/>
                        </Array>
                    </mxGeometry>
                </mxCell>
                <mxCell id="56ZMSUlLdkVWpQMdgxCH-288" value="11" style="ellipse;whiteSpace=wrap;html=1;aspect=fixed;" parent="56ZMSUlLdkVWpQMdgxCH-1" vertex="1">
                    <mxGeometry x="564" y="2446" width="60" height="60" as="geometry"/>
                </mxCell>
                <mxCell id="56ZMSUlLdkVWpQMdgxCH-289" value="" style="shape=partialRectangle;whiteSpace=wrap;html=1;bottom=1;right=1;left=1;top=0;fillColor=none;routingCenterX=-0.5;" parent="56ZMSUlLdkVWpQMdgxCH-1" vertex="1">
                    <mxGeometry x="102.5" y="2546" width="223" height="10" as="geometry"/>
                </mxCell>
                <mxCell id="56ZMSUlLdkVWpQMdgxCH-290" value="ceil(log2(n)-log2(thid))" style="text;html=1;align=center;verticalAlign=middle;resizable=0;points=[];autosize=1;strokeColor=none;fillColor=none;" parent="56ZMSUlLdkVWpQMdgxCH-1" vertex="1">
                    <mxGeometry x="139" y="2566" width="130" height="20" as="geometry"/>
                </mxCell>
                <mxCell id="56ZMSUlLdkVWpQMdgxCH-291" value="ceil(log2(thid))" style="text;html=1;align=center;verticalAlign=middle;resizable=0;points=[];autosize=1;strokeColor=none;fillColor=none;" parent="56ZMSUlLdkVWpQMdgxCH-1" vertex="1">
                    <mxGeometry x="469" y="2566" width="90" height="20" as="geometry"/>
                </mxCell>
                <mxCell id="56ZMSUlLdkVWpQMdgxCH-292" value="" style="shape=partialRectangle;whiteSpace=wrap;html=1;bottom=1;right=1;left=1;top=0;fillColor=none;routingCenterX=-0.5;" parent="56ZMSUlLdkVWpQMdgxCH-1" vertex="1">
                    <mxGeometry x="394" y="2546" width="223" height="10" as="geometry"/>
                </mxCell>
                <mxCell id="56ZMSUlLdkVWpQMdgxCH-293" style="edgeStyle=orthogonalEdgeStyle;html=1;exitX=1;exitY=0.5;exitDx=0;exitDy=0;entryX=0;entryY=0.5;entryDx=0;entryDy=0;" parent="56ZMSUlLdkVWpQMdgxCH-1" source="56ZMSUlLdkVWpQMdgxCH-294" target="56ZMSUlLdkVWpQMdgxCH-296" edge="1">
                    <mxGeometry relative="1" as="geometry"/>
                </mxCell>
                <mxCell id="56ZMSUlLdkVWpQMdgxCH-294" value="12" style="ellipse;whiteSpace=wrap;html=1;aspect=fixed;" parent="56ZMSUlLdkVWpQMdgxCH-1" vertex="1">
                    <mxGeometry x="54" y="2670" width="60" height="60" as="geometry"/>
                </mxCell>
                <mxCell id="56ZMSUlLdkVWpQMdgxCH-295" style="edgeStyle=orthogonalEdgeStyle;html=1;exitX=0.5;exitY=1;exitDx=0;exitDy=0;entryX=0.5;entryY=0;entryDx=0;entryDy=0;" parent="56ZMSUlLdkVWpQMdgxCH-1" source="56ZMSUlLdkVWpQMdgxCH-296" target="56ZMSUlLdkVWpQMdgxCH-298" edge="1">
                    <mxGeometry relative="1" as="geometry"/>
                </mxCell>
                <mxCell id="56ZMSUlLdkVWpQMdgxCH-296" value="13" style="ellipse;whiteSpace=wrap;html=1;aspect=fixed;" parent="56ZMSUlLdkVWpQMdgxCH-1" vertex="1">
                    <mxGeometry x="134" y="2670" width="60" height="60" as="geometry"/>
                </mxCell>
                <mxCell id="56ZMSUlLdkVWpQMdgxCH-297" style="edgeStyle=orthogonalEdgeStyle;html=1;exitX=0.5;exitY=1;exitDx=0;exitDy=0;entryX=0.5;entryY=0;entryDx=0;entryDy=0;" parent="56ZMSUlLdkVWpQMdgxCH-1" source="56ZMSUlLdkVWpQMdgxCH-298" target="56ZMSUlLdkVWpQMdgxCH-300" edge="1">
                    <mxGeometry relative="1" as="geometry"/>
                </mxCell>
                <mxCell id="56ZMSUlLdkVWpQMdgxCH-298" value="14" style="ellipse;whiteSpace=wrap;html=1;aspect=fixed;" parent="56ZMSUlLdkVWpQMdgxCH-1" vertex="1">
                    <mxGeometry x="134" y="2750" width="60" height="60" as="geometry"/>
                </mxCell>
                <mxCell id="56ZMSUlLdkVWpQMdgxCH-299" style="edgeStyle=orthogonalEdgeStyle;html=1;exitX=0.5;exitY=1;exitDx=0;exitDy=0;entryX=0.5;entryY=0;entryDx=0;entryDy=0;" parent="56ZMSUlLdkVWpQMdgxCH-1" source="56ZMSUlLdkVWpQMdgxCH-300" target="56ZMSUlLdkVWpQMdgxCH-302" edge="1">
                    <mxGeometry relative="1" as="geometry"/>
                </mxCell>
                <mxCell id="56ZMSUlLdkVWpQMdgxCH-300" value="15" style="ellipse;whiteSpace=wrap;html=1;aspect=fixed;" parent="56ZMSUlLdkVWpQMdgxCH-1" vertex="1">
                    <mxGeometry x="134" y="2830" width="60" height="60" as="geometry"/>
                </mxCell>
                <mxCell id="56ZMSUlLdkVWpQMdgxCH-301" style="edgeStyle=orthogonalEdgeStyle;html=1;exitX=0.5;exitY=1;exitDx=0;exitDy=0;entryX=0.5;entryY=0;entryDx=0;entryDy=0;" parent="56ZMSUlLdkVWpQMdgxCH-1" source="56ZMSUlLdkVWpQMdgxCH-302" target="56ZMSUlLdkVWpQMdgxCH-304" edge="1">
                    <mxGeometry relative="1" as="geometry"/>
                </mxCell>
                <mxCell id="56ZMSUlLdkVWpQMdgxCH-302" value="16" style="ellipse;whiteSpace=wrap;html=1;aspect=fixed;" parent="56ZMSUlLdkVWpQMdgxCH-1" vertex="1">
                    <mxGeometry x="134" y="2910" width="60" height="60" as="geometry"/>
                </mxCell>
                <mxCell id="56ZMSUlLdkVWpQMdgxCH-303" style="edgeStyle=orthogonalEdgeStyle;html=1;exitX=0.5;exitY=1;exitDx=0;exitDy=0;entryX=0.5;entryY=0;entryDx=0;entryDy=0;" parent="56ZMSUlLdkVWpQMdgxCH-1" source="56ZMSUlLdkVWpQMdgxCH-304" target="56ZMSUlLdkVWpQMdgxCH-306" edge="1">
                    <mxGeometry relative="1" as="geometry"/>
                </mxCell>
                <mxCell id="56ZMSUlLdkVWpQMdgxCH-304" value="17" style="ellipse;whiteSpace=wrap;html=1;aspect=fixed;" parent="56ZMSUlLdkVWpQMdgxCH-1" vertex="1">
                    <mxGeometry x="134" y="2990" width="60" height="60" as="geometry"/>
                </mxCell>
                <mxCell id="56ZMSUlLdkVWpQMdgxCH-305" style="edgeStyle=orthogonalEdgeStyle;html=1;exitX=0.5;exitY=1;exitDx=0;exitDy=0;entryX=0.5;entryY=0;entryDx=0;entryDy=0;" parent="56ZMSUlLdkVWpQMdgxCH-1" source="56ZMSUlLdkVWpQMdgxCH-306" target="56ZMSUlLdkVWpQMdgxCH-308" edge="1">
                    <mxGeometry relative="1" as="geometry"/>
                </mxCell>
                <mxCell id="56ZMSUlLdkVWpQMdgxCH-306" value="18" style="ellipse;whiteSpace=wrap;html=1;aspect=fixed;" parent="56ZMSUlLdkVWpQMdgxCH-1" vertex="1">
                    <mxGeometry x="134" y="3070" width="60" height="60" as="geometry"/>
                </mxCell>
                <mxCell id="56ZMSUlLdkVWpQMdgxCH-307" style="edgeStyle=orthogonalEdgeStyle;html=1;exitX=0.5;exitY=1;exitDx=0;exitDy=0;entryX=0.5;entryY=0;entryDx=0;entryDy=0;" parent="56ZMSUlLdkVWpQMdgxCH-1" source="56ZMSUlLdkVWpQMdgxCH-308" target="56ZMSUlLdkVWpQMdgxCH-310" edge="1">
                    <mxGeometry relative="1" as="geometry"/>
                </mxCell>
                <mxCell id="56ZMSUlLdkVWpQMdgxCH-308" value="19" style="ellipse;whiteSpace=wrap;html=1;aspect=fixed;" parent="56ZMSUlLdkVWpQMdgxCH-1" vertex="1">
                    <mxGeometry x="134" y="3150" width="60" height="60" as="geometry"/>
                </mxCell>
                <mxCell id="56ZMSUlLdkVWpQMdgxCH-309" style="edgeStyle=orthogonalEdgeStyle;html=1;exitX=0.5;exitY=1;exitDx=0;exitDy=0;entryX=0.5;entryY=0;entryDx=0;entryDy=0;" parent="56ZMSUlLdkVWpQMdgxCH-1" source="56ZMSUlLdkVWpQMdgxCH-310" target="56ZMSUlLdkVWpQMdgxCH-312" edge="1">
                    <mxGeometry relative="1" as="geometry"/>
                </mxCell>
                <mxCell id="56ZMSUlLdkVWpQMdgxCH-310" value="20" style="ellipse;whiteSpace=wrap;html=1;aspect=fixed;" parent="56ZMSUlLdkVWpQMdgxCH-1" vertex="1">
                    <mxGeometry x="134" y="3230" width="60" height="60" as="geometry"/>
                </mxCell>
                <mxCell id="56ZMSUlLdkVWpQMdgxCH-311" style="edgeStyle=orthogonalEdgeStyle;html=1;exitX=0.5;exitY=1;exitDx=0;exitDy=0;entryX=0.5;entryY=0;entryDx=0;entryDy=0;" parent="56ZMSUlLdkVWpQMdgxCH-1" source="56ZMSUlLdkVWpQMdgxCH-312" target="56ZMSUlLdkVWpQMdgxCH-330" edge="1">
                    <mxGeometry relative="1" as="geometry">
                        <Array as="points">
                            <mxPoint x="164" y="3380"/>
                            <mxPoint x="208" y="3380"/>
                            <mxPoint x="208" y="2650"/>
                            <mxPoint x="252" y="2650"/>
                        </Array>
                    </mxGeometry>
                </mxCell>
                <mxCell id="56ZMSUlLdkVWpQMdgxCH-312" value="21" style="ellipse;whiteSpace=wrap;html=1;aspect=fixed;" parent="56ZMSUlLdkVWpQMdgxCH-1" vertex="1">
                    <mxGeometry x="134" y="3310" width="60" height="60" as="geometry"/>
                </mxCell>
                <mxCell id="56ZMSUlLdkVWpQMdgxCH-313" style="edgeStyle=orthogonalEdgeStyle;html=1;exitX=0.5;exitY=1;exitDx=0;exitDy=0;entryX=0.5;entryY=0;entryDx=0;entryDy=0;" parent="56ZMSUlLdkVWpQMdgxCH-1" source="56ZMSUlLdkVWpQMdgxCH-314" target="56ZMSUlLdkVWpQMdgxCH-316" edge="1">
                    <mxGeometry relative="1" as="geometry"/>
                </mxCell>
                <mxCell id="56ZMSUlLdkVWpQMdgxCH-314" value="14" style="ellipse;whiteSpace=wrap;html=1;aspect=fixed;" parent="56ZMSUlLdkVWpQMdgxCH-1" vertex="1">
                    <mxGeometry x="222" y="2750" width="60" height="60" as="geometry"/>
                </mxCell>
                <mxCell id="56ZMSUlLdkVWpQMdgxCH-315" style="edgeStyle=orthogonalEdgeStyle;html=1;exitX=0.5;exitY=1;exitDx=0;exitDy=0;entryX=0.5;entryY=0;entryDx=0;entryDy=0;" parent="56ZMSUlLdkVWpQMdgxCH-1" source="56ZMSUlLdkVWpQMdgxCH-316" target="56ZMSUlLdkVWpQMdgxCH-318" edge="1">
                    <mxGeometry relative="1" as="geometry"/>
                </mxCell>
                <mxCell id="56ZMSUlLdkVWpQMdgxCH-316" value="15" style="ellipse;whiteSpace=wrap;html=1;aspect=fixed;" parent="56ZMSUlLdkVWpQMdgxCH-1" vertex="1">
                    <mxGeometry x="222" y="2830" width="60" height="60" as="geometry"/>
                </mxCell>
                <mxCell id="56ZMSUlLdkVWpQMdgxCH-317" style="edgeStyle=orthogonalEdgeStyle;html=1;exitX=0.5;exitY=1;exitDx=0;exitDy=0;entryX=0.5;entryY=0;entryDx=0;entryDy=0;" parent="56ZMSUlLdkVWpQMdgxCH-1" source="56ZMSUlLdkVWpQMdgxCH-318" target="56ZMSUlLdkVWpQMdgxCH-320" edge="1">
                    <mxGeometry relative="1" as="geometry"/>
                </mxCell>
                <mxCell id="56ZMSUlLdkVWpQMdgxCH-318" value="16" style="ellipse;whiteSpace=wrap;html=1;aspect=fixed;" parent="56ZMSUlLdkVWpQMdgxCH-1" vertex="1">
                    <mxGeometry x="222" y="2910" width="60" height="60" as="geometry"/>
                </mxCell>
                <mxCell id="56ZMSUlLdkVWpQMdgxCH-319" style="edgeStyle=orthogonalEdgeStyle;html=1;exitX=0.5;exitY=1;exitDx=0;exitDy=0;entryX=0.5;entryY=0;entryDx=0;entryDy=0;" parent="56ZMSUlLdkVWpQMdgxCH-1" source="56ZMSUlLdkVWpQMdgxCH-320" target="56ZMSUlLdkVWpQMdgxCH-322" edge="1">
                    <mxGeometry relative="1" as="geometry"/>
                </mxCell>
                <mxCell id="56ZMSUlLdkVWpQMdgxCH-320" value="17" style="ellipse;whiteSpace=wrap;html=1;aspect=fixed;" parent="56ZMSUlLdkVWpQMdgxCH-1" vertex="1">
                    <mxGeometry x="222" y="2990" width="60" height="60" as="geometry"/>
                </mxCell>
                <mxCell id="56ZMSUlLdkVWpQMdgxCH-321" style="edgeStyle=orthogonalEdgeStyle;html=1;exitX=0.5;exitY=1;exitDx=0;exitDy=0;entryX=0.5;entryY=0;entryDx=0;entryDy=0;" parent="56ZMSUlLdkVWpQMdgxCH-1" source="56ZMSUlLdkVWpQMdgxCH-322" target="56ZMSUlLdkVWpQMdgxCH-324" edge="1">
                    <mxGeometry relative="1" as="geometry"/>
                </mxCell>
                <mxCell id="56ZMSUlLdkVWpQMdgxCH-322" value="18" style="ellipse;whiteSpace=wrap;html=1;aspect=fixed;" parent="56ZMSUlLdkVWpQMdgxCH-1" vertex="1">
                    <mxGeometry x="222" y="3070" width="60" height="60" as="geometry"/>
                </mxCell>
                <mxCell id="56ZMSUlLdkVWpQMdgxCH-323" style="edgeStyle=orthogonalEdgeStyle;html=1;exitX=0.5;exitY=1;exitDx=0;exitDy=0;entryX=0.5;entryY=0;entryDx=0;entryDy=0;" parent="56ZMSUlLdkVWpQMdgxCH-1" source="56ZMSUlLdkVWpQMdgxCH-324" target="56ZMSUlLdkVWpQMdgxCH-326" edge="1">
                    <mxGeometry relative="1" as="geometry"/>
                </mxCell>
                <mxCell id="56ZMSUlLdkVWpQMdgxCH-324" value="19" style="ellipse;whiteSpace=wrap;html=1;aspect=fixed;" parent="56ZMSUlLdkVWpQMdgxCH-1" vertex="1">
                    <mxGeometry x="222" y="3150" width="60" height="60" as="geometry"/>
                </mxCell>
                <mxCell id="56ZMSUlLdkVWpQMdgxCH-325" style="edgeStyle=orthogonalEdgeStyle;html=1;exitX=0.5;exitY=1;exitDx=0;exitDy=0;entryX=0.5;entryY=0;entryDx=0;entryDy=0;" parent="56ZMSUlLdkVWpQMdgxCH-1" source="56ZMSUlLdkVWpQMdgxCH-326" target="56ZMSUlLdkVWpQMdgxCH-328" edge="1">
                    <mxGeometry relative="1" as="geometry"/>
                </mxCell>
                <mxCell id="56ZMSUlLdkVWpQMdgxCH-326" value="20" style="ellipse;whiteSpace=wrap;html=1;aspect=fixed;" parent="56ZMSUlLdkVWpQMdgxCH-1" vertex="1">
                    <mxGeometry x="222" y="3230" width="60" height="60" as="geometry"/>
                </mxCell>
                <mxCell id="56ZMSUlLdkVWpQMdgxCH-327" style="edgeStyle=orthogonalEdgeStyle;html=1;exitX=0.5;exitY=1;exitDx=0;exitDy=0;entryX=0.5;entryY=0;entryDx=0;entryDy=0;dashed=1;" parent="56ZMSUlLdkVWpQMdgxCH-1" source="56ZMSUlLdkVWpQMdgxCH-328" target="56ZMSUlLdkVWpQMdgxCH-348" edge="1">
                    <mxGeometry relative="1" as="geometry">
                        <Array as="points">
                            <mxPoint x="252" y="3380"/>
                            <mxPoint x="296" y="3380"/>
                            <mxPoint x="296" y="2650"/>
                            <mxPoint x="340" y="2650"/>
                        </Array>
                    </mxGeometry>
                </mxCell>
                <mxCell id="56ZMSUlLdkVWpQMdgxCH-328" value="21" style="ellipse;whiteSpace=wrap;html=1;aspect=fixed;" parent="56ZMSUlLdkVWpQMdgxCH-1" vertex="1">
                    <mxGeometry x="222" y="3310" width="60" height="60" as="geometry"/>
                </mxCell>
                <mxCell id="56ZMSUlLdkVWpQMdgxCH-329" style="edgeStyle=orthogonalEdgeStyle;html=1;exitX=0.5;exitY=1;exitDx=0;exitDy=0;entryX=0.5;entryY=0;entryDx=0;entryDy=0;" parent="56ZMSUlLdkVWpQMdgxCH-1" source="56ZMSUlLdkVWpQMdgxCH-330" target="56ZMSUlLdkVWpQMdgxCH-314" edge="1">
                    <mxGeometry relative="1" as="geometry"/>
                </mxCell>
                <mxCell id="56ZMSUlLdkVWpQMdgxCH-330" value="13" style="ellipse;whiteSpace=wrap;html=1;aspect=fixed;" parent="56ZMSUlLdkVWpQMdgxCH-1" vertex="1">
                    <mxGeometry x="222" y="2670" width="60" height="60" as="geometry"/>
                </mxCell>
                <mxCell id="56ZMSUlLdkVWpQMdgxCH-331" style="edgeStyle=orthogonalEdgeStyle;html=1;exitX=0.5;exitY=1;exitDx=0;exitDy=0;entryX=0.5;entryY=0;entryDx=0;entryDy=0;" parent="56ZMSUlLdkVWpQMdgxCH-1" source="56ZMSUlLdkVWpQMdgxCH-332" target="56ZMSUlLdkVWpQMdgxCH-334" edge="1">
                    <mxGeometry relative="1" as="geometry"/>
                </mxCell>
                <mxCell id="56ZMSUlLdkVWpQMdgxCH-332" value="14" style="ellipse;whiteSpace=wrap;html=1;aspect=fixed;" parent="56ZMSUlLdkVWpQMdgxCH-1" vertex="1">
                    <mxGeometry x="310" y="2750" width="60" height="60" as="geometry"/>
                </mxCell>
                <mxCell id="56ZMSUlLdkVWpQMdgxCH-333" style="edgeStyle=orthogonalEdgeStyle;html=1;exitX=0.5;exitY=1;exitDx=0;exitDy=0;entryX=0.5;entryY=0;entryDx=0;entryDy=0;" parent="56ZMSUlLdkVWpQMdgxCH-1" source="56ZMSUlLdkVWpQMdgxCH-334" target="56ZMSUlLdkVWpQMdgxCH-336" edge="1">
                    <mxGeometry relative="1" as="geometry"/>
                </mxCell>
                <mxCell id="56ZMSUlLdkVWpQMdgxCH-334" value="15" style="ellipse;whiteSpace=wrap;html=1;aspect=fixed;" parent="56ZMSUlLdkVWpQMdgxCH-1" vertex="1">
                    <mxGeometry x="310" y="2830" width="60" height="60" as="geometry"/>
                </mxCell>
                <mxCell id="56ZMSUlLdkVWpQMdgxCH-335" style="edgeStyle=orthogonalEdgeStyle;html=1;exitX=0.5;exitY=1;exitDx=0;exitDy=0;entryX=0.5;entryY=0;entryDx=0;entryDy=0;" parent="56ZMSUlLdkVWpQMdgxCH-1" source="56ZMSUlLdkVWpQMdgxCH-336" target="56ZMSUlLdkVWpQMdgxCH-338" edge="1">
                    <mxGeometry relative="1" as="geometry"/>
                </mxCell>
                <mxCell id="56ZMSUlLdkVWpQMdgxCH-336" value="16" style="ellipse;whiteSpace=wrap;html=1;aspect=fixed;" parent="56ZMSUlLdkVWpQMdgxCH-1" vertex="1">
                    <mxGeometry x="310" y="2910" width="60" height="60" as="geometry"/>
                </mxCell>
                <mxCell id="56ZMSUlLdkVWpQMdgxCH-337" style="edgeStyle=orthogonalEdgeStyle;html=1;exitX=0.5;exitY=1;exitDx=0;exitDy=0;entryX=0.5;entryY=0;entryDx=0;entryDy=0;" parent="56ZMSUlLdkVWpQMdgxCH-1" source="56ZMSUlLdkVWpQMdgxCH-338" target="56ZMSUlLdkVWpQMdgxCH-340" edge="1">
                    <mxGeometry relative="1" as="geometry"/>
                </mxCell>
                <mxCell id="56ZMSUlLdkVWpQMdgxCH-338" value="17" style="ellipse;whiteSpace=wrap;html=1;aspect=fixed;" parent="56ZMSUlLdkVWpQMdgxCH-1" vertex="1">
                    <mxGeometry x="310" y="2990" width="60" height="60" as="geometry"/>
                </mxCell>
                <mxCell id="56ZMSUlLdkVWpQMdgxCH-339" style="edgeStyle=orthogonalEdgeStyle;html=1;exitX=0.5;exitY=1;exitDx=0;exitDy=0;entryX=0.5;entryY=0;entryDx=0;entryDy=0;" parent="56ZMSUlLdkVWpQMdgxCH-1" source="56ZMSUlLdkVWpQMdgxCH-340" target="56ZMSUlLdkVWpQMdgxCH-342" edge="1">
                    <mxGeometry relative="1" as="geometry"/>
                </mxCell>
                <mxCell id="56ZMSUlLdkVWpQMdgxCH-340" value="18" style="ellipse;whiteSpace=wrap;html=1;aspect=fixed;" parent="56ZMSUlLdkVWpQMdgxCH-1" vertex="1">
                    <mxGeometry x="310" y="3070" width="60" height="60" as="geometry"/>
                </mxCell>
                <mxCell id="56ZMSUlLdkVWpQMdgxCH-341" style="edgeStyle=orthogonalEdgeStyle;html=1;exitX=0.5;exitY=1;exitDx=0;exitDy=0;entryX=0.5;entryY=0;entryDx=0;entryDy=0;" parent="56ZMSUlLdkVWpQMdgxCH-1" source="56ZMSUlLdkVWpQMdgxCH-342" target="56ZMSUlLdkVWpQMdgxCH-344" edge="1">
                    <mxGeometry relative="1" as="geometry"/>
                </mxCell>
                <mxCell id="56ZMSUlLdkVWpQMdgxCH-342" value="19" style="ellipse;whiteSpace=wrap;html=1;aspect=fixed;" parent="56ZMSUlLdkVWpQMdgxCH-1" vertex="1">
                    <mxGeometry x="310" y="3150" width="60" height="60" as="geometry"/>
                </mxCell>
                <mxCell id="56ZMSUlLdkVWpQMdgxCH-343" style="edgeStyle=orthogonalEdgeStyle;html=1;exitX=0.5;exitY=1;exitDx=0;exitDy=0;entryX=0.5;entryY=0;entryDx=0;entryDy=0;" parent="56ZMSUlLdkVWpQMdgxCH-1" source="56ZMSUlLdkVWpQMdgxCH-344" target="56ZMSUlLdkVWpQMdgxCH-346" edge="1">
                    <mxGeometry relative="1" as="geometry"/>
                </mxCell>
                <mxCell id="56ZMSUlLdkVWpQMdgxCH-344" value="20" style="ellipse;whiteSpace=wrap;html=1;aspect=fixed;" parent="56ZMSUlLdkVWpQMdgxCH-1" vertex="1">
                    <mxGeometry x="310" y="3230" width="60" height="60" as="geometry"/>
                </mxCell>
                <mxCell id="56ZMSUlLdkVWpQMdgxCH-345" style="edgeStyle=orthogonalEdgeStyle;html=1;exitX=0.5;exitY=1;exitDx=0;exitDy=0;entryX=0.5;entryY=0;entryDx=0;entryDy=0;" parent="56ZMSUlLdkVWpQMdgxCH-1" source="56ZMSUlLdkVWpQMdgxCH-346" target="56ZMSUlLdkVWpQMdgxCH-353" edge="1">
                    <mxGeometry relative="1" as="geometry">
                        <Array as="points">
                            <mxPoint x="340" y="3380"/>
                            <mxPoint x="407" y="3380"/>
                            <mxPoint x="407" y="2650"/>
                            <mxPoint x="474" y="2650"/>
                        </Array>
                    </mxGeometry>
                </mxCell>
                <mxCell id="56ZMSUlLdkVWpQMdgxCH-346" value="21" style="ellipse;whiteSpace=wrap;html=1;aspect=fixed;" parent="56ZMSUlLdkVWpQMdgxCH-1" vertex="1">
                    <mxGeometry x="310" y="3310" width="60" height="60" as="geometry"/>
                </mxCell>
                <mxCell id="56ZMSUlLdkVWpQMdgxCH-347" style="edgeStyle=orthogonalEdgeStyle;html=1;exitX=0.5;exitY=1;exitDx=0;exitDy=0;entryX=0.5;entryY=0;entryDx=0;entryDy=0;" parent="56ZMSUlLdkVWpQMdgxCH-1" source="56ZMSUlLdkVWpQMdgxCH-348" target="56ZMSUlLdkVWpQMdgxCH-332" edge="1">
                    <mxGeometry relative="1" as="geometry"/>
                </mxCell>
                <mxCell id="56ZMSUlLdkVWpQMdgxCH-348" value="13" style="ellipse;whiteSpace=wrap;html=1;aspect=fixed;" parent="56ZMSUlLdkVWpQMdgxCH-1" vertex="1">
                    <mxGeometry x="310" y="2670" width="60" height="60" as="geometry"/>
                </mxCell>
                <mxCell id="56ZMSUlLdkVWpQMdgxCH-349" value="" style="shape=partialRectangle;whiteSpace=wrap;html=1;bottom=1;right=1;left=1;top=0;fillColor=none;routingCenterX=-0.5;" parent="56ZMSUlLdkVWpQMdgxCH-1" vertex="1">
                    <mxGeometry x="140.5" y="3390" width="223" height="10" as="geometry"/>
                </mxCell>
                <mxCell id="56ZMSUlLdkVWpQMdgxCH-350" value="ceil(log2(n)-log2(thid))" style="text;html=1;align=center;verticalAlign=middle;resizable=0;points=[];autosize=1;strokeColor=none;fillColor=none;" parent="56ZMSUlLdkVWpQMdgxCH-1" vertex="1">
                    <mxGeometry x="189" y="3420" width="130" height="20" as="geometry"/>
                </mxCell>
                <mxCell id="56ZMSUlLdkVWpQMdgxCH-351" value="" style="shape=partialRectangle;whiteSpace=wrap;html=1;bottom=1;right=1;left=1;top=0;fillColor=none;routingCenterX=-0.5;" parent="56ZMSUlLdkVWpQMdgxCH-1" vertex="1">
                    <mxGeometry x="450.5" y="3010" width="223" height="10" as="geometry"/>
                </mxCell>
                <mxCell id="56ZMSUlLdkVWpQMdgxCH-352" style="edgeStyle=orthogonalEdgeStyle;html=1;exitX=0.5;exitY=1;exitDx=0;exitDy=0;entryX=0.5;entryY=0;entryDx=0;entryDy=0;" parent="56ZMSUlLdkVWpQMdgxCH-1" source="56ZMSUlLdkVWpQMdgxCH-353" target="56ZMSUlLdkVWpQMdgxCH-355" edge="1">
                    <mxGeometry relative="1" as="geometry"/>
                </mxCell>
                <mxCell id="56ZMSUlLdkVWpQMdgxCH-353" value="13" style="ellipse;whiteSpace=wrap;html=1;aspect=fixed;" parent="56ZMSUlLdkVWpQMdgxCH-1" vertex="1">
                    <mxGeometry x="444" y="2670" width="60" height="60" as="geometry"/>
                </mxCell>
                <mxCell id="56ZMSUlLdkVWpQMdgxCH-354" style="edgeStyle=orthogonalEdgeStyle;html=1;exitX=0.5;exitY=1;exitDx=0;exitDy=0;entryX=0.5;entryY=0;entryDx=0;entryDy=0;" parent="56ZMSUlLdkVWpQMdgxCH-1" source="56ZMSUlLdkVWpQMdgxCH-355" target="56ZMSUlLdkVWpQMdgxCH-357" edge="1">
                    <mxGeometry relative="1" as="geometry"/>
                </mxCell>
                <mxCell id="56ZMSUlLdkVWpQMdgxCH-355" value="14" style="ellipse;whiteSpace=wrap;html=1;aspect=fixed;" parent="56ZMSUlLdkVWpQMdgxCH-1" vertex="1">
                    <mxGeometry x="444" y="2750" width="60" height="60" as="geometry"/>
                </mxCell>
                <mxCell id="56ZMSUlLdkVWpQMdgxCH-356" style="edgeStyle=orthogonalEdgeStyle;html=1;exitX=0.5;exitY=1;exitDx=0;exitDy=0;entryX=0.5;entryY=0;entryDx=0;entryDy=0;" parent="56ZMSUlLdkVWpQMdgxCH-1" source="56ZMSUlLdkVWpQMdgxCH-357" target="56ZMSUlLdkVWpQMdgxCH-359" edge="1">
                    <mxGeometry relative="1" as="geometry"/>
                </mxCell>
                <mxCell id="56ZMSUlLdkVWpQMdgxCH-357" value="15" style="ellipse;whiteSpace=wrap;html=1;aspect=fixed;" parent="56ZMSUlLdkVWpQMdgxCH-1" vertex="1">
                    <mxGeometry x="444" y="2830" width="60" height="60" as="geometry"/>
                </mxCell>
                <mxCell id="56ZMSUlLdkVWpQMdgxCH-358" style="edgeStyle=orthogonalEdgeStyle;html=1;exitX=0.5;exitY=1;exitDx=0;exitDy=0;entryX=0.5;entryY=0;entryDx=0;entryDy=0;" parent="56ZMSUlLdkVWpQMdgxCH-1" source="56ZMSUlLdkVWpQMdgxCH-359" target="56ZMSUlLdkVWpQMdgxCH-367" edge="1">
                    <mxGeometry relative="1" as="geometry">
                        <Array as="points">
                            <mxPoint x="474" y="2980"/>
                            <mxPoint x="518" y="2980"/>
                            <mxPoint x="518" y="2650"/>
                            <mxPoint x="562" y="2650"/>
                        </Array>
                    </mxGeometry>
                </mxCell>
                <mxCell id="56ZMSUlLdkVWpQMdgxCH-359" value="16" style="ellipse;whiteSpace=wrap;html=1;aspect=fixed;" parent="56ZMSUlLdkVWpQMdgxCH-1" vertex="1">
                    <mxGeometry x="444" y="2910" width="60" height="60" as="geometry"/>
                </mxCell>
                <mxCell id="56ZMSUlLdkVWpQMdgxCH-360" style="edgeStyle=orthogonalEdgeStyle;html=1;exitX=0.5;exitY=1;exitDx=0;exitDy=0;entryX=0.5;entryY=0;entryDx=0;entryDy=0;" parent="56ZMSUlLdkVWpQMdgxCH-1" source="56ZMSUlLdkVWpQMdgxCH-361" target="56ZMSUlLdkVWpQMdgxCH-363" edge="1">
                    <mxGeometry relative="1" as="geometry"/>
                </mxCell>
                <mxCell id="56ZMSUlLdkVWpQMdgxCH-361" value="14" style="ellipse;whiteSpace=wrap;html=1;aspect=fixed;" parent="56ZMSUlLdkVWpQMdgxCH-1" vertex="1">
                    <mxGeometry x="532" y="2750" width="60" height="60" as="geometry"/>
                </mxCell>
                <mxCell id="56ZMSUlLdkVWpQMdgxCH-362" style="edgeStyle=orthogonalEdgeStyle;html=1;exitX=0.5;exitY=1;exitDx=0;exitDy=0;entryX=0.5;entryY=0;entryDx=0;entryDy=0;" parent="56ZMSUlLdkVWpQMdgxCH-1" source="56ZMSUlLdkVWpQMdgxCH-363" target="56ZMSUlLdkVWpQMdgxCH-365" edge="1">
                    <mxGeometry relative="1" as="geometry"/>
                </mxCell>
                <mxCell id="56ZMSUlLdkVWpQMdgxCH-363" value="15" style="ellipse;whiteSpace=wrap;html=1;aspect=fixed;" parent="56ZMSUlLdkVWpQMdgxCH-1" vertex="1">
                    <mxGeometry x="532" y="2830" width="60" height="60" as="geometry"/>
                </mxCell>
                <mxCell id="56ZMSUlLdkVWpQMdgxCH-364" style="edgeStyle=orthogonalEdgeStyle;html=1;exitX=0.5;exitY=1;exitDx=0;exitDy=0;entryX=0.5;entryY=0;entryDx=0;entryDy=0;dashed=1;" parent="56ZMSUlLdkVWpQMdgxCH-1" source="56ZMSUlLdkVWpQMdgxCH-365" target="56ZMSUlLdkVWpQMdgxCH-375" edge="1">
                    <mxGeometry relative="1" as="geometry">
                        <Array as="points">
                            <mxPoint x="562" y="2980"/>
                            <mxPoint x="606" y="2980"/>
                            <mxPoint x="606" y="2650"/>
                            <mxPoint x="650" y="2650"/>
                        </Array>
                    </mxGeometry>
                </mxCell>
                <mxCell id="56ZMSUlLdkVWpQMdgxCH-365" value="16" style="ellipse;whiteSpace=wrap;html=1;aspect=fixed;" parent="56ZMSUlLdkVWpQMdgxCH-1" vertex="1">
                    <mxGeometry x="532" y="2910" width="60" height="60" as="geometry"/>
                </mxCell>
                <mxCell id="56ZMSUlLdkVWpQMdgxCH-366" style="edgeStyle=orthogonalEdgeStyle;html=1;exitX=0.5;exitY=1;exitDx=0;exitDy=0;entryX=0.5;entryY=0;entryDx=0;entryDy=0;" parent="56ZMSUlLdkVWpQMdgxCH-1" source="56ZMSUlLdkVWpQMdgxCH-367" target="56ZMSUlLdkVWpQMdgxCH-361" edge="1">
                    <mxGeometry relative="1" as="geometry"/>
                </mxCell>
                <mxCell id="56ZMSUlLdkVWpQMdgxCH-367" value="13" style="ellipse;whiteSpace=wrap;html=1;aspect=fixed;" parent="56ZMSUlLdkVWpQMdgxCH-1" vertex="1">
                    <mxGeometry x="532" y="2670" width="60" height="60" as="geometry"/>
                </mxCell>
                <mxCell id="56ZMSUlLdkVWpQMdgxCH-368" style="edgeStyle=orthogonalEdgeStyle;html=1;exitX=0.5;exitY=1;exitDx=0;exitDy=0;entryX=0.5;entryY=0;entryDx=0;entryDy=0;" parent="56ZMSUlLdkVWpQMdgxCH-1" source="56ZMSUlLdkVWpQMdgxCH-369" target="56ZMSUlLdkVWpQMdgxCH-371" edge="1">
                    <mxGeometry relative="1" as="geometry"/>
                </mxCell>
                <mxCell id="56ZMSUlLdkVWpQMdgxCH-369" value="14" style="ellipse;whiteSpace=wrap;html=1;aspect=fixed;" parent="56ZMSUlLdkVWpQMdgxCH-1" vertex="1">
                    <mxGeometry x="620" y="2750" width="60" height="60" as="geometry"/>
                </mxCell>
                <mxCell id="56ZMSUlLdkVWpQMdgxCH-370" style="edgeStyle=orthogonalEdgeStyle;html=1;exitX=0.5;exitY=1;exitDx=0;exitDy=0;entryX=0.5;entryY=0;entryDx=0;entryDy=0;" parent="56ZMSUlLdkVWpQMdgxCH-1" source="56ZMSUlLdkVWpQMdgxCH-371" target="56ZMSUlLdkVWpQMdgxCH-373" edge="1">
                    <mxGeometry relative="1" as="geometry"/>
                </mxCell>
                <mxCell id="56ZMSUlLdkVWpQMdgxCH-371" value="15" style="ellipse;whiteSpace=wrap;html=1;aspect=fixed;" parent="56ZMSUlLdkVWpQMdgxCH-1" vertex="1">
                    <mxGeometry x="620" y="2830" width="60" height="60" as="geometry"/>
                </mxCell>
                <mxCell id="56ZMSUlLdkVWpQMdgxCH-372" style="edgeStyle=orthogonalEdgeStyle;html=1;exitX=0.5;exitY=1;exitDx=0;exitDy=0;entryX=0.5;entryY=0;entryDx=0;entryDy=0;" parent="56ZMSUlLdkVWpQMdgxCH-1" source="56ZMSUlLdkVWpQMdgxCH-373" target="56ZMSUlLdkVWpQMdgxCH-378" edge="1">
                    <mxGeometry relative="1" as="geometry">
                        <Array as="points">
                            <mxPoint x="650" y="2980"/>
                            <mxPoint x="707" y="2980"/>
                            <mxPoint x="707" y="2650"/>
                            <mxPoint x="764" y="2650"/>
                        </Array>
                    </mxGeometry>
                </mxCell>
                <mxCell id="56ZMSUlLdkVWpQMdgxCH-373" value="16" style="ellipse;whiteSpace=wrap;html=1;aspect=fixed;" parent="56ZMSUlLdkVWpQMdgxCH-1" vertex="1">
                    <mxGeometry x="620" y="2910" width="60" height="60" as="geometry"/>
                </mxCell>
                <mxCell id="56ZMSUlLdkVWpQMdgxCH-374" style="edgeStyle=orthogonalEdgeStyle;html=1;exitX=0.5;exitY=1;exitDx=0;exitDy=0;entryX=0.5;entryY=0;entryDx=0;entryDy=0;" parent="56ZMSUlLdkVWpQMdgxCH-1" source="56ZMSUlLdkVWpQMdgxCH-375" target="56ZMSUlLdkVWpQMdgxCH-369" edge="1">
                    <mxGeometry relative="1" as="geometry"/>
                </mxCell>
                <mxCell id="56ZMSUlLdkVWpQMdgxCH-375" value="13" style="ellipse;whiteSpace=wrap;html=1;aspect=fixed;" parent="56ZMSUlLdkVWpQMdgxCH-1" vertex="1">
                    <mxGeometry x="620" y="2670" width="60" height="60" as="geometry"/>
                </mxCell>
                <mxCell id="56ZMSUlLdkVWpQMdgxCH-376" value="ceil(log2(thid))" style="text;html=1;strokeColor=none;fillColor=none;align=center;verticalAlign=middle;whiteSpace=wrap;rounded=0;" parent="56ZMSUlLdkVWpQMdgxCH-1" vertex="1">
                    <mxGeometry x="532" y="3030" width="60" height="30" as="geometry"/>
                </mxCell>
                <mxCell id="56ZMSUlLdkVWpQMdgxCH-377" style="edgeStyle=orthogonalEdgeStyle;html=1;exitX=0.5;exitY=1;exitDx=0;exitDy=0;entryX=0.5;entryY=0;entryDx=0;entryDy=0;" parent="56ZMSUlLdkVWpQMdgxCH-1" source="56ZMSUlLdkVWpQMdgxCH-378" target="56ZMSUlLdkVWpQMdgxCH-380" edge="1">
                    <mxGeometry relative="1" as="geometry"/>
                </mxCell>
                <mxCell id="56ZMSUlLdkVWpQMdgxCH-378" value="22" style="ellipse;whiteSpace=wrap;html=1;aspect=fixed;" parent="56ZMSUlLdkVWpQMdgxCH-1" vertex="1">
                    <mxGeometry x="734" y="2670" width="60" height="60" as="geometry"/>
                </mxCell>
                <mxCell id="56ZMSUlLdkVWpQMdgxCH-379" style="edgeStyle=orthogonalEdgeStyle;html=1;exitX=0.5;exitY=1;exitDx=0;exitDy=0;entryX=0.5;entryY=0;entryDx=0;entryDy=0;" parent="56ZMSUlLdkVWpQMdgxCH-1" source="56ZMSUlLdkVWpQMdgxCH-380" target="56ZMSUlLdkVWpQMdgxCH-381" edge="1">
                    <mxGeometry relative="1" as="geometry"/>
                </mxCell>
                <mxCell id="56ZMSUlLdkVWpQMdgxCH-380" value="23" style="ellipse;whiteSpace=wrap;html=1;aspect=fixed;" parent="56ZMSUlLdkVWpQMdgxCH-1" vertex="1">
                    <mxGeometry x="734" y="2750" width="60" height="60" as="geometry"/>
                </mxCell>
                <mxCell id="56ZMSUlLdkVWpQMdgxCH-381" value="24" style="ellipse;whiteSpace=wrap;html=1;aspect=fixed;" parent="56ZMSUlLdkVWpQMdgxCH-1" vertex="1">
                    <mxGeometry x="734" y="2830" width="60" height="60" as="geometry"/>
                </mxCell>
                <mxCell id="56ZMSUlLdkVWpQMdgxCH-383" value="" style="strokeWidth=2;html=1;shape=mxgraph.flowchart.annotation_1;align=left;pointerEvents=1;" parent="56ZMSUlLdkVWpQMdgxCH-1" vertex="1">
                    <mxGeometry x="3" y="120" width="20" height="3280" as="geometry"/>
                </mxCell>
                <mxCell id="56ZMSUlLdkVWpQMdgxCH-384" value="n раз" style="text;html=1;align=center;verticalAlign=middle;resizable=0;points=[];autosize=1;strokeColor=none;fillColor=none;" parent="56ZMSUlLdkVWpQMdgxCH-1" vertex="1">
                    <mxGeometry x="14" y="2380" width="40" height="20" as="geometry"/>
                </mxCell>
            </root>
        </mxGraphModel>
    </diagram>
</mxfile>